<svg xmlns="http://www.w3.org/2000/svg" width="28" height="28" viewBox="0 0 28 28">
    <g fill="none" fill-rule="evenodd">
        <circle cx="14" cy="14" r="13.65" stroke="#F5FAF0" stroke-width=".7"/>
        <path fill="#F5FAF0" d="M19.212 8.271c.419-.016.773.309.787.73.017.419-.306.775-.725.793l-4.418.558.002 4.42 2.14 7.142c.113.45-.158.902-.604 1.013-.446.112-.903-.134-1.015-.585l-2.193-6.5h-.675l-2.018 6.635c-.168.433-.651.632-1.084.463-.428-.167-.69-.655-.521-1.087l1.853-7.009v-4.492l-4.07-.554c-.419-.034-.702-.401-.668-.819.03-.42.41-.733.828-.7l4.946.426h2.169l5.266-.434zM12.838 5c.823 0 1.49.665 1.49 1.482 0 .822-.667 1.488-1.49 1.488-.816 0-1.482-.666-1.483-1.488 0-.817.666-1.482 1.483-1.482z"/>
    </g>
</svg>
