<svg xmlns="http://www.w3.org/2000/svg" width="72" height="72" viewBox="0 0 72 72">
    <defs>
        <filter id="prefix__a" width="184.5%" height="184.5%" x="-42.2%" y="-41.1%" filterUnits="objectBoundingBox">
            <feMorphology in="SourceAlpha" operator="dilate" radius="1.5" result="shadowSpreadOuter1"/>
            <feOffset dy="2" in="shadowSpreadOuter1" result="shadowOffsetOuter1"/>
            <feGaussianBlur in="shadowOffsetOuter1" result="shadowBlurOuter1" stdDeviation="14"/>
            <feColorMatrix in="shadowBlurOuter1" result="shadowMatrixOuter1" values="0 0 0 0 0 0 0 0 0 0.156862745 0 0 0 0 0.0588235294 0 0 0 1 0"/>
            <feMerge>
                <feMergeNode in="shadowMatrixOuter1"/>
                <feMergeNode in="SourceGraphic"/>
            </feMerge>
        </filter>
    </defs>
    <g fill="none" fill-rule="evenodd" filter="url(#prefix__a)" transform="translate(-51 -24)">
        <g>
            <path fill="#004128" fill-rule="nonzero" d="M.637 45.706h3.045v3.275c0 1.453 1.188 2.635 2.648 2.635 1.46 0 2.649-1.182 2.649-2.635v-3.275h3.044c.352 0 .637-.286.637-.638v-4.16c0-.353-.285-.638-.637-.638h-.555v-1.024h28.043v1.024h-.555c-.352 0-.638.285-.638.637v4.161c0 .352.286.638.638.638H42v3.275c0 1.453 1.188 2.635 2.649 2.635 1.46 0 2.648-1.182 2.648-2.635v-3.275h3.044c.352 0 .638-.286.638-.638v-4.16c0-.353-.286-.638-.638-.638h-.555V11.93h.555c.352 0 .638-.285.638-.637V7.132c0-.352-.286-.637-.638-.637h-3.044V3.208c0-1.453-1.188-2.635-2.648-2.635C43.189.573 42 1.755 42 3.208v3.287h-3.044c-.352 0-.638.285-.638.637v4.161c0 .352.286.637.638.637h.555v.967H11.468v-.967h.555c.352 0 .637-.285.637-.637V7.132c0-.352-.285-.637-.637-.637H8.98V3.208C8.979 1.755 7.79.573 6.33.573c-1.46 0-2.648 1.182-2.648 2.635v3.287H.637c-.352 0-.637.285-.637.637v4.161c0 .352.285.637.637.637h.555v28.34H.637c-.352 0-.637.285-.637.637v4.161c0 .352.285.638.637.638zm7.067 3.275c0 .75-.616 1.36-1.374 1.36-.757 0-1.374-.61-1.374-1.36v-3.275h2.748v3.275zm3.682-4.55H1.274v-2.887h10.112v2.887zm33.263 5.91c-.758 0-1.374-.61-1.374-1.36v-3.275h2.747v3.275c0 .75-.616 1.36-1.373 1.36zm5.055-5.91H39.593v-2.887h10.111v2.887zm-6.43-41.223c0-.75.617-1.361 1.375-1.361.757 0 1.373.61 1.373 1.36v3.288h-2.747V3.208zm-3.681 4.561h10.111v2.887H39.593V7.769zm8.919 4.161v28.34h-7.727V11.93h7.727zm-9.001 2.241v23.8H11.468v-23.8h28.043zM4.956 3.208c0-.75.617-1.361 1.374-1.361.758 0 1.374.61 1.374 1.36v3.288H4.956V3.208zM1.274 7.769h10.112v2.887H1.274V7.769zm1.193 4.161h7.727v28.34H2.467V11.93z" transform="translate(60.442 34.071)"/>
            <path fill="#F5FAF0" fill-rule="nonzero" d="M11.468 14.171H39.510999999999996V37.971000000000004H11.468z" transform="translate(60.442 34.071)"/>
            <path fill="#C3DC87" fill-rule="nonzero" d="M19.32 26.095l-2.66 4.467c-.118.197-.12.442-.008.641.114.2.325.322.555.322h5.326l2.408 4.07c.115.193.323.312.548.312.226 0 .434-.119.549-.313l2.408-4.069h5.326c.23 0 .441-.123.554-.322.114-.2.111-.444-.007-.641l-2.66-4.467 2.662-4.498c.116-.197.118-.442.005-.64-.114-.2-.325-.322-.554-.322h-5.366l-2.37-3.978c-.229-.385-.864-.385-1.094 0l-2.37 3.978h-5.365c-.23 0-.44.123-.554.322-.113.198-.111.443.005.64l2.662 4.498zm-.992 4.156l1.731-2.906 1.72 2.906h-3.451zm2.474-4.154l2.495-4.188h4.385l2.494 4.188-2.457 4.154H23.26l-2.458-4.154zm4.687 7.921l-1.475-2.493h2.95l-1.475 2.493zm7.162-3.767H29.2l1.72-2.906 1.73 2.906zm.003-8.342l-1.738 2.939-1.75-2.939h3.488zm-7.165-3.68l1.434 2.406h-2.867l1.433-2.406zm-3.675 3.68l-1.75 2.939-1.74-2.939h3.49z" transform="translate(60.442 34.071)"/>
            <path fill="#F5FAF0" d="M2.467 11.93H10.194V40.269H2.467zM40.701 11.93H48.428V40.269H40.701z" transform="translate(60.442 34.071)"/>
        </g>
    </g>
</svg>