<svg xmlns="http://www.w3.org/2000/svg" xmlns:xlink="http://www.w3.org/1999/xlink" width="73" height="73" viewBox="0 0 73 73">
    <defs>
        <path id="prefix__a" d="M0 0H72.215V72.215H0z"/>
    </defs>
    <g fill="none" fill-rule="evenodd">
        <mask id="prefix__b" fill="#fff">
            <use xlink:href="#prefix__a"/>
        </mask>
        <use fill="#F5FAF0" fill-opacity=".001" xlink:href="#prefix__a"/>
        <g mask="url(#prefix__b)">
            <g>
                <path fill="#F5FAF0" d="M55.327 7.923L48.755 25.894 46.053 28.024 35.033 28.024 10.692 28.024 7.03 26.509 4.282 18.536 0.631 7.923z" transform="translate(8.45 8.44)"/>
                <path fill="#00280F" fill-rule="nonzero" d="M55.327 7.201H.645c-.356 0-.645.289-.645.645v37.936c0 2.459 1.993 4.451 4.451 4.451H51.52c2.458 0 4.451-1.993 4.451-4.45V7.845c0-.356-.288-.645-.644-.645zM1.289 8.491h53.393v37.291c0 1.746-1.416 3.162-3.162 3.162H4.451l-.208-.007c-1.649-.107-2.954-1.479-2.954-3.155V8.49z" transform="translate(8.45 8.44)"/>
                <path fill="#00280F" fill-rule="nonzero" d="M34.645 0c2.364 0 4.296 1.853 4.422 4.185l.006.243v3.495h-1.29V4.428c0-1.664-1.294-3.026-2.931-3.132l-.207-.006H21.187c-1.665 0-3.026 1.295-3.132 2.932l-.007.206v3.495h-1.29V4.428c0-2.364 1.853-4.295 4.186-4.421L21.187 0h13.458zM1.24 7.597l5.803 16.848c.578 1.676 2.11 2.826 3.863 2.927l.252.007h9.595v1.29h-9.595c-2.315 0-4.384-1.413-5.237-3.545l-.097-.259L.021 8.017l1.22-.42zM54.685 7.597l1.22.42-5.803 16.848c-.754 2.189-2.764 3.685-5.057 3.797l-.277.007h-9.92v-1.29h9.92c1.773 0 3.359-1.074 4.026-2.698l.088-.236 5.803-16.848z" transform="translate(8.45 8.44)"/>
                <path fill="#C3DC87" d="M20.939 31.951L35.033 31.951 35.033 24.904 20.939 24.904z" transform="translate(8.45 8.44)"/>
                <path fill="#00280F" fill-rule="nonzero" d="M35.033 24.259H20.939c-.357 0-.645.289-.645.645v7.047c0 .356.288.645.645.645h14.094c.356 0 .644-.29.644-.645v-7.047c0-.356-.288-.645-.644-.645zm-.646 1.288v5.758H21.583v-5.758h12.804z" transform="translate(8.45 8.44)"/>
            </g>
        </g>
    </g>
</svg>
