<svg xmlns="http://www.w3.org/2000/svg" xmlns:xlink="http://www.w3.org/1999/xlink" width="56" height="56" viewBox="0 0 56 56">
    <defs>
        <path id="prefix__a" d="M0 0H56V56H0z"/>
    </defs>
    <g fill="none" fill-rule="evenodd">
        <mask id="prefix__b" fill="#fff">
            <use xlink:href="#prefix__a"/>
        </mask>
        <use fill="#F5FAF0" fill-opacity=".001" xlink:href="#prefix__a"/>
        <g mask="url(#prefix__b)">
            <path d="M0 0H56V56H0z"/>
            <path fill="#F5FAF0" d="M34.64 45.477H14.32c-2.386 0-4.32-1.934-4.32-4.32V40h20.437v1.25c0 2.335 1.892 4.227 4.227 4.227"/>
            <path fill="#00280F" fill-rule="nonzero" d="M19.825 22.023l-.001 4.891 1.783-.691c.086-.034.179-.042.269-.026l.088.024 1.856.7v-4.75h1v5.474c0 .32-.293.55-.594.49l-.082-.023-2.353-.888-2.285.887c-.3.116-.623-.077-.674-.381l-.007-.085v-5.622h1z"/>
            <path fill="#00280F" fill-rule="nonzero" d="M42.503 10.905v1H18.42c-2.044 0-3.713 1.605-3.815 3.623l-.005.197v24.247h-1V15.725c0-2.59 2.042-4.703 4.605-4.815l.215-.005h24.084z"/>
            <path fill="#C3DC87" d="M25.637 19.273c0 2.126-1.723 3.85-3.85 3.85-2.125 0-3.849-1.724-3.849-3.85 0-2.126 1.724-3.85 3.85-3.85 2.126 0 3.85 1.724 3.85 3.85z"/>
            <path fill="#00280F" fill-rule="nonzero" d="M21.788 14.924c-2.402 0-4.35 1.947-4.35 4.35 0 2.401 1.948 4.349 4.35 4.349 2.402 0 4.35-1.948 4.35-4.35 0-2.402-1.948-4.35-4.35-4.35zm0 1c1.85 0 3.35 1.5 3.35 3.35s-1.5 3.349-3.35 3.349-3.35-1.5-3.35-3.35 1.5-3.35 3.35-3.35zM35.386 19.457L35.386 20.457 28.729 20.457 28.729 19.457zM35.386 23.181L35.386 24.181 28.729 24.181 28.729 23.181zM35.386 26.904L35.386 27.904 26.842 27.904 26.842 26.904z"/>
            <path fill="#00280F" fill-rule="nonzero" d="M42.522 10.923c1.993-.038 3.651 1.568 3.753 3.555l.005.194v2.672c0 .246-.177.45-.41.492l-.09.008h-3.187v-1h2.686v-2.172c0-1.465-1.155-2.684-2.573-2.747l-.165-.002c-1.405.027-2.543 1.132-2.629 2.522l-.005.168-.018 2.012v24.48c0 2.59-2.043 4.703-4.606 4.815l-.238.005h-20.32c-2.59 0-4.703-2.043-4.815-4.605l-.005-.215v-1.157c0-.246.177-.45.41-.492l.09-.008h20.437c.245 0 .45.176.492.41l.008.09v1.25c0 2.058 1.668 3.727 3.727 3.727 2.043 0 3.712-1.605 3.815-3.623l.005-.197V16.62l.018-2.011c0-2.01 1.61-3.648 3.615-3.686zm-12.18 30.275l-.001-.751H10.904l.001.658c0 2.044 1.605 3.713 3.623 3.815l.197.005 17.434-.001-.136-.11c-.977-.824-1.615-2.037-1.677-3.4l-.004-.216z"/>
            <path fill="#00280F" fill-rule="nonzero" d="M35.017 32.546H18.573c-.276 0-.5.224-.5.5v2.219c0 .276.224.5.5.5h16.444c.276 0 .5-.224.5-.5v-2.22c0-.275-.224-.5-.5-.5zm-.501.999v1.219H19.072v-1.219h15.444z"/>
        </g>
    </g>
</svg>
