<svg xmlns="http://www.w3.org/2000/svg" width="36" height="36" viewBox="0 0 36 36">
    <path fill="#FFF" d="M18 36C8.059 36 0 27.941 0 18S8.059 0 18 0s18 8.059 18 18-8.059 18-18 18zm0-3c8.284 0 15-6.716 15-15 0-8.284-6.716-15-15-15C9.716 3 3 9.716 3 18c0 8.284 6.716 15 15 15zm0-9c-3.314 0-6-2.686-6-6s2.686-6 6-6 6 2.686 6 6-2.686 6-6 6zm0 4.25c-5.66 0-10.25-4.59-10.25-10.25S12.34 7.75 18 7.75 28.25 12.34 28.25 18 23.66 28.25 18 28.25zm0-.5c5.385 0 9.75-4.365 9.75-9.75S23.385 8.25 18 8.25 8.25 12.615 8.25 18s4.365 9.75 9.75 9.75z"/>
</svg>
