<svg xmlns="http://www.w3.org/2000/svg" xmlns:xlink="http://www.w3.org/1999/xlink" width="44" height="43" viewBox="0 0 44 43">
    <defs>
        <path id="prefix__a" d="M0 0H56V56H0z"/>
    </defs>
    <g fill="none" fill-rule="evenodd" transform="translate(-6 -7)">
        <mask id="prefix__b" fill="#fff">
            <use xlink:href="#prefix__a"/>
        </mask>
        <use fill="#F5FAF0" fill-opacity=".001" xlink:href="#prefix__a"/>
        <g mask="url(#prefix__b)">
            <g>
                <path fill="#C3DC87" d="M40.674.5c1.724.922 2.278 1.613 1.66 2.073L27.03 13.995c-.903.673-2.13.673-3.032 0L8.585 2.494C7.99 2.05 8.45 1.314 9.964.283L40.674.5z" transform="translate(6.487 7.5)"/>
                <path fill="#00280F" fill-rule="nonzero" d="M40.674 0c1.238 0 2.251.97 2.333 2.196l.006.16v22.287c0 1.247-.961 2.269-2.179 2.352l-.16.005H11.219v-1h29.455c.695 0 1.268-.537 1.333-1.226l.006-.13V2.356c0-.706-.533-1.285-1.21-1.35L40.674 1H10.352c-.695 0-1.268.538-1.333 1.226l-.006.13v8.738h-1V2.357c0-1.246.96-2.269 2.178-2.352l.16-.005h30.323z" transform="translate(6.487 7.5)"/>
                <path fill="#00280F" fill-rule="nonzero" d="M39.214 4.1l.598.8-12.918 9.64c-.77.575-1.802.61-2.605.108l-.158-.108L11.214 4.9l.598-.8 12.917 9.639c.428.32.996.346 1.447.08l.12-.08 12.918-9.64z" transform="translate(6.487 7.5)"/>
                <path fill="#F5FAF0" d="M20.147 34.037l.4.22c1.009.564 2.278.303 2.98-.614l2.17-2.788c.246-.314.693-.387 1.026-.167l7.45 4.967c.339.225.44.677.231 1.026l-1.868 3.114c-.39.67-1.024 1.162-1.769 1.374-3.73 1.026-10.26.158-20.172-9.754C.685 21.504-.18 14.975.843 11.246c.212-.745.704-1.378 1.373-1.769L5.33 7.608c.35-.208.8-.107 1.027.231l4.968 7.45c.22.334.148.78-.166 1.027l-2.79 2.17c-.916.702-1.177 1.971-.614 2.979l.221.4c.79 1.448 1.77 3.25 5.347 6.825 3.577 3.576 5.377 4.558 6.824 5.347z" transform="translate(6.487 7.5)"/>
                <path fill="#00280F" fill-rule="nonzero" d="M5.074 7.179l-3.116 1.87C1.184 9.5.61 10.24.362 11.109c-1.433 5.22 1.291 12.07 9.88 20.66l.788.776c8.222 7.978 14.815 10.496 19.87 9.106.873-.249 1.613-.823 2.068-1.604l1.865-3.11c.346-.577.178-1.325-.382-1.699L27 30.272c-.552-.365-1.29-.245-1.697.274l-2.17 2.79c-.554.722-1.55.927-2.341.485l-.404-.222c-2.224-1.213-3.696-2.278-6.394-4.947l-.317-.315c-2.796-2.795-3.918-4.287-5.123-6.457l-.36-.657c-.445-.793-.24-1.789.48-2.34l2.792-2.172c.52-.409.64-1.146.276-1.697l-4.97-7.452c-.373-.56-1.12-.728-1.698-.383zm.867.938l4.968 7.45c.076.114.05.27-.059.355l-2.788 2.17c-1.11.85-1.428 2.392-.743 3.617l.22.398c1.254 2.301 2.372 3.847 5.108 6.612l.323.325c2.973 2.973 4.549 4.129 6.937 5.432l.4.22c1.221.683 2.763.365 3.617-.748l2.167-2.786c.085-.108.24-.133.356-.057l7.449 4.966c.116.077.151.233.08.353l-1.869 3.114c-.328.563-.856.973-1.477 1.15-4.738 1.303-11.121-1.187-19.297-9.245l-.384-.381C2.59 22.702.003 16.195 1.325 11.379c.176-.617.586-1.145 1.143-1.47l3.12-1.872c.12-.072.275-.036.353.08z" transform="translate(6.487 7.5)"/>
            </g>
        </g>
    </g>
</svg>
