<svg xmlns="http://www.w3.org/2000/svg" id="icons_info_24_tour" width="24" height="24" viewBox="0 0 24 24">
    <defs>
        <style>
            .cls-1{fill:#fff}
        </style>
    </defs>
    <path id="Stroke_1" d="M5.66 10.866C2.183 7.864 1.494 7.24.833 6.2l-.205-.335A4.089 4.089 0 0 1 0 3.752 3.592 3.592 0 0 1 3.528 0a3.3 3.3 0 0 1 2.543 1.194l.08.1.082-.1A3.307 3.307 0 0 1 8.561.006L8.775 0A3.592 3.592 0 0 1 12.3 3.752a4.014 4.014 0 0 1-.556 1.977c-.63 1.131-1.162 1.715-3.639 3.875l-1.453 1.262a.759.759 0 0 1-.992 0z" class="cls-1" transform="translate(7.464 1.522)"/>
    <path id="Stroke_3" d="M3.691 0a3.183 3.183 0 0 1 1.318.286l.2.1 2.281 1.24a1.789 1.789 0 0 0 .676.209l.178.009h2.386a1.807 1.807 0 0 1 .148 3.607l-.148.006h-4.2a.5.5 0 0 1-.09-.992l.09-.008h4.2a.807.807 0 0 0 .1-1.607l-.1-.006H8.345a2.789 2.789 0 0 1-1.154-.25L7.012 2.5 4.734 1.265a2.184 2.184 0 0 0-.862-.258L3.691 1H.5A.5.5 0 0 1 .41.008L.5 0z" class="cls-1" transform="translate(4.092 12.196)"/>
    <path id="Stroke_5" d="M16.979.11a1.8 1.8 0 0 1 1.488 3.261l-.14.07-9.176 4.075a4.067 4.067 0 0 1-3.2-.027l-.215-.1L2.029 5.5 1.9 5.4a1.685 1.685 0 0 0-.271-.1 4.948 4.948 0 0 0-1.16-.187.5.5 0 1 1 .062-1 5.905 5.905 0 0 1 1.4.232 2.148 2.148 0 0 1 .552.25l.045.034L6.19 6.5a3.065 3.065 0 0 0 2.374.174l.192-.074 9.165-4.07a.8.8 0 0 0-.494-1.508l-.1.03-5.89 2.158a.5.5 0 0 1-.426-.9l.082-.038z" class="cls-1" transform="translate(4.092 14.303)"/>
    <path id="Stroke_7" d="M.5 8.9a.5.5 0 0 1-.5-.5V.5A.5.5 0 0 1 .5 0h2.622A1.448 1.448 0 0 1 4.57 1.448v6A1.448 1.448 0 0 1 3.122 8.9z" class="cls-1" transform="translate(.522 11.323)"/>
</svg>
