<svg xmlns="http://www.w3.org/2000/svg" id="icons_interests_56_map" width="25.729" height="26" viewBox="0 0 25.729 26">
    <g id="icons_info_24_map" transform="translate(4.589 5.17)">
        <path id="Fill_1" d="M4.439 12.626a.33.33 0 0 1-.238-.1C4.03 12.342 0 8.044 0 4.644A4.55 4.55 0 0 1 4.439 0a4.55 4.55 0 0 1 4.438 4.644c0 3.39-4.029 7.7-4.2 7.879a.329.329 0 0 1-.238.103zm0-11.961A3.889 3.889 0 0 0 .657 4.644c0 2.685 2.894 6.157 3.781 7.157.887-1 3.781-4.489 3.781-7.157a3.888 3.888 0 0 0-3.78-3.98z" fill="#004128" transform="translate(3.617)"/>
        <path id="Fill_4" fill="#00280f" d="M2.137 4.319a2.16 2.16 0 0 1 0-4.319 2.16 2.16 0 0 1 0 4.319zm0-3.655a1.5 1.5 0 1 0 1.48 1.5 1.489 1.489 0 0 0-1.48-1.5z" transform="translate(5.918 2.658)"/>
        <ellipse id="Oval" cx="1.48" cy="1.495" fill="#c3dc87" rx="1.48" ry="1.495" transform="translate(6.576 3.322)"/>
        <path id="Fill_6" d="M16.111 5.648H.329A.328.328 0 0 1 .057 5.5a.336.336 0 0 1-.034-.309L1.965.211A.327.327 0 0 1 2.271 0h2.99a.332.332 0 0 1 0 .664h-.434a1.661 1.661 0 0 0-.115 1.378c.289.563 1.154.737 1.829.783.537.038 1.067.063 1.579.088a17.275 17.275 0 0 1 3.686.415c1.013.3 1.573.857 1.662 1.655h2.127L13.6.664h-2.75a.332.332 0 0 1 0-.664h2.956a.33.33 0 0 1 .3.191l2.3 4.984a.334.334 0 0 1-.02.319.327.327 0 0 1-.275.154zM2.5.664L.812 4.984H12.8c-.086-.487-.449-.8-1.178-1.017a16.888 16.888 0 0 0-3.522-.39H8.04c-.5-.024-1.021-.049-1.543-.085a2.644 2.644 0 0 1-2.371-1.147 2.13 2.13 0 0 1-.01-1.681H2.5z" fill="#004128" transform="translate(0 10.3)"/>
    </g>
</svg>
