<svg xmlns="http://www.w3.org/2000/svg" width="17.107" height="17.107" viewBox="0 0 17.107 17.107">
    <g id="Group_23" transform="translate(-1518.685 -415.446)">
        <circle id="Ellipse_4" cx="7.237" cy="7.237" r="7.237" fill="none" stroke-miterlimit="10" stroke-width="0.6px" stroke="#033535" transform="translate(1520.001 416.763)"/>
        <circle id="Ellipse_5" cx="8.253" cy="8.253" r="8.253" fill="none" stroke-miterlimit="10" stroke-width="0.6px" stroke="#033535" transform="translate(1518.985 415.746)"/>
        <path id="Line_2" d="M0 0L0 0.981" fill="none" stroke-miterlimit="10" stroke-width="0.6px" stroke="#033535" transform="translate(1527.239 416.763)"/>
        <path id="Line_3" d="M0 0L0 0.981" fill="none" stroke-miterlimit="10" stroke-width="0.6px" stroke="#033535" transform="translate(1527.239 430.256)"/>
        <path id="Line_4" d="M0.981 0L0 0" fill="none" stroke-miterlimit="10" stroke-width="0.6px" stroke="#033535" transform="translate(1533.495 424)"/>
        <path id="Line_5" d="M0.981 0L0 0" fill="none" stroke-miterlimit="10" stroke-width="0.6px" stroke="#033535" transform="translate(1520.001 424)"/>
        <path id="Line_6" d="M0.693 0L0 0.693" fill="none" stroke-miterlimit="10" stroke-width="0.6px" stroke="#033535" transform="translate(1531.396 419.149)"/>
        <path id="Line_7" d="M0.693 0L0 0.693" fill="none" stroke-miterlimit="10" stroke-width="0.6px" stroke="#033535" transform="translate(1522.388 428.157)"/>
        <path id="Line_8" d="M0 0L0.693 0.693" fill="none" stroke-miterlimit="10" stroke-width="0.6px" stroke="#033535" transform="translate(1522.388 419.149)"/>
        <path id="Line_9" d="M0 0L0.693 0.693" fill="none" stroke-miterlimit="10" stroke-width="0.6px" stroke="#033535" transform="translate(1531.396 428.157)"/>
        <path id="Path_20" fill="none" stroke="#c2dc86" stroke-miterlimit="10" stroke-width="0.6px" d="M1527.818 423.939l-2.52-1.879v-4.483" transform="translate(2.185 1.42)"/>
    </g>
</svg>
