<svg xmlns="http://www.w3.org/2000/svg" width="29" height="28" viewBox="0 0 29 28">
    <g fill="#00280F">
        <path d="M10.889.583C5.197.583.583 5.197.583 10.89c0 5.691 4.614 10.305 10.306 10.305 5.691 0 10.305-4.614 10.305-10.305C21.194 5.197 16.58.583 10.89.583zm0 1.167c5.047 0 9.139 4.092 9.139 9.139s-4.092 9.139-9.14 9.139c-5.046 0-9.138-4.092-9.138-9.14 0-5.046 4.092-9.138 9.139-9.138z" transform="translate(2.403 2.333)"/>
        <path d="M18.168 17.343L23.454 22.629 22.629 23.454 17.343 18.168z" transform="translate(2.403 2.333)"/>
    </g>
</svg>
