<svg xmlns="http://www.w3.org/2000/svg" width="213" height="78" viewBox="0 0 213 78">
    <g fill="none" fill-rule="evenodd">
        <path fill="#F5FAF0" d="M26.82 16.855c-1.075 0-2.228.271-3.156.692l.427 2.548c.702-.199 1.276-.3 1.777-.3 1.482 0 2.258.867 2.258 2.426 0 3.535-2.405 5.981-6.092 6.18l-.727-11.522-3.108.348.854 14.191c.325.024.624.049 1.1.049 6.77 0 11.155-3.783 11.155-9.667 0-3.09-1.679-4.945-4.487-4.945M33.615 17.175L33.615 20.018 35.619 20.018 35.619 25.509 38.829 25.509 38.829 17.175zM49.556 28.648c-1.982 0-3.107-1.705-3.107-4.5 0-1.753.451-3.19 1.075-4.179h1.733c2.631 0 3.555.94 3.555 3.71 0 3.163-1.203 4.969-3.256 4.969m.124-11.473h-7.542v2.794h2.23c-.826 1.434-1.228 2.843-1.228 4.6 0 4.229 2.356 6.922 6.19 6.922 4.16 0 6.791-3.115 6.791-8.035 0-4.277-2.053-6.281-6.441-6.281M68.606 22.12c-.05-3.435-1.478-4.945-4.812-4.945h-5.415v2.843h4.41c2.007 0 2.582.595 2.606 2.92.029.94.029 2.025.029 3.114 0 2.15-.029 4.252-.029 5.095h3.21c0-1.09.025-3.908.025-6.379 0-1.016 0-1.956-.024-2.649M81.788 28.304c0-.669.05-2.795.05-4.156 0-.79 0-1.482-.025-2.126-.099-3.361-1.503-4.847-4.763-4.847h-4.987v2.843H76c2.003 0 2.557.595 2.631 2.92.025 1.012.025 2.373.025 3.956v1.41h-6.943l-.3 2.843h11.931l.55-2.843h-2.106zM84.699 17.175L84.699 20.018 86.702 20.018 86.702 25.509 89.908 25.509 89.908 17.175zM99.913 28.352l-.402-11.177H93.42v2.843h2.984l.325 8.286h-4.286l-.325 2.843h7.546c.099-.794.275-1.88.25-2.795M102.919 17.175L102.919 20.018 105.128 20.018 105.128 31.147 108.334 31.147 108.334 17.175zM125.326 19.848c0-.819-.324-1.361-1.1-1.831-.604-.397-1.454-.765-2.71-1.21l-1.326 2.348c.6.393 1.076.668 1.503.915.349.247.476.417.476.741 0 .567-.402 1.88-1.302 4.18l-6.819-8.335-2.356 1.904 1.704 2.077c-.776 2.944-1.351 6.776-1.38 8.408l-.025 2.102h3.034l.25-8.21 7.32 8.95 2.333-1.951-2.509-3.066c1.832-2.969 2.907-5.54 2.907-7.022M3.194 20.018c-.258 1.648-.534 4.73-.534 6.257.025.842.05 1.482.1 2.077-.178.024-.551.024-1.105.024-.448 0-.875 0-1.326-.024L0 31.147c.755 0 1.482.024 2.46.024.927 0 1.863-.024 3.09-.073.1-.992.251-2.126.276-2.968-.074-1.09-.148-2.548-.148-3.88 0-.85.127-2.99.275-4.232H3.194zm11.598 2.227c-.05-3.487-1.58-5.07-4.914-5.07H.792v2.843h8.285c2.106 0 2.504.644 2.554 2.92.028.963.053 2 .053 3.114 0 1.782-.053 3.71-.053 5.095h3.136c.05-1.288.074-3.313.074-5.342 0-1.235-.025-2.495-.05-3.56M45.177 40.623L45.177 43.467 47.307 43.467 47.307 57.856 50.489 57.856 50.489 40.623zM66.73 40.623L66.73 43.467 68.738 43.467 68.738 48.958 71.944 48.958 71.944 40.623zM88.764 43.296c0-.818-.329-1.36-1.104-1.83-.604-.397-1.454-.766-2.706-1.211l-1.33 2.349c.603.393 1.08.664 1.503.915.353.247.476.417.476.741 0 .567-.398 1.88-1.302 4.175l-6.819-8.33-2.356 1.903 1.708 2.078c-.78 2.94-1.355 6.776-1.38 8.408l-.024 2.101h3.03l.25-8.209 7.32 8.95 2.332-1.956-2.509-3.065c1.831-2.965 2.91-5.537 2.91-7.019M91.284 40.623L90.96 43.418 97.784 43.418 98.109 40.623zM111.349 45.568c-.05-3.434-1.478-4.944-4.812-4.944h-5.415v2.842h4.414c2.003 0 2.578.596 2.602 2.92.03.94.03 2.025.03 3.115 0 2.15-.03 4.252-.03 5.094h3.21c0-1.089.025-3.908.025-6.378 0-1.017 0-1.956-.024-2.649M124.531 51.748c0-.664.053-2.79.053-4.15 0-.795 0-1.483-.028-2.127-.099-3.365-1.503-4.848-4.762-4.848h-4.985v2.843h3.934c2.007 0 2.557.596 2.631 2.92.025 1.013.025 2.373.025 3.957v1.405h-6.942l-.3 2.847h11.93l.55-2.847h-2.106zM54.135 52.74c4.687-4.104 6.818-6.304 6.818-8.43 0-.446-.025-.644-.1-.842h-6.417c-.451-1.706-.852-5.1-.852-7.35l2.957-.346c.05 1.632.427 4.68.527 4.853h6.266c.426.816.677 1.88.677 3.066 0 3.66-2.331 6.7-7.896 11.374l-1.98-2.324z"/>
        <path fill="#78CDE6" d="M57.953 68.767v-5.732h1.843v5.653c0 1.647.909 2.345 2.31 2.345 1.444 0 2.325-.764 2.325-2.635v-5.363h1.803v5.402c0 3.15-2.177 4.085-4.127 4.085-2.043 0-4.154-.857-4.154-3.755M68.37 65.157h1.777v.764c.534-.395 1.43-.949 2.444-.949 2.23 0 2.378 1.331 2.378 2.82v4.559h-1.763V67.99c0-1.094-.214-1.49-1.189-1.49-.735 0-1.416.304-1.87.567v5.284H68.37v-7.194zM77.038 72.35h1.79v-7.194h-1.79v7.195zm-.374-9.433l1.243-1.239 1.268 1.239-1.268 1.251-1.243-1.251zM80.056 65.157L81.98 65.157 83.315 69.452 83.729 70.928 84.183 69.439 85.679 65.157 87.549 65.157 84.784 72.351 82.594 72.351zM92.985 68.069c.013-1.08-.428-1.819-1.323-1.819-.881 0-1.495.633-1.562 1.819h2.885zm-4.715.803c0-2.885 1.483-3.887 3.553-3.887 2.097 0 2.992 1.37 2.992 3.624v.632h-4.756c0 1.581 1.003 1.845 2.298 1.845.508 0 1.269-.119 1.977-.303l.28 1.33c-.72.238-1.669.396-2.578.396-2.297 0-3.766-.817-3.766-3.637zM96.497 65.157h1.777v.961c.347-.487 1.055-1.106 1.963-1.106.414 0 .708.04.948.118l-.253 1.45c-.348-.066-.522-.08-.936-.08-.734 0-1.402.422-1.722.817v5.034h-1.777v-7.194zM101.893 72.206l.213-1.37c.815.144 1.563.237 2.097.237 1.042 0 1.456-.277 1.456-.725 0-1.107-3.673-.672-3.673-3.215 0-1.436 1.349-2.161 2.792-2.161.855 0 1.589.132 2.27.382l-.32 1.304c-.642-.17-1.19-.276-1.897-.276-.721 0-1.082.276-1.082.659 0 1.146 3.647.83 3.647 3.215 0 1.765-1.83 2.253-3.046 2.253-.975 0-1.79-.106-2.457-.303M108.984 72.35h1.79v-7.194h-1.79v7.195zm-.374-9.433l1.242-1.239 1.27 1.239-1.27 1.251-1.242-1.251zM113.258 70.203V66.5h-1.068v-1.343h1.068V63.68h1.777v1.476h2.257V66.5h-2.257v3.61c0 .712.293.91.988.91.467 0 1.001-.092 1.456-.211l.2 1.397c-.495.184-1.363.316-1.87.316-1.603 0-2.551-.54-2.551-2.32M121.351 72.351L120.657 72.351 118.213 65.156 120.136 65.156 121.512 69.755 121.859 70.967 122.246 69.768 123.823 65.156 125.626 65.156 122.059 75.249 120.35 75.249zM4.051 70.928c1.256 0 1.964-.316 1.964-1.318 0-1.001-.722-1.37-2.137-1.37H2.622v2.688h1.43zm-.307-3.966c1.069 0 1.603-.37 1.603-1.265 0-.962-.641-1.278-1.843-1.278h-.882v2.543h1.122zM.793 63.035h3.031c2.244 0 3.34.883 3.34 2.477 0 .87-.522 1.542-1.123 1.805v.027c.762.184 1.803.909 1.803 2.213 0 1.647-.975 2.794-3.62 2.794H.794v-9.316zM13.494 70.638v-1.423l-1.35.053c-.827.013-1.361.355-1.361.948 0 .633.48.883 1.028.883.574 0 1.175-.224 1.683-.461m-4.448-.29c0-1.805 1.656-2.174 3.005-2.187l1.443-.014v-.619c0-.83-.454-1.054-1.51-1.054-.68 0-1.429.145-2.056.33l-.36-1.292c.72-.29 1.628-.527 2.71-.527 2.017 0 2.952.606 2.952 2.148v3.492c0 .355.32.434.708.448l-.067 1.33c-.134.014-.28.014-.44.014-.775 0-1.617-.185-1.777-.817-.521.408-1.269.87-2.23.87-1.483 0-2.378-.739-2.378-2.122M17.487 65.157h1.776v.961c.347-.487 1.055-1.106 1.963-1.106.414 0 .708.04.949.118l-.254 1.45c-.347-.066-.52-.08-.935-.08-.734 0-1.402.422-1.723.817v5.034h-1.776v-7.194zM23.364 69.37L27.189 69.37 27.189 67.934 23.364 67.934zM41.794 70.638v-1.423l-1.35.053c-.827.013-1.361.355-1.361.948 0 .633.48.883 1.028.883.574 0 1.175-.224 1.683-.461m-4.448-.29c0-1.805 1.656-2.174 3.005-2.187l1.443-.014v-.619c0-.83-.454-1.054-1.51-1.054-.68 0-1.429.145-2.056.33l-.36-1.292c.72-.29 1.629-.527 2.71-.527 2.017 0 2.952.606 2.952 2.148v3.492c0 .355.32.434.708.448l-.067 1.33c-.133.014-.28.014-.44.014-.775 0-1.617-.185-1.777-.817-.52.408-1.269.87-2.23.87-1.483 0-2.378-.739-2.378-2.122M45.787 65.157h1.776v.764c.534-.395 1.43-.949 2.444-.949 2.23 0 2.377 1.331 2.377 2.82v4.559h-1.762V67.99c0-1.094-.214-1.49-1.19-1.49-.734 0-1.415.304-1.869.567v5.284h-1.776v-7.194zM34.776 72.38c-1.065-.022-1.585-.67-1.585-1.815v-7.53h1.773v7.302c0 .367.155.542.48.542.141 0 .408-.029.665-.071l.206 1.382c-.55.132-1.192.193-1.539.19M29.339 72.351L31.155 72.351 31.155 63.035 29.339 63.035zM204.502 58.055c-5.82 11.668-17.992 19.698-32.067 19.698-19.111 0-34.719-14.812-35.669-33.432h10.749c.933 12.773 11.734 22.848 24.92 22.848 7.831 0 14.82-3.554 19.4-9.114h12.667z"/>
        <path fill="#F5FAF0" d="M187.697 10.66l-5.724 9.072c9.068 3.698 15.448 12.51 15.448 22.79 0 2.339-.33 4.602-.949 6.747h11.025c.43-2.184.655-4.44.655-6.747 0-14.071-8.363-26.218-20.455-31.862zm-34.769 2.345c-9.282 5.98-15.57 16.108-16.162 27.717h10.749c.586-7.992 5.033-14.929 11.51-19.002l-6.097-8.715z"/>
        <path fill="#F5FAF0" d="M177.536 43.975L212.374 43.975 212.374 54.561 170.857 54.561zM178.392 35.808L172.459 45.211 142.007 10.644 150.107 3.7zM175.094 23.824L165.983 18.23 177.41.122 186.52 5.716z"/>
        <path fill="#F5FAF0" d="M182.855 4.695l1.551.952.97-1.538c.267-.422.136-.978-.292-1.24-.429-.264-.992-.134-1.258.288l-.97 1.538zM178.405 1.962l1.551.953.97-1.538c.267-.422.136-.978-.293-1.24-.428-.264-.991-.134-1.257.288l-.97 1.537zM169.648 19.251l-1.55-.952-.971 1.538c-.267.422-.136.978.293 1.24.428.263.991.134 1.257-.288l.97-1.538zM174.098 21.983l-1.55-.952-.97 1.538c-.267.422-.136.978.292 1.24.428.264.991.134 1.258-.288l.97-1.538z"/>
    </g>
</svg>