<svg xmlns="http://www.w3.org/2000/svg" width="24" height="24" viewBox="0 0 24 24">
    <g fill="#00280F" fill-rule="evenodd">
        <path d="M11.653 2.01c2.887 0 5.236 2.446 5.236 5.453 0 3.667-4.041 8.467-5.236 9.806-1.196-1.335-5.235-6.119-5.235-9.806 0-3.007 2.349-5.453 5.235-5.453m0 16.389c.125 0 .244-.051.33-.141.237-.249 5.816-6.149 5.816-10.795 0-3.509-2.757-6.363-6.146-6.363S5.508 3.954 5.508 7.463c0 4.668 5.579 10.547 5.816 10.795.087.09.205.14.33.14"/>
        <path d="M9.605 7.7c0-1.129.919-2.048 2.048-2.048 1.13 0 2.049.92 2.049 2.049 0 1.13-.919 2.048-2.049 2.048S9.605 8.83 9.605 7.701m5.007 0c0-1.632-1.327-2.96-2.959-2.96-1.631 0-2.959 1.328-2.959 2.96 0 1.631 1.328 2.959 2.96 2.959 1.631 0 2.958-1.328 2.958-2.96M3.954 16.123H6.2c-.22.6-.402 1.496.014 2.303.476.923 1.58 1.45 3.281 1.567.747.05 1.487.086 2.205.12 1.886.09 3.666.175 4.89.534 1.006.295 1.513.726 1.632 1.394H1.624l2.33-5.918zm19.265 6.18l-3.19-6.828c-.076-.16-.236-.263-.413-.263h-4.093c-.252 0-.455.204-.455.456 0 .251.203.455.455.455h3.803l2.765 5.918h-2.945c-.123-1.094-.895-1.856-2.301-2.268-1.328-.389-3.161-.476-5.103-.569-.711-.034-1.445-.069-2.186-.12-.934-.064-2.132-.302-2.532-1.073-.34-.657-.026-1.497.16-1.888h.6c.252 0 .455-.204.455-.455 0-.252-.203-.456-.455-.456h-4.14c-.187 0-.355.115-.423.289L.53 22.329c-.055.14-.037.299.048.423.085.125.226.2.376.2h21.852c.155 0 .3-.08.384-.211.083-.131.094-.296.028-.438z"/>
    </g>
</svg>
