<svg xmlns="http://www.w3.org/2000/svg" xmlns:xlink="http://www.w3.org/1999/xlink" width="73" height="73" viewBox="0 0 73 73">
    <defs>
        <path id="prefix__a" d="M0 0H72.215V72.215H0z"/>
    </defs>
    <g fill="none" fill-rule="evenodd">
        <mask id="prefix__b" fill="#fff">
            <use xlink:href="#prefix__a"/>
        </mask>
        <use fill="#F5FAF0" fill-opacity=".001" xlink:href="#prefix__a"/>
        <g mask="url(#prefix__b)">
            <g>
                <path fill="#C3DC87" d="M21.586 38.657L14.081 38.387 16.68 43.087 17.626 43.889z" transform="translate(18.755 9.728)"/>
                <path fill="#F5FAF0" d="M9.898 29.035c-2.699 0-4.887-2.188-4.887-4.887V13.26C5.011 6.293 10.66.645 17.626.645c6.967 0 12.615 5.648 12.615 12.615v10.888c0 2.699-2.188 4.887-4.887 4.887" transform="translate(18.755 9.728)"/>
                <path fill="#00280F" fill-rule="nonzero" d="M17.626 0c7.201 0 13.061 5.74 13.255 12.895l.005.365v10.888c0 2.965-2.334 5.385-5.264 5.525l-.268.007v-1.29c2.262 0 4.11-1.77 4.235-4.002l.007-.24V13.26c0-6.611-5.36-11.97-11.97-11.97-6.495 0-11.782 5.172-11.965 11.623l-.005.347v10.888c0 2.262 1.77 4.11 4.002 4.235l.24.007v1.29c-2.965 0-5.385-2.334-5.525-5.264l-.007-.268V13.26C4.366 5.937 10.303 0 17.626 0z" transform="translate(18.755 9.728)"/>
                <path fill="#FFF" d="M21.462 26.926l-2.8.678h-3.04l-1.116-.678-.281 2.955-.595 1.602c2.11 1.045 3.164 1.484 3.164 1.317 0-.251 2.418-.473 2.689-.473.18 0 .84-.281 1.979-.844l-.388-1.512v-1.913l.388-1.132z" transform="translate(18.755 9.728)"/>
                <path fill="#00280F" fill-rule="nonzero" d="M24.289 8.565l-15 7.238c-.224.107-.365.333-.365.58v3.163c0 4.688 3.712 8.529 8.383 8.697l.307.006c4.818 0 8.714-3.896 8.714-8.703v-6.309c0-1.575-.42-3.091-1.204-4.42-.17-.288-.534-.398-.835-.252zm.002 1.43l.086.175c.433.952.662 1.993.662 3.067v6.31c0 4.093-3.319 7.412-7.413 7.412l-.284-.005-.289-.016c-3.83-.287-6.84-3.496-6.84-7.392l-.001-2.757 14.08-6.794zM22.095 37.742L22.095 39.032 13.157 39.032 13.157 37.742z" transform="translate(18.755 9.728)"/>
                <path fill="#00280F" fill-rule="nonzero" d="M21.719 26.926v3.045c0 1.162.892 2.115 2.028 2.212l.192.008h2.334v1.29H23.94c-1.867 0-3.393-1.457-3.503-3.296l-.007-.214v-3.045h1.29zM14.87 26.926v3.045c0 1.867-1.458 3.393-3.296 3.504l-.214.006H9.025v-1.29h2.335c1.161 0 2.115-.892 2.212-2.028l.008-.192v-3.045h1.29zM28.858 41.346c1.36 1.538 2.124 3.516 2.124 5.611 0 2.05-.732 3.986-2.032 5.507l-.078.085v1.9h-1.289v-2.145c0-.164.062-.321.174-.44 1.236-1.323 1.935-3.06 1.935-4.907 0-1.659-.563-3.228-1.576-4.491l-.224-.266.966-.854zM6.211 41.346l.966.854c-1.153 1.305-1.8 2.98-1.8 4.757 0 1.848.7 3.584 1.936 4.907.083.09.14.2.162.319l.011.12v2.032h-1.29V52.55l-.076-.085c-1.22-1.426-1.938-3.217-2.023-5.124l-.009-.383c0-1.964.671-3.825 1.875-5.317l.248-.294z" transform="translate(18.755 9.728)"/>
                <path fill="#00280F" fill-rule="nonzero" d="M9.079 32.155H6.475C2.9 32.155 0 35.055 0 38.63v13.361c0 .173.07.338.2.467l.157.114c5.294 2.733 11.178 4.18 17.269 4.18 6.042 0 11.88-1.424 17.143-4.115l.167-.124.133-.135c.117-.12.183-.282.183-.45V38.63c0-3.576-2.899-6.475-6.475-6.475h-2.529l-.12.011c-.156.03-.297.117-.395.246l-8.106 10.76-8.031-10.758c-.122-.163-.314-.259-.517-.259zm17.49 1.29h2.208l.259.006c2.743.135 4.926 2.402 4.926 5.18v12.967l.22-.11c-5.082 2.6-10.72 3.974-16.556 3.974l-.734-.007C11.514 55.348 6.32 54.074 1.59 51.75l-.3-.152V38.63l.006-.259c.135-2.743 2.402-4.926 5.18-4.926h2.279l8.354 11.187c.257.345.773.346 1.032.002l8.428-11.19z" transform="translate(18.755 9.728)"/>
            </g>
        </g>
    </g>
</svg>
