<svg xmlns="http://www.w3.org/2000/svg" xmlns:xlink="http://www.w3.org/1999/xlink" width="73" height="73" viewBox="0 0 73 73">
    <defs>
        <path id="prefix__a" d="M0 0H72.215V72.215H0z"/>
    </defs>
    <g fill="none" fill-rule="evenodd">
        <mask id="prefix__b" fill="#fff">
            <use xlink:href="#prefix__a"/>
        </mask>
        <use fill="#F5FAF0" fill-opacity=".001" xlink:href="#prefix__a"/>
        <g mask="url(#prefix__b)">
            <g>
                <path fill="#C3DC87" d="M23.464 50.59L19.361 50.704 16.676 50.467 17.337 48.395 18.33 41.976 21.979 42.085z" transform="translate(16.184 11.026)"/>
                <path fill="#00280F" fill-rule="nonzero" d="M14.924 28.44L14.924 32.692 13.635 32.692 13.635 28.44zM26.334 28.44L26.334 32.692 25.045 32.692 25.045 28.44z" transform="translate(16.184 11.026)"/>
                <path fill="#F5FAF0" d="M31.55 16.76V12.12C31.55 5.783 26.41.645 20.073.645S8.597 5.783 8.597 12.12v4.282" transform="translate(16.184 11.026)"/>
                <path fill="#00280F" fill-rule="nonzero" d="M20.073 0c6.577 0 11.93 5.238 12.117 11.77l.005.351v4.639h-1.29V12.12c0-5.982-4.85-10.831-10.832-10.831-5.873 0-10.655 4.674-10.827 10.506l-.005.325v4.282h-1.29v-4.282C7.952 5.427 13.38 0 20.074 0zM23.166 37.08l-1.03-.777 2.981-3.957c.098-.13.24-.216.396-.246l.12-.011h6.444c4.4 0 7.986 3.488 8.143 7.85l.005.298v5.726c0 .234-.127.45-.333.564l-.2.107-.21.107c-.326.166-.708.35-1.14.549-1.233.564-2.632 1.128-4.172 1.654-4.404 1.503-9.066 2.405-13.786 2.405-4.793 0-9.57-.901-14.115-2.403-1.59-.526-3.038-1.089-4.316-1.653-.337-.148-.644-.289-.92-.42l-.69-.34c-.176-.094-.297-.261-.332-.453L0 45.963v-5.726c0-4.4 3.488-7.985 7.85-8.143l.298-.005h6.075c.158 0 .309.058.425.16l.081.086 3.227 4.095-1.013.798-3.034-3.85H8.15c-3.694 0-6.705 2.92-6.854 6.577l-.005.282-.002 5.327.574.274.61.276c1.243.547 2.652 1.095 4.201 1.607 4.423 1.462 9.069 2.339 13.71 2.339 4.566 0 9.092-.876 13.37-2.337 1.498-.511 2.857-1.059 4.052-1.606l.586-.275.264-.129.28-.142v-5.334c0-3.693-2.919-6.705-6.575-6.853l-.283-.006h-6.123l-2.788 3.701z" transform="translate(16.184 11.026)"/>
                <path fill="#C3DC87" d="M21.137 41.976H19.04c-1.09 0-1.975-.885-1.975-1.975v-2.097c0-1.091.885-1.976 1.975-1.976h2.097c1.091 0 1.975.885 1.975 1.976V40c0 1.09-.884 1.975-1.975 1.975z" transform="translate(16.184 11.026)"/>
                <path fill="#00280F" fill-rule="nonzero" d="M21.137 35.284H19.04c-1.447 0-2.62 1.173-2.62 2.62V40c0 1.447 1.173 2.62 2.62 2.62h2.097c1.447 0 2.62-1.173 2.62-2.62v-2.097c0-1.447-1.173-2.62-2.62-2.62zm-2.097 1.29h2.097c.735 0 1.33.595 1.33 1.33V40c0 .734-.595 1.33-1.33 1.33H19.04c-.734 0-1.33-.596-1.33-1.33v-2.097c0-.735.596-1.33 1.33-1.33z" transform="translate(16.184 11.026)"/>
                <path fill="#00280F" fill-rule="nonzero" d="M22.443 41.798L24.098 50.469 22.831 50.711 21.177 42.04zM17.697 41.798L18.963 42.039 17.309 50.711 16.042 50.469zM24.73 10.177c-3.287 2.272-7.185 3.508-11.269 3.508-.707 0-1.41-.037-2.105-.11-.315-.033-.607.167-.69.471l-.01.034-.022.17v7.627c0 5.14 4.166 9.306 9.305 9.306 5.14 0 9.306-4.166 9.306-9.306v-7.855l-.01-.116c-.034-.187-.149-.346-.306-.44l-.05-.025.09.074c-.924-.727-1.7-1.427-2.495-2.255l-.419-.447-.477-.534c-.216-.244-.58-.287-.848-.102zm-.195 1.667l.454-.29-.308-.344c.276.317.565.633.862.943l.418.426c.558.555 1.12 1.062 1.737 1.569l.257.206v7.523c0 4.428-3.588 8.016-8.016 8.016l-.293-.005c-4.291-.155-7.722-3.682-7.722-8.01v-6.96l.786.044c.25.009.5.013.751.013 3.97 0 7.778-1.098 11.074-3.131z" transform="translate(16.184 11.026)"/>
                <path fill="#00280F" fill-rule="nonzero" d="M11.219 14.659v1.29c-1.703 0-3.084 1.38-3.084 3.083 0 1.631 1.268 2.967 2.872 3.076l.212.007v1.29c-2.415 0-4.373-1.958-4.373-4.373 0-2.335 1.83-4.242 4.133-4.366l.24-.007zM28.592 14.659c2.415 0 4.372 1.958 4.372 4.373 0 2.334-1.829 4.241-4.132 4.366l-.24.006v-1.29c1.703 0 3.083-1.38 3.083-3.082 0-1.632-1.268-2.968-2.872-3.076l-.211-.007v-1.29z" transform="translate(16.184 11.026)"/>
            </g>
        </g>
    </g>
</svg>
