<svg xmlns="http://www.w3.org/2000/svg" xmlns:xlink="http://www.w3.org/1999/xlink" width="73" height="73" viewBox="0 0 73 73">
    <defs>
        <path id="prefix__a" d="M0.579 0.581H72.794V72.796H0.579z"/>
    </defs>
    <g fill="none" fill-rule="evenodd" transform="translate(-.579 -.581)">
        <mask id="prefix__b" fill="#fff">
            <use xlink:href="#prefix__a"/>
        </mask>
        <use fill="#F5FAF0" fill-opacity=".001" xlink:href="#prefix__a"/>
        <g mask="url(#prefix__b)">
            <g>
                <path fill="#C3DC87" d="M25.517 39.044L21.433 52.867 17.35 39.098 20.247 39.702 23.97 39.373z" transform="translate(15.475 10.316)"/>
                <path fill="#F5FAF0" d="M8.536 4.784s3.73 8.66 19.711 3.943c0 0 2.394 2.816 2.464 5.49.07 2.676 1.971 2.887 3.238 2.746v-8.8c0-2.745-.844-5.068-4.223-5.702 0 0-3.768-2.187-8.378-1.76-6.829.634-10.56 4.576-12.812 4.083z" transform="translate(15.475 10.316)"/>
                <path fill="#00280F" fill-rule="nonzero" d="M21.288.06c-2.617.242-4.894.934-7.39 2.075l-3.011 1.448-.272.125c-.841.367-1.408.512-1.822.466l-.12-.02c-.513-.112-.937.403-.73.886.328.759 1.093 1.847 2.435 2.922l.253.197c3.588 2.714 9.041 3.542 16.69 1.498l.688-.192.104.14c.276.374.552.79.81 1.234.616 1.066 1.022 2.114 1.122 3.063l.014.168.008.165c.07 2.673 1.713 3.618 3.954 3.37.326-.037.573-.313.573-.642v-8.8l-.004-.326c-.081-3.221-1.392-5.262-4.435-5.946l-.204-.042-.339-.175-.16-.078c-.466-.222-.995-.444-1.58-.65-1.92-.678-3.97-1.04-6.06-.925l-.524.038zm6.155 2.102c.54.19 1.028.394 1.453.597l.364.182c.061.032.108.059.142.078l.205.076.271.056c2.48.56 3.427 2.158 3.427 5.013l-.001 8.19c-1.16-.012-1.834-.544-1.936-1.916l-.012-.237c-.004-.143-.014-.287-.029-.433-.121-1.159-.589-2.366-1.29-3.575-.281-.487-.583-.942-.885-1.353l-.2-.265c-.09-.115-.162-.205-.214-.266-.165-.194-.429-.273-.673-.2-8.036 2.371-13.48 1.57-16.88-1.153l-.33-.276c-.422-.371-.78-.756-1.08-1.141l-.11-.148.178-.039c.384-.097.807-.252 1.288-.463l.48-.223c.843-.4 2.351-1.143 2.822-1.358 2.375-1.086 4.519-1.737 6.975-1.965 2.066-.191 4.118.143 6.035.819z" transform="translate(15.475 10.316)"/>
                <path fill="#00280F" fill-rule="nonzero" d="M9.142 6.427l1.181.517-.093.234-.045.123c-.11.305-.22.655-.322 1.045-.295 1.115-.471 2.315-.471 3.549l-.02 4.91-1.29-.013.015-2.45c.003-.767.005-1.586.005-2.447 0-1.354.193-2.662.514-3.878.085-.32.174-.617.265-.889l.09-.262c.056-.156.104-.278.14-.365l.03-.074z" transform="translate(15.475 10.316)"/>
                <path fill="#00280F" fill-rule="nonzero" d="M12.067 11.8v3.205c0 1.295-1 2.357-2.27 2.455l-.193.007h-.996c-.88 0-1.582.738-1.535 1.622.043.806.736 1.459 1.545 1.454.24-.002.471-.058.687-.168l.159-.092.201-.124c.392-.242.904-.007.976.448.905 5.719 5.402 9.932 10.67 9.932 5.225 0 9.696-4.144 10.65-9.802.04-.236.206-.427.427-.503l.131-.03c.156-.022.315.013.447.1.286.187.434.239.702.239.85 0 1.537-.689 1.537-1.538 0-.684-.468-1.226-1.167-1.387l-.166-.03.177-1.278c1.406.194 2.446 1.29 2.446 2.695 0 1.561-1.266 2.827-2.827 2.827-.155 0-.297-.01-.433-.034l-.165-.037-.059.257c-1.383 5.59-5.966 9.643-11.361 9.806l-.339.005c-5.587 0-10.362-4.172-11.731-9.943l-.048-.21-.215.066c-.149.039-.301.065-.456.079l-.235.011c-1.497.01-2.762-1.18-2.84-2.674-.083-1.556 1.099-2.867 2.622-2.973l.2-.007h.996c.602 0 1.098-.453 1.165-1.036l.008-.137V11.8h1.29z" transform="translate(15.475 10.316)"/>
                <path fill="#00280F" fill-rule="nonzero" d="M27.906 29.283L27.906 33.155 26.617 33.155 26.617 29.283zM15.939 29.283L15.939 32.944 14.649 32.944 14.649 29.283z" transform="translate(15.475 10.316)"/>
                <path fill="#00280F" fill-rule="nonzero" d="M26.713 32.693c.101-.348.464-.536.798-.44l.11.044 5.348 2.683c.33.166.448.568.28.88l-.067.1-2.256 2.8 1.95 2.126c.157.17.208.41.14.627l-.043.106-6.407 12.32-1.144-.595 6.198-11.92-2.018-2.201c-.188-.206-.22-.505-.092-.743l.065-.097 2.1-2.61-3.94-1.977-5.768 19.814-1.238-.36 5.984-20.557z" transform="translate(15.475 10.316)"/>
                <path fill="#00280F" fill-rule="nonzero" d="M15.073 32.297c.324-.162.71-.025.865.286l.043.11 5.984 20.557-1.238.36-5.768-19.814-3.943 1.977 2.102 2.61c.175.217.189.517.045.746l-.071.094-2.019 2.201 6.199 11.92-1.145.595-6.406-12.32c-.107-.206-.094-.45.027-.642l.07-.091 1.949-2.126-2.255-2.8c-.232-.288-.172-.702.11-.917l.103-.063 5.348-2.683z" transform="translate(15.475 10.316)"/>
                <path fill="#00280F" fill-rule="nonzero" d="M25.317 38.43l.4 1.227c-1.4.455-2.869.69-4.369.69-1.257 0-2.492-.165-3.682-.486l-.508-.148.383-1.231c1.222.38 2.501.575 3.807.575 1.194 0 2.365-.163 3.49-.48l.479-.147z" transform="translate(15.475 10.316)"/>
                <path fill="#00280F" fill-rule="nonzero" d="M32.104 35.709l5.784 1.844c2.519.803 4.27 3.073 4.426 5.692l.01.292.075 5.387c.004.28-.172.525-.427.616l-.114.03-.025.003-.606.308c-6.125 3.04-12.866 4.699-19.842 4.817l-.806.007c-6.783 0-13.36-1.453-19.387-4.221l-.482-.226-.079.005c-.302-.006-.576-.23-.624-.545L0 49.608l.084-6.07c.037-2.644 1.7-4.98 4.16-5.89l.277-.095 5.784-1.844.392 1.228-5.784 1.845c-2 .637-3.394 2.435-3.53 4.512l-.01.261-.076 5.552.461.218c5.608 2.57 11.704 3.971 17.999 4.083l.822.008c7.063 0 13.892-1.621 20.074-4.69l.45-.229-.068-4.942c-.029-2.1-1.343-3.955-3.292-4.688l-.247-.085-5.784-1.845.392-1.228z" transform="translate(15.475 10.316)"/>
            </g>
        </g>
    </g>
</svg>
