<svg xmlns="http://www.w3.org/2000/svg" width="24" height="24" viewBox="0 0 24 24">
    <path fill="none" fill-rule="evenodd" stroke="#00280F" stroke-linecap="round" stroke-linejoin="round" d="M20.143 15.789v2.571c.002.483-.2.944-.556 1.27-.355.326-.832.488-1.313.444-2.637-.286-5.17-1.188-7.397-2.631-2.07-1.316-3.827-3.072-5.143-5.143-1.448-2.236-2.35-4.782-2.631-7.431-.043-.48.117-.955.441-1.31.325-.356.783-.559 1.265-.56H7.38c.86-.007 1.594.623 1.714 1.475.109.823.31 1.631.6 2.409.236.626.085 1.333-.385 1.808L8.22 9.78c1.22 2.146 2.997 3.923 5.143 5.143l1.088-1.089c.476-.47 1.183-.62 1.809-.385.778.29 1.586.491 2.409.6.861.121 1.495.87 1.474 1.74z"/>
</svg>
