<svg xmlns="http://www.w3.org/2000/svg" width="22" height="22" viewBox="0 0 22 22">
    <g fill="none" fill-rule="evenodd">
        <circle cx="11" cy="11" r="11" fill="#00280F"/>
        <path fill="#FFF" d="M16.5 7.565c-.405.18-.84.303-1.296.358.466-.281.824-.726.992-1.257-.436.26-.92.45-1.433.551-.412-.441-.998-.717-1.647-.717-1.247 0-2.257 1.017-2.257 2.272 0 .178.02.351.059.518-1.876-.095-3.54-1-4.652-2.374-.194.335-.306.726-.306 1.142 0 .788.399 1.484 1.004 1.891-.37-.012-.718-.114-1.022-.284v.029c0 1.1.778 2.019 1.81 2.227-.19.052-.389.08-.594.08-.146 0-.287-.014-.425-.04.287.902 1.12 1.559 2.108 1.577-.772.61-1.745.973-2.803.973-.182 0-.361-.01-.538-.032.999.645 2.185 1.021 3.46 1.021 4.15 0 6.42-3.462 6.42-6.465 0-.098-.002-.196-.006-.294.44-.32.824-.72 1.126-1.176"/>
    </g>
</svg>
