<svg xmlns="http://www.w3.org/2000/svg" width="22.32" height="22.32" viewBox="0 0 22.32 22.32">
    <g transform="translate(-.7 -.52)">
        <circle cx="11.16" cy="11.16" r="11.16" fill="#00280f" transform="translate(.7 .52)"/>
        <path fill="#fff" d="M7.781 2.25a5.313 5.313 0 0 0-5.334 5.292 5.238 5.238 0 0 0 .765 2.733l-.962 2.839 2.95-.938A5.305 5.305 0 1 0 7.781 2.25zm2.652 7.3a1.378 1.378 0 0 1-.943.608c-.25.013-.257.194-1.621-.4A5.565 5.565 0 0 1 5.62 7.636a2.616 2.616 0 0 1-.5-1.418 1.511 1.511 0 0 1 .519-1.109.522.522 0 0 1 .369-.156h.256c.079 0 .2-.017.3.258s.35.949.382 1.018a.247.247 0 0 1 0 .237.926.926 0 0 1-.145.22c-.071.076-.15.171-.213.229s-.145.135-.07.273a4.081 4.081 0 0 0 .722.964 3.721 3.721 0 0 0 1.069.711c.134.073.214.065.3-.023s.355-.382.451-.513.186-.106.309-.056.78.4.914.474.223.11.255.167a1.12 1.12 0 0 1-.105.64z" transform="translate(4.572 4.317)"/>
    </g>
</svg>
