<svg xmlns="http://www.w3.org/2000/svg" xmlns:xlink="http://www.w3.org/1999/xlink" width="73" height="73" viewBox="0 0 73 73">
    <defs>
        <path id="prefix__a" d="M0 0H72.215V72.215H0z"/>
    </defs>
    <g fill="none" fill-rule="evenodd">
        <mask id="prefix__b" fill="#fff">
            <use xlink:href="#prefix__a"/>
        </mask>
        <use fill="#F5FAF0" fill-opacity=".001" xlink:href="#prefix__a"/>
        <g mask="url(#prefix__b)">
            <g>
                <path fill="#C3DC87" d="M35.694 20.156c0 5.784-4.69 10.474-10.475 10.474-5.784 0-10.474-4.69-10.474-10.474 0-5.785 4.69-10.475 10.474-10.475 5.785 0 10.475 4.69 10.475 10.475z" transform="translate(12.302 11.031)"/>
                <path fill="#00280F" fill-rule="nonzero" d="M25.22 9.037c-6.141 0-11.12 4.978-11.12 11.119 0 6.14 4.979 11.119 11.12 11.119 6.14 0 11.118-4.978 11.118-11.12 0-6.14-4.978-11.118-11.119-11.118zm0 1.29c5.428 0 9.829 4.4 9.829 9.829 0 5.428-4.4 9.83-9.83 9.83-5.428 0-9.829-4.402-9.829-9.83 0-5.429 4.4-9.83 9.83-9.83z" transform="translate(12.302 11.031)"/>
                <path fill="#00280F" fill-rule="nonzero" d="M25.577 14.876c.317 0 .58.228.635.529l.01.116v10.832h-1.29V16.164l-2.753.001v-1.29h3.398z" transform="translate(12.302 11.031)"/>
                <path fill="#00280F" fill-rule="nonzero" d="M42.099 12.557v7.599c0 9.322-7.557 16.879-16.88 16.879-9.188 0-16.662-7.343-16.874-16.481l-.005-.398v-7.497h1.29v7.497c0 8.61 6.98 15.59 15.59 15.59 8.479 0 15.377-6.77 15.584-15.2l.005-.39v-7.6h1.29z" transform="translate(12.302 11.031)"/>
                <path fill="#00280F" fill-rule="nonzero" d="M41.059.17c-1.814 1.674-2.866 4.022-2.866 6.538 0 2.515 1.052 4.863 2.866 6.536.247.228.627.228.874 0 1.813-1.673 2.865-4.021 2.865-6.536 0-2.516-1.052-4.864-2.865-6.537-.247-.228-.627-.228-.874 0zm.436 1.386l.056.06c1.248 1.382 1.957 3.18 1.957 5.092l-.008.357c-.082 1.778-.78 3.439-1.949 4.733l-.056.059-.055-.059c-1.247-1.38-1.957-3.178-1.957-5.09 0-1.913.71-3.71 1.957-5.091l.055-.06zM8.506.17C6.693 1.845 5.641 4.193 5.641 6.709c0 2.515 1.052 4.863 2.865 6.536.247.228.628.228.875 0 1.813-1.673 2.865-4.02 2.865-6.536S11.194 1.844 9.38.17c-.247-.228-.628-.228-.875 0zm.437 1.386l.056.06c1.247 1.382 1.957 3.179 1.957 5.092l-.008.357c-.083 1.778-.78 3.439-1.95 4.733l-.055.059-.055-.059C7.64 10.418 6.93 8.62 6.93 6.708c0-1.913.71-3.71 1.958-5.091l.055-.06zM.626 14.715c-.336.014-.605.283-.619.618-.099 2.466.818 4.87 2.596 6.648 1.78 1.78 4.183 2.696 6.649 2.596.335-.013.604-.282.618-.618.1-2.465-.818-4.87-2.596-6.648-1.78-1.779-4.183-2.695-6.648-2.596zm.671 1.29l.122.004c1.844.104 3.6.872 4.943 2.214l.26.274c1.181 1.303 1.857 2.948 1.953 4.669l.003.12-.12-.003c-1.844-.104-3.6-.871-4.943-2.213-1.342-1.343-2.11-3.1-2.213-4.943l-.005-.123zM49.813 14.715c-2.465-.1-4.869.817-6.648 2.596-1.778 1.779-2.695 4.183-2.596 6.648.014.336.283.605.619.618 2.465.1 4.869-.817 6.648-2.596 1.778-1.778 2.695-4.182 2.596-6.648-.014-.335-.283-.604-.619-.618zm-.672 1.29l-.004.122c-.103 1.844-.87 3.6-2.213 4.943l-.274.26c-1.303 1.181-2.948 1.856-4.669 1.953l-.122.003.005-.12c.103-1.844.87-3.6 2.213-4.943 1.343-1.342 3.1-2.11 4.943-2.214l.121-.005zM39.031 31.749c-2.514-.079-4.894.9-6.622 2.66-.236.24-.248.62-.028.874 1.616 1.865 3.93 2.989 6.445 3.067 2.514.079 4.893-.9 6.622-2.66.236-.24.247-.62.027-.874-1.615-1.865-3.93-2.989-6.444-3.067zm.317 1.308c1.775.138 3.413.886 4.67 2.096l.056.057-.059.054c-1.42 1.204-3.238 1.857-5.15 1.797l-.356-.019c-1.775-.138-3.413-.886-4.67-2.096l-.058-.059.06-.052c1.42-1.203 3.239-1.857 5.15-1.797l.357.02zM11.613 31.749c-2.514.078-4.828 1.202-6.444 3.067-.22.254-.208.634.027.874 1.73 1.76 4.109 2.739 6.623 2.66 2.514-.078 4.828-1.202 6.444-3.067.22-.254.208-.634-.027-.874-1.642-1.673-3.872-2.639-6.247-2.664l-.376.004zm.398 1.286c1.78.027 3.461.672 4.792 1.8l.06.053-.057.058c-1.341 1.29-3.116 2.056-5.027 2.115l-.357.003c-1.78-.027-3.462-.672-4.793-1.8l-.06-.054.057-.057c1.342-1.29 3.116-2.056 5.027-2.115l.358-.003zM25.22 35.838c2.987 0 5.426 2.351 5.567 5.304l.006.27v2.26h-1.29v-2.26c0-2.366-1.917-4.284-4.284-4.284-2.284 0-4.151 1.788-4.277 4.041l-.007.243v2.362h-1.29v-2.362c0-3.078 2.496-5.574 5.574-5.574z" transform="translate(12.302 11.031)"/>
                <path fill="#F5FAF0" d="M14.745 50.449L14.745 43.774 35.694 43.774 35.694 50.449" transform="translate(12.302 11.031)"/>
                <path fill="#00280F" fill-rule="nonzero" d="M35.694 43.13c.316 0 .58.227.634.528l.01.116v6.675h-1.29v-6.03H15.39v6.03H14.1v-6.675c0-.316.229-.58.53-.634l.115-.01h20.949z" transform="translate(12.302 11.031)"/>
                <path fill="#00280F" fill-rule="nonzero" d="M41.033 49.714L41.033 51.004 9.405 51.004 9.405 49.714z" transform="translate(12.302 11.031)"/>
            </g>
        </g>
    </g>
</svg>
