<svg xmlns="http://www.w3.org/2000/svg" xmlns:xlink="http://www.w3.org/1999/xlink" width="56" height="56" viewBox="0 0 56 56">
    <defs>
        <path id="prefix__a" d="M0 0H56V56H0z"/>
    </defs>
    <g fill="none" fill-rule="evenodd">
        <mask id="prefix__b" fill="#fff">
            <use xlink:href="#prefix__a"/>
        </mask>
        <use fill="#F5FAF0" fill-opacity=".001" xlink:href="#prefix__a"/>
        <g mask="url(#prefix__b)">
            <g>
                <path fill="#F5FAF0" d="M.5 31.05H38.5V34.05H.5zM22.5 16.05H35.5V23.05H22.5z" transform="translate(8.5 9.95)"/>
                <path fill="#C3DC87" d="M22.119 5.902L22.119 13.799 25.039 12.604 27.56 13.799 27.56 5.902" transform="translate(8.5 9.95)"/>
                <path fill="#00280F" fill-rule="nonzero" d="M22.619 5.902l-.001 7.152 2.232-.912c.104-.043.219-.049.325-.019l.078.03 1.807.856V5.902h1V13.8c0 .339-.326.571-.637.481l-.077-.03-2.322-1.1-2.716 1.112c-.302.123-.63-.07-.682-.377l-.007-.086V5.902h1z" transform="translate(8.5 9.95)"/>
                <path fill="#00280F" fill-rule="nonzero" d="M4.083 5.55v1H1v27.07h36.327V6.55H19.479v-1h18.348c.245 0 .45.177.492.41l.008.09v28.07c0 .245-.177.45-.41.492l-.09.008H.5c-.245 0-.45-.177-.492-.41L0 34.12V6.05c0-.245.177-.45.41-.492L.5 5.55h3.583z" transform="translate(8.5 9.95)"/>
                <path fill="#00280F" fill-rule="nonzero" d="M4.6 0c-.276 0-.5.224-.5.5v24.772c0 .276.224.5.5.5 5.512 0 10.734 1.826 14.932 5.121.328.258.809.024.809-.393V5.728c0-.153-.07-.298-.191-.393C15.776 1.903 10.337 0 4.6 0zm.499 24.776V1.005c5.162.104 10.047 1.81 14.049 4.821l.192.148v23.524l-.409-.29c-3.87-2.673-8.457-4.221-13.292-4.416l-.54-.016zM35.789 15.422H22.45c-.276 0-.5.224-.5.5v7.499c0 .276.224.5.5.5H35.79c.276 0 .5-.224.5-.5v-7.498c0-.277-.224-.5-.5-.5zm-.501 1v6.498H22.95v-6.498h12.338zM28.887 25.144L28.887 26.144 22.45 26.144 22.45 25.144zM35.652 27.765L35.652 28.765 22.45 28.765 22.45 27.765zM33.002 10.346L33.002 11.346 29.684 11.346 29.684 10.346z" transform="translate(8.5 9.95)"/>
                <path fill="#00280F" fill-rule="nonzero" d="M37.771 30.5L37.771 31.5 0.5 31.5 0.5 30.5z" transform="translate(8.5 9.95)"/>
            </g>
        </g>
    </g>
</svg>
