<svg xmlns="http://www.w3.org/2000/svg" xmlns:xlink="http://www.w3.org/1999/xlink" width="56" height="56" viewBox="0 0 56 56">
    <defs>
        <path id="prefix__a" d="M0 0H56V56H0z"/>
    </defs>
    <g fill="none" fill-rule="evenodd">
        <mask id="prefix__b" fill="#fff">
            <use xlink:href="#prefix__a"/>
        </mask>
        <use fill="#F5FAF0" fill-opacity=".001" xlink:href="#prefix__a"/>
        <g mask="url(#prefix__b)">
            <g>
                <path fill="#F5FAF0" d="M1 32H39V35H1z" transform="translate(8 9)"/>
                <path stroke="#00280F" stroke-linejoin="round" d="M38.387 31.902H1.117" transform="translate(8 9)"/>
                <path fill="#C3DC87" stroke="#00280F" stroke-linejoin="round" d="M19.702 1.996C19.702.86 20.875.05 22.012.05c1.004 0 1.84.72 2.02 1.673.343-.258.768-.412 1.23-.412 1.137 0 2.058.92 2.058 2.057 0 .21-.032.41-.09.6.27-.128.569-.202.886-.202 1.137 0 2.058.921 2.058 2.057 0 .842-.506 1.564-1.23 1.883.099-.015.198-.025.3-.025 1.137 0 2.058.921 2.058 2.057s-.921 2.058-2.057 2.058l-.46.005c.527 0 1.053.2 1.455.602.803.804.803 2.106 0 2.91-.439.438-1.026.636-1.6.595.54.836.444 1.962-.288 2.694-.842.843-2.208.843-3.05 0-.1-.1-.188-.208-.264-.32-.082.545-.329 1.07-.74 1.49-1.03 1.051-2.698 1.051-3.727 0-.514-.525-.882-1.214-.882-1.902 0 .688-.257 1.377-.772 1.902-1.029 1.051-2.697 1.051-3.726 0-.412-.42-.658-.945-.74-1.49-.077.112-.164.22-.264.32-.843.843-2.208.843-3.051 0-.732-.732-.827-1.858-.287-2.694-.574.04-1.162-.157-1.6-.595-.804-.804-.804-2.106 0-2.91.401-.401.928-.602 1.454-.602l-.459-.005c-1.136 0-2.057-.922-2.057-2.058 0-1.136.92-2.057 2.057-2.057.102 0 .202.01.3.025-.723-.32-1.229-1.041-1.229-1.883 0-1.136.921-2.057 2.057-2.057.318 0 .617.074.886.203-.058-.19-.09-.392-.09-.601 0-1.136.921-2.057 2.058-2.057.462 0 .887.154 1.231.412.18-.952 1.015-1.673 2.02-1.673 1.136 0 2.225.921 2.225 2.057v-.11z" transform="translate(8 9)"/>
                <path fill="#00280F" fill-rule="nonzero" d="M13.682 13.786c0-.75-.608-1.358-1.358-1.358v-1c.755 0 1.427.355 1.858.906.432-.551 1.104-.906 1.858-.906v1c-.75 0-1.358.608-1.358 1.358 0 .75.608 1.358 1.358 1.358v1c-1.302 0-2.358-1.055-2.358-2.358zm11.581-1.452c.432-.551 1.104-.906 1.858-.906v1c-.75 0-1.358.608-1.358 1.358 0 1.303-1.055 2.358-2.358 2.358v-1c.75 0 1.358-.608 1.358-1.358 0-.75-.608-1.358-1.358-1.358v-1c.755 0 1.427.355 1.858.906zM24.28 8.16c-.75 0-1.359.608-1.359 1.358h-1c0-.754.355-1.426.906-1.858-.551-.431-.906-1.103-.906-1.858h1c0 .75.609 1.358 1.359 1.358s1.358-.608 1.358-1.358h1c0 1.302-1.056 2.358-2.358 2.358zm-7.783-.5c.552.432.906 1.104.906 1.858h-1c0-.75-.608-1.358-1.358-1.358-1.302 0-2.358-1.056-2.358-2.358h1c0 .75.608 1.358 1.358 1.358.75 0 1.358-.608 1.358-1.358h1c0 .755-.354 1.427-.906 1.858zM4.103 10.897V7.721c0-.276.224-.5.5-.5.733 0 1.46.03 2.181.087l-.079.996c-.53-.042-1.064-.068-1.602-.078v18.88l.562.012c5.4.154 9.997 1.491 13.68 4.153v-8.924h1v8.777c3.775-2.654 8.492-3.944 14.034-4.017V8.227c-.537.01-1.071.035-1.601.077l-.08-.996c.721-.058 1.448-.087 2.181-.087.277 0 .5.224.5.5v3.176h2.998c.276 0 .5.224.5.5V34.59c0 .276-.224.5-.5.5H1.05c-.276 0-.5-.224-.5-.5V11.397c0-.276.224-.5.5-.5h3.053zm0 1H1.55V34.09h36.327V11.897H35.38v15.707c0 .276-.223.5-.5.5-5.847 0-10.723 1.361-14.511 4.242l-.488-.643h-.277l-.488.643c-3.788-2.88-8.664-4.242-14.512-4.242-.276 0-.5-.224-.5-.5V11.897zm16.086 6.314l-1-.001.013-16.214h1l-.013 16.215z" transform="translate(8 9)"/>
            </g>
        </g>
    </g>
</svg>
