<svg xmlns="http://www.w3.org/2000/svg" xmlns:xlink="http://www.w3.org/1999/xlink" width="56" height="56" viewBox="0 0 56 56">
    <defs>
        <path id="prefix__a" d="M0 0H56V56H0z"/>
    </defs>
    <g fill="none" fill-rule="evenodd">
        <mask id="prefix__b" fill="#fff">
            <use xlink:href="#prefix__a"/>
        </mask>
        <use fill="#F5FAF0" fill-opacity=".001" xlink:href="#prefix__a"/>
        <g mask="url(#prefix__b)">
            <g>
                <path fill="#C3DC87" d="M23.007 16.194c0 1.814-1.471 3.285-3.285 3.285s-3.285-1.47-3.285-3.285c0-1.814 1.47-3.285 3.285-3.285 1.814 0 3.285 1.47 3.285 3.285z" transform="translate(8 6)"/>
                <path fill="#00280F" fill-rule="nonzero" d="M23.507 16.194c0 2.09-1.695 3.785-3.785 3.785s-3.785-1.695-3.785-3.785 1.695-3.785 3.785-3.785 3.785 1.695 3.785 3.785zm-1 0c0-1.538-1.247-2.785-2.785-2.785s-2.785 1.247-2.785 2.785 1.247 2.785 2.785 2.785 2.785-1.247 2.785-2.785z" transform="translate(8 6)"/>
                <path fill="#F5FAF0" d="M16 24H24V27H16zM1 35H39V38H1z" transform="translate(8 6)"/>
                <path fill="#00280F" fill-rule="nonzero" d="M21.57 34.55h16.307V15.2h-2.049v15.838c0 .276-.223.5-.5.5-6.207 0-10.392.788-13.758 3.012zM35.828 14.2h2.55c.275 0 .5.223.5.5v23.192c0 .276-.225.5-.5.5H1.05c-.276 0-.5-.224-.5-.5V14.699c0-.276.224-.5.5-.5h3.109v-3.143c0-.276.224-.5.5-.5 1.594 0 3.168.15 4.71.447l-.189.982c-1.318-.254-2.662-.396-4.021-.424V30.54l.51.005c6.45.094 10.761 1.128 14.325 3.907 3.656-2.852 8.1-3.866 14.834-3.912V11.56c-1.36.029-2.703.171-4.02.425l-.19-.982c1.542-.297 3.117-.447 4.71-.447.277 0 .5.224.5.5v3.143zm-17.41 20.35c-3.367-2.224-7.552-3.012-13.76-3.012-.275 0-.5-.224-.5-.5V15.199H1.55V34.55h16.868zm1.863-11.37h3.244c.018-.93.484-1.795 1.253-2.34l.243-.178c2.239-1.703 3.545-4.37 3.416-7.214-.203-4.494-3.894-8.102-8.39-8.2-4.825-.106-8.784 3.772-8.784 8.588 0 2.782 1.331 5.34 3.538 6.948.766.56 1.224 1.438 1.224 2.375v.02h3.256v-3.503h1v3.504zm3.244 3.163V24.18h-7.5v2.163h7.5zm0 1h-7.5v2.222l5.229.02 2.27-.006v-2.236zm14.352 8.207H1.55v1.842h36.327V35.55zm-13.352-5.488h-.042l.014.075c.02.158-.045.212-.22.358l-.089.04-.06.018c-.051.01-.051.01-.077.012l-.094.005-1.499.014-6.936-.022c-.275-.001-.497-.225-.497-.5V23.16c0-.614-.302-1.194-.813-1.566-2.462-1.794-3.949-4.652-3.949-7.757 0-5.377 4.42-9.706 9.806-9.589 5.023.11 9.14 4.136 9.367 9.156.149 3.292-1.42 6.37-4.08 8.253l-.137.106c-.439.37-.694.907-.694 1.473v6.827zM19.2.1h1v2.566h-1V.1zM8.973 4.324l.707-.707 1.814 1.814-.707.708-1.814-1.815zm20.837-.707l.707.707-1.814 1.815-.707-.708 1.814-1.814z" transform="translate(8 6)"/>
            </g>
        </g>
    </g>
</svg>
