<svg xmlns="http://www.w3.org/2000/svg" xmlns:xlink="http://www.w3.org/1999/xlink" width="56" height="56" viewBox="0 0 56 56">
    <defs>
        <path id="prefix__a" d="M0 0H56V56H0z"/>
    </defs>
    <g fill="none" fill-rule="evenodd">
        <mask id="prefix__b" fill="#fff">
            <use xlink:href="#prefix__a"/>
        </mask>
        <use fill="#F5FAF0" fill-opacity=".001" xlink:href="#prefix__a"/>
        <g mask="url(#prefix__b)">
            <g>
                <path fill="#F5FAF0" d="M29.797 23.009L29.797 30.441 26.243 27.893 22.797 30.441 22.797 23.009" transform="translate(9.54 13.54)"/>
                <path fill="#00280F" fill-rule="nonzero" d="M23.297 23.009v6.44l2.649-1.958c.15-.11.345-.128.51-.05l.078.046 2.762 1.98v-6.458h1v7.432c0 .378-.396.61-.718.45l-.073-.043-3.258-2.337-3.153 2.332c-.306.227-.731.04-.79-.317l-.007-.085V23.01h1z" transform="translate(9.54 13.54)"/>
                <path fill="#00280F" fill-rule="nonzero" d="M35.644 0c.245 0 .45.177.492.41l.008.09v22.509c0 .245-.177.45-.41.492l-.09.008h-3.61v-1h3.11V.999H.998v21.51h19.462v1H.5c-.245 0-.45-.177-.492-.41L0 23.009V.5C0 .255.177.05.41.008L.5 0h35.144z" transform="translate(9.54 13.54)"/>
                <path fill="#00280F" fill-rule="nonzero" d="M18.125 10.415L18.125 11.415 6.552 11.415 6.552 10.415zM23.434 5.956L23.434 6.956 13.347 6.956 13.347 5.956z" transform="translate(9.54 13.54)"/>
                <path fill="#C3DC87" d="M32.273 17.939c0 3.284-2.662 5.946-5.946 5.946s-5.946-2.662-5.946-5.946 2.662-5.946 5.946-5.946 5.946 2.662 5.946 5.946z" transform="translate(9.54 13.54)"/>
                <path fill="#00280F" fill-rule="nonzero" d="M26.327 11.493c-3.56 0-6.446 2.886-6.446 6.446 0 3.56 2.886 6.446 6.446 6.446 3.56 0 6.446-2.886 6.446-6.446 0-3.56-2.886-6.446-6.446-6.446zm0 1c3.007 0 5.446 2.438 5.446 5.446 0 3.007-2.439 5.446-5.446 5.446-3.008 0-5.446-2.439-5.446-5.446 0-3.008 2.438-5.446 5.446-5.446zM18.231 15.087L18.231 16.087 6.977 16.087 6.977 15.087z" transform="translate(9.54 13.54)"/>
            </g>
        </g>
    </g>
</svg>
