<svg xmlns="http://www.w3.org/2000/svg" width="16.3" height="16.3" viewBox="0 0 16.3 16.3">
    <g id="Group_22" transform="translate(-1775.85 -2637.85)">
        <path id="Path_16" fill="#c3dc87" stroke="#c3dc87" stroke-width="0.3px" d="M1784.777 2648.75a.208.208 0 0 0-.167.2v.641h-.866v-.6a.208.208 0 0 0-.184-.207 3.52 3.52 0 0 1-1.505-.5v-.583a.251.251 0 0 1 .356-.228c.111.052.233.1.362.151a3.656 3.656 0 0 0 1.271.246c.907 0 1.1-.362 1.1-.665a.585.585 0 0 0-.307-.508 1.291 1.291 0 0 0-.377-.162l-.057-.018h-.006l-.526-.159-.415-.122-.373-.146a2.331 2.331 0 0 1-.342-.161l-.018-.014a2.139 2.139 0 0 1-.485-.449 1.719 1.719 0 0 1-.181-.756c0-.816.537-1.346 1.512-1.492a.208.208 0 0 0 .177-.205v-.617h.866v.625a.208.208 0 0 0 .174.2 4.256 4.256 0 0 1 1.116.349v.69a.177.177 0 0 1-.079.148.174.174 0 0 1-.164.018c-.129-.052-.268-.1-.413-.144a3.747 3.747 0 0 0-1.092-.176c-.8 0-.973.321-.973.591a.518.518 0 0 0 .367.457l.014.006.268.092c.1.032.251.076.413.121.138.039.28.079.387.112a3.6 3.6 0 0 1 1.243.65 1.25 1.25 0 0 1 .4 1.008 1.637 1.637 0 0 1-1.5 1.594zm1.367-2.916a4.036 4.036 0 0 0-1.39-.732c-.115-.036-.26-.076-.4-.116-.157-.044-.306-.086-.392-.115l-.259-.089c-.092-.04-.109-.068-.109-.072 0-.158.39-.175.558-.175a3.344 3.344 0 0 1 .972.157c.133.041.26.085.379.132a.592.592 0 0 0 .812-.551v-.82a.207.207 0 0 0-.113-.185 4.643 4.643 0 0 0-1.176-.412v-.659a.208.208 0 0 0-.208-.208h-1.282a.208.208 0 0 0-.208.208v.649a1.862 1.862 0 0 0-1.689 1.872 2.121 2.121 0 0 0 .232.953l.006.011a2.332 2.332 0 0 0 .6.574l.024.018.013.009a2.516 2.516 0 0 0 .419.2l.383.15.017.006.423.125.521.157.06.019a1.761 1.761 0 0 1 .241.089l.019.015c.129.089.134.108.134.17 0 .206-.371.25-.682.25a3.242 3.242 0 0 1-1.126-.22c-.119-.045-.23-.091-.331-.138a.666.666 0 0 0-.948.6v.694a.206.206 0 0 0 .089.17 3.747 3.747 0 0 0 1.6.6v.625a.208.208 0 0 0 .208.208h1.282a.208.208 0 0 0 .208-.208v-.683a2.016 2.016 0 0 0 1.664-1.964 1.667 1.667 0 0 0-.546-1.322z"/>
        <path id="Path_17" d="M1784 2653.584a7.584 7.584 0 1 1 7.584-7.584 7.592 7.592 0 0 1-7.584 7.584zm0-15.584a8 8 0 1 0 8 8 8.009 8.009 0 0 0-8-8z" stroke-width="0.3px" fill="#033535" stroke="#033535"/>
        <path id="Path_18" d="M1786.124 2651.189a5.607 5.607 0 0 1-7.313-7.313.208.208 0 0 0-.384-.158 6.021 6.021 0 0 0 7.855 7.856.208.208 0 0 0-.158-.385z" stroke-width="0.3px" fill="#033535" stroke="#033535"/>
        <path id="Path_19" d="M1781.718 2640.426a.208.208 0 0 0 .158.385 5.607 5.607 0 0 1 7.313 7.313.207.207 0 0 0 .113.271.2.2 0 0 0 .079.016.206.206 0 0 0 .192-.13 6.023 6.023 0 0 0-7.855-7.855z" stroke-width="0.3px" fill="#033535" stroke="#033535"/>
    </g>
</svg>
