<svg xmlns="http://www.w3.org/2000/svg" xmlns:xlink="http://www.w3.org/1999/xlink" width="56" height="56" viewBox="0 0 56 56">
    <defs>
        <path id="prefix__a" d="M0 0H56V56H0z"/>
    </defs>
    <g fill="none" fill-rule="evenodd">
        <mask id="prefix__b" fill="#fff">
            <use xlink:href="#prefix__a"/>
        </mask>
        <use fill="#F5FAF0" fill-opacity=".001" xlink:href="#prefix__a"/>
        <g mask="url(#prefix__b)">
            <g>
                <path fill="#00280F" fill-rule="nonzero" d="M31.46 35.54h5.701v1.12H0v-1.12h5.702V1.28c0-.31.25-.56.56-.56h18.976c.024-.002.047-.002.07 0h.036v.003c.113.014.224.065.318.157l5.63 5.537c.139.136.186.311.163.474h.005V35.54zm-1.12 0V7.377h-5.07c-.31 0-.56-.251-.56-.56V1.84H6.822v33.7H30.34zM13.5 7.54l.695.695c.218.218.218.573 0 .792-.22.218-.574.218-.792 0l-.695-.695-.694.695c-.22.218-.574.218-.792 0-.219-.219-.22-.574 0-.792l.694-.695-.694-.694c-.219-.22-.219-.574 0-.792.218-.219.573-.219.792 0l.694.694.695-.694c.218-.219.573-.219.792 0 .218.218.218.573 0 .792l-.695.694zm0 10.48l.695.694c.218.219.218.573 0 .792-.22.219-.574.219-.792 0l-.695-.694-.694.694c-.22.219-.574.219-.792 0-.22-.219-.22-.573 0-.792l.694-.694-.694-.695c-.219-.219-.219-.573 0-.792.218-.218.573-.218.792 0l.694.695.695-.695c.218-.218.573-.218.792 0 .218.219.218.573 0 .792l-.695.695zm.548 13.208c0 1.13-.916 2.047-2.046 2.047s-2.047-.917-2.047-2.047c0-1.13.917-2.046 2.047-2.046 1.13 0 2.046.916 2.046 2.046zm-1.12 0c0-.511-.415-.926-.926-.926-.512 0-.927.415-.927.926 0 .512.415.927.927.927s.926-.415.926-.927zm5.951 0c0 1.13-.916 2.047-2.046 2.047s-2.047-.917-2.047-2.047c0-1.13.917-2.046 2.047-2.046 1.13 0 2.046.916 2.046 2.046zm-1.12 0c0-.511-.415-.926-.926-.926-.512 0-.927.414-.927.926s.415.927.927.927c.511 0 .926-.415.926-.927zm-6.73-8.404l.895.862 2.415-2.37.784.8-2.803 2.75c-.216.213-.562.215-.78.005l-1.288-1.24.776-.807zm0-10.59l.895.861 2.415-2.369.784.8-2.803 2.75c-.216.212-.562.214-.78.004l-1.288-1.24.776-.807zm18.502-5.978L25.83 2.616v3.64h3.702zM19.513 21.775v-1.12h6.912v1.12h-6.912zm0 4.014v-1.12h6.912v1.12h-6.912z" transform="translate(9 9)"/>
                <path fill="#C3DC87" stroke="#00280F" stroke-linejoin="round" stroke-width="1.12" d="M18.655 17.073L26.236 17.073 26.236 9.789 18.655 9.789z" transform="translate(9 9)"/>
            </g>
        </g>
    </g>
</svg>
