<svg xmlns="http://www.w3.org/2000/svg" xmlns:xlink="http://www.w3.org/1999/xlink" width="73" height="73" viewBox="0 0 73 73">
    <defs>
        <path id="prefix__a" d="M0 0H72.215V72.215H0z"/>
    </defs>
    <g fill="none" fill-rule="evenodd">
        <mask id="prefix__b" fill="#fff">
            <use xlink:href="#prefix__a"/>
        </mask>
        <use fill="#F5FAF0" fill-opacity=".001" xlink:href="#prefix__a"/>
        <g mask="url(#prefix__b)">
            <g>
                <path fill="#F5FAF0" d="M31.115 35.056L26.402 32.191 25.478 38.952zM45.835 9.526L43.685 12.967 39.034 10.33 40.868 6.658z" transform="translate(16.166 13.587)"/>
                <path fill="#00280F" fill-rule="nonzero" d="M35.952 0c.317 0 .58.228.634.529l.01.116v14.633h-1.289V1.289H1.288v44.058h34.019V26.923h1.29v19.069c0 .317-.228.58-.529.634l-.116.01H.645c-.317 0-.58-.227-.635-.528L0 45.992V.645C0 .328.228.065.529.01L.645 0h35.307z" transform="translate(16.166 13.587)"/>
                <path fill="#00280F" fill-rule="nonzero" d="M11.707 3.776L11.707 5.066 6.902 5.066 6.902 3.776z" transform="translate(16.166 13.587)"/>
                <path fill="#00280F" fill-rule="nonzero" d="M9.967 4.465L9.967 11.304 8.678 11.304 8.678 4.465zM29.575 3.776L29.575 5.066 24.769 5.066 24.769 3.776z" transform="translate(16.166 13.587)"/>
                <path fill="#00280F" fill-rule="nonzero" d="M27.835 4.465L27.835 11.304 26.546 11.304 26.546 4.465zM16.667 3.583v1.29l-2.406-.001v5.322h2.406v1.29h-3.05c-.316 0-.58-.228-.634-.529l-.01-.115V4.227c0-.316.228-.58.528-.634l.116-.01h3.05zM22.974 3.667v1.29h-2.302c-.563 0-1.019.456-1.019 1.018 0 .516.384.943.857 1.01l.131.01.67-.031c1.274 0 2.308 1.033 2.308 2.308 0 1.211-.933 2.205-2.12 2.3l-.189.009H19.01v-1.29h2.301c.563 0 1.02-.456 1.02-1.019 0-.516-.384-.942-.858-1.01l-.131-.01-.669.032c-1.275 0-2.308-1.034-2.308-2.309 0-1.21.932-2.204 2.119-2.3l.19-.008h2.3z" transform="translate(16.166 13.587)"/>
                <path fill="#C3DC87" d="M10.506 17.773c0 1.174-.952 2.126-2.126 2.126s-2.125-.952-2.125-2.126.951-2.126 2.125-2.126 2.126.952 2.126 2.126zM10.506 27.616c0 1.174-.952 2.126-2.126 2.126s-2.125-.952-2.125-2.126.951-2.126 2.125-2.126 2.126.952 2.126 2.126zM10.506 37.459c0 1.174-.952 2.125-2.126 2.125s-2.125-.951-2.125-2.125.951-2.126 2.125-2.126 2.126.952 2.126 2.126z" transform="translate(16.166 13.587)"/>
                <path fill="#00280F" fill-rule="nonzero" d="M8.38 15.003c-1.53 0-2.77 1.24-2.77 2.77s1.24 2.77 2.77 2.77 2.77-1.24 2.77-2.77-1.24-2.77-2.77-2.77zm0 1.29c.818 0 1.481.662 1.481 1.48s-.663 1.481-1.48 1.481c-.819 0-1.482-.663-1.482-1.48 0-.819.663-1.482 1.481-1.482zM8.38 24.845c-1.53 0-2.77 1.24-2.77 2.77s1.24 2.771 2.77 2.771 2.77-1.24 2.77-2.77-1.24-2.77-2.77-2.77zm0 1.29c.818 0 1.481.663 1.481 1.48 0 .819-.663 1.482-1.48 1.482-.819 0-1.482-.663-1.482-1.481 0-.818.663-1.481 1.481-1.481zM8.38 34.688c-1.53 0-2.77 1.24-2.77 2.77s1.24 2.771 2.77 2.771 2.77-1.24 2.77-2.77-1.24-2.77-2.77-2.77zm0 1.29c.818 0 1.481.663 1.481 1.48 0 .818-.663 1.481-1.48 1.481-.819 0-1.482-.663-1.482-1.48 0-.818.663-1.481 1.481-1.481zM26.494 18.529L26.494 19.819 13.094 19.819 13.094 18.529zM27.881 28.047L27.881 29.336 13.094 29.336 13.094 28.047zM22.336 38.308L22.336 39.597 13.094 39.597 13.094 38.308z" transform="translate(16.166 13.587)"/>
                <path fill="#00280F" fill-rule="nonzero" d="M25.61 31.794l-.083.26-.69 7.005c-.055.554.572.913 1.022.584l5.658-4.138.177-.198 14.7-25.459c.177-.308.072-.703-.237-.88L41.19 6.098c-.308-.178-.703-.072-.88.236l-14.7 25.46zM41.104 7.54l3.85 2.221-14.308 24.783-4.385 3.207.536-5.43L41.103 7.539z" transform="translate(16.166 13.587)"/>
                <path fill="#00280F" fill-rule="nonzero" d="M26.737 31.64L31.45 34.505 30.781 35.607 26.067 32.742zM39.352 9.769L44.003 12.406 43.367 13.528 38.716 10.891zM16.718 7.046L16.718 8.336 13.494 8.336 13.494 7.046z" transform="translate(16.166 13.587)"/>
            </g>
        </g>
    </g>
</svg>
