<svg xmlns="http://www.w3.org/2000/svg" width="45" height="44" viewBox="0 0 45 44">
    <g fill="none" fill-rule="evenodd" transform="translate(.56)">
        <ellipse cx="21.795" cy="21.622" fill="#00280F" rx="21.795" ry="21.622"/>
        <path fill="#FFF" fill-rule="nonzero" d="M27.228 17.438c-.604 0-1.093-.486-1.093-1.084 0-.6.49-1.085 1.093-1.085.604 0 1.093.486 1.093 1.085 0 .598-.49 1.084-1.093 1.084zm-.646 3.442c.303 2.03-.74 4.024-2.588 4.947-1.847.922-4.083.566-5.546-.886-1.463-1.45-1.822-3.669-.892-5.502.93-1.833 2.94-2.867 4.986-2.566 2.09.307 3.73 1.934 4.04 4.007zm-1.438.212c-.216-1.445-1.359-2.58-2.815-2.794-1.426-.21-2.827.512-3.475 1.79-.649 1.277-.398 2.823.622 3.834 1.019 1.012 2.577 1.26 3.865.617 1.288-.643 2.015-2.033 1.803-3.447zM16.71 10.81H26.88c3.21 0 5.812 2.581 5.812 5.766v10.09c0 3.184-2.602 5.765-5.812 5.765H16.71c-3.21 0-5.813-2.581-5.813-5.765v-10.09c0-3.185 2.602-5.766 5.812-5.766zm0 1.441c-2.407 0-4.359 1.936-4.359 4.325v10.09c0 2.388 1.952 4.324 4.36 4.324h10.17c2.407 0 4.359-1.936 4.359-4.324v-10.09c0-2.389-1.952-4.325-4.359-4.325H16.71z"/>
    </g>
</svg>
