<svg xmlns="http://www.w3.org/2000/svg" width="45" height="44" viewBox="0 0 45 44">
    <g fill="none" fill-rule="evenodd" transform="translate(.584)">
        <ellipse cx="21.795" cy="21.622" fill="#00280F" rx="21.795" ry="21.622"/>
        <path fill="#FFF" fill-rule="nonzero" d="M16.62 15.125c0 1.025-.838 1.856-1.871 1.855-1.034 0-1.87-.832-1.87-1.857s.838-1.856 1.872-1.855c1.033 0 1.87.832 1.87 1.857zm.057 3.23h-3.742v11.62h3.742v-11.62zm5.913 0h-3.724v11.62h3.686v-6.098c0-3.397 4.463-3.712 4.463 0v6.098h3.696v-7.36c0-5.726-6.606-5.513-8.159-2.7l.038-1.56z"/>
    </g>
</svg>
