<svg xmlns="http://www.w3.org/2000/svg" viewBox="0 0 833.28 309.62">
  <path fill="#73caeb"
        d="M576.34,259.41a16.3,16.3,0,0,0-6.57,1.46l.89,5.37a13.55,13.55,0,0,1,3.7-.63c3.08,0,4.69,1.82,4.69,5.11,0,7.45-5,12.6-12.66,13l-1.51-24.28-6.46.74,1.77,29.89c.68.05,1.3.11,2.29.11,14.07,0,23.18-8,23.18-20.37C585.66,263.32,582.17,259.41,576.34,259.41Z"/>
  <path fill="#73caeb" d="M590.46,260.09v6h4.16v11.57h6.67V260.09Z"/>
  <path fill="#73caeb"
        d="M623.84,260.09H608.17V266h4.63a18.67,18.67,0,0,0-2.55,9.7c0,8.9,4.9,14.58,12.87,14.58,8.64,0,14.11-6.56,14.11-16.93C637.23,264.31,633,260.09,623.84,260.09Zm-.25,24.17c-4.12,0-6.46-3.59-6.46-9.48a16.77,16.77,0,0,1,2.24-8.81H623c5.47,0,7.39,2,7.39,7.82C630.36,280.45,627.85,284.26,623.59,284.26Z"/>
  <path fill="#73caeb"
        d="M663.18,270.5c-.1-7.23-3.07-10.41-10-10.41H641.93v6h9.16c4.17,0,5.37,1.25,5.42,6.15.06,2,.06,4.26.06,6.56,0,4.53-.06,9-.06,10.73h6.67c0-2.29.05-8.23.05-13.44C663.23,273.94,663.23,272,663.18,270.5Z"/>
  <path fill="#73caeb"
        d="M690.58,283.53c0-1.41.1-5.88.1-8.75,0-1.67,0-3.12,0-4.48-.21-7.08-3.12-10.21-9.9-10.21H670.36v6h8.19c4.16,0,5.31,1.25,5.47,6.15.05,2.13.05,5,.05,8.33v3H669.64l-.62,6h24.79l1.15-6Z"/>
  <path fill="#73caeb" d="M696.63,260.09v6h4.16v11.57h6.67V260.09Z"/>
  <path fill="#73caeb"
        d="M728.25,283.64l-.84-23.55H714.75v6H721l.68,17.45h-8.91l-.67,6h15.68A42.87,42.87,0,0,0,728.25,283.64Z"/>
  <path fill="#73caeb" d="M734.5,260.09v6h4.59v23.44h6.66V260.09Z"/>
  <path fill="#73caeb"
        d="M781.07,265.72a4.14,4.14,0,0,0-2.29-3.86,26.77,26.77,0,0,0-5.63-2.55l-2.76,4.95c1.25.83,2.24,1.41,3.12,1.93s1,.88,1,1.56c0,1.19-.83,4-2.7,8.8L757.63,259l-4.9,4,3.54,4.38a97.39,97.39,0,0,0-2.87,17.71l0,4.43h6.31l.52-17.29,15.21,18.85,4.85-4.11L775,280.51C778.83,274.26,781.07,268.84,781.07,265.72Z"/>
  <path fill="#73caeb"
        d="M551.34,270.77c-.11-7.35-3.29-10.68-10.22-10.68H522.24v6h17.22c4.37,0,5.2,1.35,5.3,6.15.06,2,.12,4.21.12,6.56,0,3.75-.12,7.81-.12,10.73h6.52c.11-2.71.16-7,.16-11.25C551.44,275.67,551.39,273,551.34,270.77Zm-18.26-5.65h-5.69c0,.28-.11.61-.16,1a112.84,112.84,0,0,0-1.11,13.18c0,1.77.1,3.12.21,4.38-.37.05-1.15.05-2.3.05-.93,0-1.82,0-2.76-.05l-.68,5.88c1.57,0,3.08.05,5.11.05s3.88-.05,6.43-.15c.2-2.09.52-4.48.57-6.25-.15-2.3-.31-5.37-.31-8.18,0-1.79.27-6.29.57-8.91C533,265.72,533,265.39,533.08,265.12Z"/>
  <path fill="#73caeb" d="M337.92,260.09v6h4.43v30.31H349v-36.3Z"/>
  <path fill="#73caeb" d="M382.71,260.09v6h4.18v11.57h6.66V260.09Z"/>
  <path fill="#73caeb"
        d="M428.51,265.72a4.13,4.13,0,0,0-2.3-3.86,26.64,26.64,0,0,0-5.62-2.55l-2.76,4.95c1.25.83,2.24,1.4,3.12,1.93s1,.88,1,1.56c0,1.19-.83,4-2.71,8.79L405.06,259l-4.9,4,3.55,4.38a95.5,95.5,0,0,0-2.86,17.71l-.05,4.43h6.29l.52-17.29,15.22,18.85,4.84-4.12-5.21-6.46C426.26,274.26,428.51,268.84,428.51,265.72Z"/>
  <path fill="#73caeb" d="M433.75,260.09l-.68,5.88h14.19l.67-5.88Z"/>
  <path fill="#73caeb"
        d="M475.45,270.5c-.1-7.23-3.07-10.41-10-10.41H454.19v6h9.18c4.16,0,5.35,1.25,5.41,6.15.06,2,.06,4.26.06,6.56,0,4.53-.06,9-.06,10.73h6.67c0-2.29.05-8.23.05-13.44C475.5,273.94,475.5,272,475.45,270.5Z"/>
  <path fill="#73caeb"
        d="M502.85,283.52c0-1.4.11-5.87.11-8.74,0-1.67,0-3.12-.06-4.48-.21-7.09-3.13-10.21-9.9-10.21H482.64v6h8.18c4.17,0,5.31,1.25,5.46,6.15.06,2.13.06,5,.06,8.33v3H481.91l-.63,6h24.8l1.14-6Z"/>
  <path fill="#73caeb"
        d="M356.54,285.62c9.74-8.65,14.17-13.29,14.17-17.77a4.64,4.64,0,0,0-.21-1.77H357.16a76.13,76.13,0,0,1-1.77-15.49l6.15-.73a77.27,77.27,0,0,0,1.09,10.23h13a14.34,14.34,0,0,1,1.4,6.46c0,7.71-4.84,14.12-16.41,24Z"/>
  <path fill="#73caeb" d="M264.62,230.69A139.42,139.42,0,0,1,.25,176.35h42a97.52,97.52,0,0,0,173,54.34Z"/>
  <path fill="#004128"
        d="M278.74,175c.08-1.9.13-3.82.13-5.74A139.4,139.4,0,0,0,199,43.17L176.69,79.06A97.57,97.57,0,0,1,237,169.24c0,1.93-.07,3.84-.18,5.74H159.37L133.3,216.87H295.35V175Z"/>
  <path fill="#004128"
        d="M162.71,142.67,52.32,15.63,20.7,43.11,42.93,68.69A139,139,0,0,0,.25,162.11h42a97.23,97.23,0,0,1,28.25-61.76l69.11,79.52Z"/>
  <path fill="#004128"
        d="M118.75,79.48a3.57,3.57,0,0,0,1.14,4.91h0a3.57,3.57,0,0,0,4.91-1.14l1.6-2.58,11.32,7-1.61,2.58a3.57,3.57,0,0,0,1.15,4.91h0a3.57,3.57,0,0,0,4.91-1.14l1.6-2.58,6.07,3.78,44.6-71.65-6.07-3.78,1.6-2.58a3.57,3.57,0,0,0-1.14-4.91h0a3.56,3.56,0,0,0-4.91,1.15l-1.6,2.57L171,9l1.6-2.58a3.57,3.57,0,0,0-1.14-4.91h0a3.57,3.57,0,0,0-4.91,1.14L165,5.25l-6.07-3.77-44.6,71.64,6.07,3.78Z"/>
  <path fill="#004128"
        d="M337.38,189.7V147.12h13.51v42c0,12.23,6.66,17.42,16.94,17.42,10.57,0,17-5.68,17-19.58V147.12h13.22v40.14c0,23.39-16,30.34-30.25,30.34C352.85,217.6,337.38,211.24,337.38,189.7Z"/>
  <path fill="#004128"
        d="M412,162.88h13v5.68c3.92-2.94,10.48-7.05,17.92-7.05,16.35,0,17.42,9.89,17.42,21v33.87H447.48v-32.4c0-8.13-1.57-11.07-8.71-11.07-5.39,0-10.38,2.26-13.71,4.21v39.26H412Z"/>
  <path fill="#004128" d="M497.7,162.88h14.1l9.79,31.91,3,11L528,194.7l11-31.82h13.7l-20.26,53.45H516.3Z"/>
  <path fill="#004128"
        d="M557.91,190.49c0-21.44,10.87-28.88,26-28.88,15.37,0,21.93,10.18,21.93,26.92v4.7H571c0,11.75,7.34,13.7,16.84,13.7a63.28,63.28,0,0,0,14.49-2.25l2,9.89a62.79,62.79,0,0,1-18.89,2.94C568.68,217.51,557.91,211.44,557.91,190.49Zm34.56-6c.1-8-3.14-13.51-9.69-13.51s-11,4.7-11.46,13.51Z"/>
  <path fill="#004128"
        d="M618.21,162.88h13V170c2.54-3.63,7.73-8.23,14.39-8.23a22,22,0,0,1,7,.88l-1.86,10.77a29.8,29.8,0,0,0-6.85-.59,17.19,17.19,0,0,0-12.63,6.07v37.4h-13Z"/>
  <path fill="#004128"
        d="M657.77,215.26l1.56-10.19a94.41,94.41,0,0,0,15.37,1.77c7.64,0,10.67-2.06,10.67-5.39,0-8.22-26.92-5-26.92-23.89,0-10.67,9.89-16.05,20.46-16.05a46.66,46.66,0,0,1,16.64,2.84L693.2,174A49.74,49.74,0,0,0,679.3,172c-5.28,0-7.93,2.06-7.93,4.9,0,8.52,26.73,6.17,26.73,23.89,0,13.11-13.41,16.74-22.32,16.74A63.38,63.38,0,0,1,657.77,215.26Z"/>
  <path fill="#004128" d="M707.55,146.23l8.56-8.65,8.75,8.65L716.11,155Zm2.2,16.65h13.12v53.45H709.75Z"/>
  <path fill="#004128"
        d="M741.08,200.37V172.86h-7.84v-10h7.84v-11h13v11h16.54v10H754.1v26.83c0,5.29,2.15,6.75,7.24,6.75A43.88,43.88,0,0,0,772,204.88l1.47,10.38a47.35,47.35,0,0,1-13.7,2.34C748,217.6,741.08,213.59,741.08,200.37Z"/>
  <path fill="#004128"
        d="M801,216.33h-5.09L778,162.88h14.1l10.08,34.17,2.55,9,2.84-8.91,11.55-34.26H832.3l-26.14,75H793.63Z"/>
  <path fill="#004128" d="M473.38,146.23l8.56-8.65,8.74,8.65L481.94,155Zm2.2,16.65H488.7v53.45H475.58Z"/>
  <path fill="#004128"
        d="M337.63,53.39h22.23c16.44,0,24.47,6.56,24.47,18.41a14.6,14.6,0,0,1-8.22,13.41v.2c5.58,1.37,13.21,6.75,13.21,16.44,0,12.24-7.14,20.76-26.53,20.76H337.63Zm21.64,29.18c7.83,0,11.75-2.74,11.75-9.4,0-7.15-4.7-9.5-13.51-9.5h-6.46v18.9ZM361.52,112c9.2,0,14.39-2.35,14.39-9.79s-5.28-10.19-15.66-10.19h-9.2v20Z"/>
  <path fill="#004128"
        d="M398.13,107.73c0-13.41,12.14-16.16,22-16.25l10.58-.1v-4.6c0-6.17-3.33-7.83-11.07-7.83a55.17,55.17,0,0,0-15.07,2.44L402,71.8a52.2,52.2,0,0,1,19.88-3.92c14.78,0,21.63,4.51,21.63,16v25.94c0,2.65,2.35,3.23,5.19,3.33l-.49,9.89c-1,.1-2.05.1-3.23.1-5.68,0-11.84-1.37-13-6.07-3.82,3-9.3,6.46-16.35,6.46C404.69,123.49,398.13,118,398.13,107.73Zm32.61,2.15V99.31l-9.89.39c-6.07.1-10,2.64-10,7,0,4.7,3.53,6.56,7.54,6.56C422.61,113.31,427,111.64,430.74,109.88Z"/>
  <path fill="#004128"
        d="M460,69.16h13V76.3c2.54-3.62,7.73-8.22,14.39-8.22a21.75,21.75,0,0,1,6.95.88l-1.86,10.77a29.8,29.8,0,0,0-6.85-.59A17.15,17.15,0,0,0,473,85.21v37.4H460Z"/>
  <path fill="#004128" d="M498.58,89.79h28v10.67h-28Z"/>
  <path fill="#004128" d="M543.13,53.39h13.31v69.22H543.13Z"/>
  <path fill="#004128"
        d="M599.13,107.73c0-13.41,12.14-16.16,22-16.25l10.57-.1v-4.6c0-6.17-3.33-7.83-11.06-7.83a55.25,55.25,0,0,0-15.08,2.44L603,71.8a52.15,52.15,0,0,1,19.87-3.92c14.79,0,21.64,4.51,21.64,16v25.94c0,2.65,2.35,3.23,5.19,3.33l-.49,9.89c-1,.1-2.06.1-3.23.1-5.68,0-11.85-1.37-13-6.07-3.82,3-9.3,6.46-16.35,6.46C605.69,123.49,599.13,118,599.13,107.73Zm32.6,2.15V99.31l-9.89.39c-6.07.1-10,2.64-10,7,0,4.7,3.52,6.56,7.54,6.56C623.61,113.31,628,111.64,631.73,109.88Z"/>
  <path fill="#004128"
        d="M661,69.16h13v5.67c3.92-2.93,10.48-7,17.92-7,16.35,0,17.43,9.89,17.43,21v33.87H696.44V90.2c0-8.12-1.56-11.06-8.71-11.06-5.39,0-10.38,2.25-13.71,4.21v39.26H661Z"/>
  <path fill="#004128" d="M543.13,53.39h13.31v69.22H543.13Z"/>
  <path fill="#004128"
        d="M582,123.42c-7.81-.16-11.62-5-11.62-13.48V53.39h13v54.86c0,2.73,1.14,4,3.52,4a34.77,34.77,0,0,0,4.87-.53L593.26,122A52.1,52.1,0,0,1,582,123.42Z"/>
</svg>
