<svg xmlns="http://www.w3.org/2000/svg" xmlns:xlink="http://www.w3.org/1999/xlink" width="217" height="81" viewBox="0 0 217 81">
    <defs>
        <path id="prefix__a" d="M0 0.127L15.724 0.127 15.724 18.387 0 18.387z"/>
        <path id="prefix__c" d="M0 79.693L215.853 79.693 215.853 0 0 0z"/>
    </defs>
    <g fill="none" fill-rule="evenodd" transform="translate(.954 .489)">
        <g transform="translate(0 37.727)">
            <mask id="prefix__b" fill="#fff">
                <use xlink:href="#prefix__a"/>
            </mask>
            <path fill="#F5FAF0" d="M0 11.159V.127h3.5v10.88c0 3.17 1.725 4.514 4.387 4.514 2.74 0 4.413-1.471 4.413-5.072V.127h3.424v10.398c0 6.061-4.134 7.862-7.837 7.862-3.88 0-7.887-1.649-7.887-7.228" mask="url(#prefix__b)"/>
        </g>
        <path fill="#F5FAF0" d="M19.341 41.936h3.373v1.471c1.015-.76 2.714-1.826 4.641-1.826 4.236 0 4.515 2.562 4.515 5.428v8.775h-3.348v-8.395c0-2.105-.406-2.866-2.257-2.866-1.395 0-2.688.583-3.55 1.09v10.17H19.34V41.937zM41.532 41.936L45.184 41.936 47.72 50.204 48.506 53.044 49.368 50.179 52.209 41.936 55.759 41.936 50.509 55.784 46.35 55.784zM66.081 47.541c.026-2.08-.811-3.5-2.51-3.5-1.674 0-2.841 1.218-2.968 3.5h5.478zm-8.953 1.547c0-5.554 2.816-7.481 6.747-7.481 3.982 0 5.68 2.637 5.68 6.974v1.217h-9.028c0 3.044 1.902 3.55 4.362 3.55.964 0 2.41-.227 3.754-.583l.532 2.562c-1.37.457-3.17.761-4.894.761-4.363 0-7.153-1.572-7.153-7zM72.751 41.936h3.373v1.852c.66-.939 2.004-2.13 3.728-2.13.786 0 1.345.076 1.8.228l-.48 2.79c-.66-.128-.99-.153-1.776-.153-1.395 0-2.663.812-3.272 1.573v9.688h-3.373V41.936zM82.997 55.505l.405-2.638c1.547.28 2.968.457 3.982.457 1.978 0 2.764-.533 2.764-1.395 0-2.13-6.974-1.294-6.974-6.188 0-2.765 2.561-4.16 5.3-4.16 1.624 0 3.019.254 4.312.736l-.609 2.51c-1.217-.33-2.257-.532-3.601-.532-1.37 0-2.054.533-2.054 1.268 0 2.207 6.923 1.598 6.923 6.188 0 3.398-3.474 4.337-5.782 4.337-1.851 0-3.398-.203-4.666-.583"/>
        <mask id="prefix__d" fill="#fff">
            <use xlink:href="#prefix__c"/>
        </mask>
        <path fill="#F5FAF0" d="M96.463 55.784h3.399V41.936h-3.399v13.848zm-.569-18.162l2.218-2.24 2.264 2.24-2.264 2.265-2.218-2.265zM104.579 51.65v-7.127h-2.03v-2.587h2.03v-2.84h3.373v2.84h4.285v2.587h-4.285v6.95c0 1.369.558 1.75 1.877 1.75.887 0 1.902-.178 2.764-.407l.38 2.689c-.938.354-2.587.608-3.55.608-3.044 0-4.844-1.04-4.844-4.463M120.094 55.784L118.775 55.784 114.134 41.936 117.786 41.936 120.398 50.787 121.058 53.121 121.793 50.813 124.786 41.936 128.209 41.936 121.438 61.363 118.192 61.363zM35.8 55.784H39.2V41.936H35.8v13.848zm-.568-18.162l2.217-2.24 2.265 2.24-2.265 2.265-2.217-2.265z" mask="url(#prefix__d)"/>
        <path fill="#78CDE6" d="M74.428 66.943c-.579 0-1.2.149-1.7.378l.23 1.39c.378-.108.688-.163.958-.163.798 0 1.215.473 1.215 1.324 0 1.93-1.295 3.265-3.28 3.373l-.391-6.288-1.673.19.46 7.745c.174.013.335.026.592.026 3.645 0 6.005-2.064 6.005-5.276 0-1.686-.904-2.699-2.416-2.699M78.087 67.118L78.087 68.67 79.165 68.67 79.165 71.667 80.894 71.667 80.894 67.118zM86.67 73.38c-1.068 0-1.674-.93-1.674-2.456 0-.957.243-1.742.58-2.28h.932c1.417 0 1.914.512 1.914 2.024 0 1.726-.647 2.712-1.753 2.712m.067-6.262h-4.06v1.525h1.2c-.445.783-.662 1.552-.662 2.511 0 2.307 1.27 3.777 3.334 3.777 2.239 0 3.656-1.7 3.656-4.385 0-2.334-1.105-3.428-3.468-3.428M96.925 69.817c-.026-1.874-.795-2.699-2.59-2.699h-2.916v1.552h2.374c1.081 0 1.39.325 1.404 1.593.016.513.016 1.105.016 1.7 0 1.173-.016 2.32-.016 2.78h1.728c0-.594.014-2.132.014-3.48 0-.555 0-1.068-.014-1.446M104.023 73.192c0-.365.027-1.525.027-2.268 0-.43 0-.809-.014-1.16-.053-1.835-.809-2.646-2.564-2.646h-2.685v1.552h2.12c1.078 0 1.376.324 1.416 1.593.013.553.013 1.296.013 2.16v.769H98.6l-.162 1.552h6.424l.296-1.552h-1.134zM105.59 67.118L105.59 68.67 106.669 68.67 106.669 71.667 108.395 71.667 108.395 67.118zM113.782 73.218l-.217-6.1h-3.28v1.552h1.607l.175 4.522h-2.308l-.175 1.551h4.063c.053-.433.148-1.025.135-1.525M115.4 67.118L115.4 68.67 116.589 68.67 116.589 74.744 118.315 74.744 118.315 67.118zM127.464 68.577c0-.447-.175-.743-.592-.999-.325-.217-.783-.418-1.46-.661l-.713 1.282c.322.214.58.365.809.5.188.134.256.227.256.404 0 .31-.216 1.026-.7 2.281l-3.672-4.549-1.269 1.04.917 1.133c-.417 1.607-.727 3.698-.742 4.588l-.013 1.148h1.633l.135-4.48 3.941 4.884 1.256-1.065-1.351-1.673c.986-1.62 1.565-3.024 1.565-3.833M63.224 68.422H61.75c-.014.073-.03.157-.042.248-.14.9-.288 2.581-.288 3.415.014.46.027.808.053 1.134-.095.013-.296.013-.594.013-.241 0-.471 0-.714-.013l-.177 1.525c.407 0 .798.013 1.324.013.5 0 1.004-.013 1.664-.04.054-.542.135-1.16.149-1.62-.04-.595-.08-1.39-.08-2.117 0-.465.068-1.632.148-2.31.009-.093.02-.177.031-.248m4.728 1.463c-.027-1.903-.851-2.767-2.646-2.767h-4.892v1.552h4.461c1.134 0 1.348.351 1.375 1.593.015.526.029 1.092.029 1.7 0 .972-.029 2.025-.029 2.78h1.689c.026-.703.04-1.808.04-2.915 0-.674-.014-1.361-.027-1.943M12.666 67.118L12.666 68.67 13.813 68.67 13.813 76.523 15.526 76.523 15.526 67.118zM24.271 67.118L24.271 68.67 25.351 68.67 25.351 71.667 27.078 71.667 27.078 67.118zM36.134 68.577c0-.447-.177-.743-.595-.999-.325-.217-.782-.418-1.456-.661l-.717 1.282c.325.214.582.362.81.5.19.134.256.227.256.404 0 .31-.215 1.026-.7 2.279l-3.672-4.547-1.27 1.04.92 1.133c-.42 1.605-.729 3.698-.742 4.588l-.014 1.148h1.632l.135-4.48 3.94 4.884 1.256-1.068-1.35-1.673c.985-1.618 1.567-3.021 1.567-3.83M37.491 67.118L37.316 68.643 40.991 68.643 41.165 67.118zM48.293 69.817c-.026-1.874-.795-2.699-2.59-2.699h-2.916v1.552h2.377c1.078 0 1.388.325 1.4 1.593.016.513.016 1.105.016 1.7 0 1.173-.015 2.32-.015 2.78h1.728c0-.594.014-2.132.014-3.48 0-.555 0-1.068-.014-1.446M55.39 73.19c0-.363.03-1.523.03-2.266 0-.433 0-.809-.016-1.16-.053-1.837-.809-2.646-2.564-2.646h-2.683v1.552h2.117c1.081 0 1.377.325 1.417 1.593.014.553.014 1.295.014 2.16v.767h-3.738l-.162 1.554h6.424l.296-1.554H55.39zM17.49 73.731c2.523-2.24 3.67-3.44 3.67-4.601 0-.243-.013-.351-.054-.46h-3.455c-.243-.93-.459-2.783-.459-4.01l1.593-.19c.027.89.23 2.554.283 2.649h3.374c.23.445.365 1.025.365 1.673 0 1.997-1.255 3.657-4.251 6.208l-1.067-1.269z" mask="url(#prefix__d)"/>
        <path fill="#F5FAF0" d="M37.333 27.657c2.384 0 3.728-.609 3.728-2.536s-1.37-2.638-4.057-2.638h-2.385v5.174h2.714zm-.583-7.634c2.029 0 3.043-.71 3.043-2.435 0-1.85-1.217-2.46-3.5-2.46H34.62v4.895h2.13zm-5.605-7.558h5.757c4.26 0 6.34 1.7 6.34 4.769 0 1.673-.99 2.967-2.13 3.474v.05c1.446.356 3.424 1.75 3.424 4.261 0 3.17-1.852 5.377-6.873 5.377h-6.518v-17.93zM55.263 27.099V24.36l-2.562.101c-1.572.026-2.586.685-2.586 1.826 0 1.218.913 1.7 1.953 1.7 1.09 0 2.231-.432 3.195-.888m-8.445-.558c0-3.474 3.145-4.185 5.706-4.21l2.74-.025v-1.192c0-1.598-.863-2.03-2.867-2.03-1.293 0-2.713.28-3.905.635l-.685-2.485c1.37-.558 3.094-1.015 5.148-1.015 3.83 0 5.605 1.167 5.605 4.134v6.72c0 .685.609.838 1.344.863l-.127 2.562c-.253.025-.532.025-.837.025-1.47 0-3.068-.355-3.373-1.573-.989.787-2.409 1.674-4.235 1.674-2.815 0-4.514-1.42-4.514-4.083M62.845 16.549h3.373v1.85c.66-.937 2.004-2.13 3.728-2.13.787 0 1.345.077 1.801.229l-.481 2.79c-.66-.127-.99-.152-1.776-.152-1.395 0-2.663.811-3.272 1.572v9.688h-3.373V16.55zM72.837 24.659L80.101 24.659 80.101 21.895 72.837 21.895zM84.378 30.396L87.827 30.396 87.827 12.466 84.378 12.466zM107.332 27.099V24.36l-2.562.101c-1.572.026-2.587.685-2.587 1.826 0 1.218.913 1.7 1.953 1.7 1.09 0 2.232-.432 3.196-.888m-8.446-.558c0-3.474 3.145-4.185 5.706-4.21l2.74-.025v-1.192c0-1.598-.863-2.03-2.866-2.03-1.294 0-2.714.28-3.906.635l-.685-2.485c1.37-.558 3.094-1.015 5.149-1.015 3.829 0 5.604 1.167 5.604 4.134v6.72c0 .685.609.838 1.344.863l-.126 2.562c-.254.025-.533.025-.837.025-1.471 0-3.069-.355-3.373-1.573-.99.787-2.41 1.674-4.236 1.674-2.815 0-4.514-1.42-4.514-4.083M114.914 16.549h3.373v1.47c1.014-.76 2.714-1.825 4.641-1.825 4.235 0 4.514 2.561 4.514 5.427v8.775h-3.347v-8.395c0-2.105-.406-2.865-2.257-2.865-1.395 0-2.689.583-3.551 1.09v10.17h-3.373V16.55z" mask="url(#prefix__d)"/>
        <path fill="#F5FAF0" d="M84.378 30.396L87.827 30.396 87.827 12.466 84.378 12.466zM94.444 30.606c-2.023-.041-3.01-1.29-3.01-3.491v-14.65H94.8v14.21c0 .707.295 1.044.912 1.044.268 0 .775-.055 1.262-.138l.39 2.662c-1.041.254-2.262.37-2.92.363" mask="url(#prefix__d)"/>
        <path fill="#78CDE6" d="M207.894 59.503c-5.884 11.96-18.192 20.19-32.422 20.19-19.324 0-35.104-15.181-36.064-34.267h10.867c.944 13.092 11.865 23.42 25.197 23.42 7.917 0 14.984-3.643 19.615-9.343h12.807z" mask="url(#prefix__d)"/>
        <path fill="#F5FAF0" d="M190.903 10.926l-5.787 9.298c9.168 3.79 15.618 12.823 15.618 23.359 0 2.397-.334 4.717-.959 6.915h11.147c.434-2.239.662-4.55.662-6.915 0-14.423-8.455-26.872-20.68-32.657zm-35.154 2.403c-9.385 6.13-15.742 16.51-16.341 28.409h10.867c.593-8.191 5.09-15.301 11.638-19.476l-6.164-8.933z" mask="url(#prefix__d)"/>
        <path fill="#F5FAF0" d="M180.629 45.072L215.853 45.072 215.853 55.922 173.876 55.922zM181.494 36.701L175.496 46.339 144.707 10.909 152.896 3.792zM178.16 24.419L168.948 18.685 180.501.125 189.713 5.858z" mask="url(#prefix__d)"/>
        <path fill="#F5FAF0" d="M186.007 4.812l1.568.976.981-1.576c.27-.433.137-1.003-.296-1.272-.433-.27-1.002-.137-1.272.296l-.98 1.576zM181.508 2.011l1.568.976.98-1.576c.27-.433.138-1.002-.295-1.271-.433-.27-1.003-.138-1.272.296l-.981 1.575zM172.653 19.731l-1.568-.975-.98 1.575c-.27.434-.137 1.003.296 1.272.433.27 1.002.137 1.272-.296l.98-1.576zM177.153 22.532l-1.568-.976-.98 1.576c-.27.433-.138 1.002.295 1.272s1.003.137 1.272-.296l.98-1.576z" mask="url(#prefix__d)"/>
    </g>
</svg>
