<svg xmlns="http://www.w3.org/2000/svg" xmlns:xlink="http://www.w3.org/1999/xlink" width="73" height="73" viewBox="0 0 73 73">
    <defs>
        <path id="prefix__a" d="M0 0H72.215V72.215H0z"/>
    </defs>
    <g fill="none" fill-rule="evenodd">
        <mask id="prefix__b" fill="#fff">
            <use xlink:href="#prefix__a"/>
        </mask>
        <use fill="#F5FAF0" fill-opacity=".001" xlink:href="#prefix__a"/>
        <g mask="url(#prefix__b)">
            <g>
                <path fill="#C3DC87" d="M28.394.464v12.093l7.342-4.278V.645l-7.342-.18zM11.21.464v12.093L3.869 8.279V.645l7.341-.18z" transform="translate(16.764 8.563)"/>
                <path fill="#00280F" fill-rule="nonzero" d="M40.203 0L40.203 1.29 0 1.29 0 0z" transform="translate(16.764 8.563)"/>
                <path fill="#00280F" fill-rule="nonzero" d="M5.112.638L5.11 8.293l11.122 6.178h7.678l11.18-6.178V.638h1.29v8.035c0 .196-.088.378-.237.5l-.096.064-11.66 6.445c-.064.035-.133.059-.204.071l-.108.01h-8.01c-.073 0-.145-.013-.214-.037l-.099-.045L4.154 9.237c-.17-.095-.287-.26-.321-.449l-.01-.115V.638h1.289z" transform="translate(16.764 8.563)"/>
                <path fill="#00280F" fill-rule="nonzero" d="M12.403.792L12.403 12.807 11.114 12.807 11.114.792zM29.039.792L29.039 12.807 27.749 12.807 27.749.792zM16.864 15.117v3.851c0 1.856 1.504 3.36 3.36 3.36 1.784 0 3.244-1.39 3.353-3.147l.007-.213v-3.85h1.29v3.85c0 2.568-2.082 4.65-4.65 4.65-2.485 0-4.515-1.95-4.643-4.403l-.007-.247v-3.85h1.29z" transform="translate(16.764 8.563)"/>
                <path fill="#F5FAF0" d="M25.2 27.286h5.47v5.47c0 .462.184.905.51 1.231l3.868 3.868-3.868 3.868c-.326.327-.51.77-.51 1.231v5.47H25.2c-.462 0-.904.184-1.23.51L20.1 52.802l-3.868-3.868c-.326-.326-.769-.51-1.23-.51h-5.47v-5.47c0-.462-.184-.904-.51-1.23l-3.869-3.869 3.868-3.868c.327-.326.51-.77.51-1.23v-5.471h5.47c.462 0 .905-.183 1.231-.51l3.868-3.868 3.868 3.868c.327.327.77.51 1.231.51z" transform="translate(16.764 8.563)"/>
                <path fill="#00280F" fill-rule="nonzero" d="M19.645 22.452l-3.868 3.868c-.205.206-.484.321-.774.321h-5.47c-.357 0-.646.289-.646.645v5.47c0 .29-.115.57-.32.775L4.697 37.4c-.251.252-.251.66 0 .912l3.868 3.868c.206.206.321.484.321.775v5.47c0 .356.289.645.645.645h5.47c.291 0 .57.116.775.321l3.868 3.868c.252.252.66.252.912 0l3.868-3.868c.206-.205.484-.321.775-.321h5.47c.357 0 .645-.289.645-.645v-5.47c0-.29.116-.57.321-.775l3.868-3.868c.252-.252.252-.66 0-.912l-3.868-3.868c-.205-.205-.32-.484-.32-.775v-5.47c0-.356-.29-.645-.645-.645H25.2c-.292 0-.57-.115-.776-.32l-3.868-3.869c-.252-.252-.66-.252-.912 0zm.455 1.367l3.413 3.413.155.142c.428.358.97.557 1.532.557h4.825v4.825l.01.21c.05.556.292 1.08.69 1.477l3.41 3.412-3.41 3.412-.142.155c-.359.428-.557.97-.557 1.532l-.001 4.825H25.2l-.21.01c-.556.049-1.08.292-1.477.69L20.1 51.89l-3.41-3.412-.156-.142c-.427-.358-.97-.557-1.531-.557h-4.827v-4.825l-.008-.21c-.05-.556-.292-1.08-.69-1.477l-3.413-3.412 3.413-3.412.142-.155c.358-.427.557-.97.557-1.532l-.001-4.826h4.827c.632 0 1.24-.25 1.686-.698l3.411-3.413z" transform="translate(16.764 8.563)"/>
                <path fill="#00280F" fill-rule="nonzero" d="M20.101 32.59c-2.908 0-5.265 2.357-5.265 5.265 0 2.908 2.357 5.266 5.265 5.266 2.908 0 5.266-2.358 5.266-5.266s-2.358-5.266-5.266-5.266zm0 1.289c2.196 0 3.976 1.78 3.976 3.976 0 2.196-1.78 3.976-3.976 3.976-2.196 0-3.976-1.78-3.976-3.976 0-2.196 1.78-3.976 3.976-3.976z" transform="translate(16.764 8.563)"/>
            </g>
        </g>
    </g>
</svg>
