<svg xmlns="http://www.w3.org/2000/svg" xmlns:xlink="http://www.w3.org/1999/xlink" width="73" height="73" viewBox="0 0 73 73">
    <defs>
        <path id="prefix__a" d="M0.589 0.588H72.804V72.803H0.589z"/>
    </defs>
    <g fill="none" fill-rule="evenodd" transform="translate(-.59 -.588)">
        <mask id="prefix__b" fill="#fff">
            <use xlink:href="#prefix__a"/>
        </mask>
        <use fill="#F5FAF0" fill-opacity=".001" xlink:href="#prefix__a"/>
        <g mask="url(#prefix__b)">
            <g>
                <path fill="#00280F" fill-rule="nonzero" d="M8.293 12.25v6.329c0 4.163 3.298 7.556 7.425 7.708l.289.006h.584c4.163 0 7.556-3.299 7.708-7.425l.006-.29v-6.14h1.29v6.14c0 4.87-3.866 8.836-8.695 8.999l-.31.005h-.583c-4.87 0-8.836-3.865-8.999-8.694l-.005-.31V12.25h1.29zM16.59 0c2.55 0 4.929 1.067 6.618 2.898l.237.267-.981.837c-1.381-1.62-3.362-2.605-5.513-2.704l-.36-.008h-.584c-2.217 0-4.28.94-5.73 2.548l-.223.259-.995-.82c1.626-1.97 4.007-3.17 6.594-3.27L16.007 0h.584z" transform="translate(20.633 9.027)"/>
                <path fill="#00280F" fill-rule="nonzero" d="M17.673 17.212c-.564.044-1.036.237-1.418.511l-.066.05-.07-.053c-.434-.31-.988-.518-1.662-.518-1.04 0-1.677.429-2.747 1.579l-.29.317c-.913 1.007-1.356 1.331-1.917 1.317-.613-.015-.9.753-.426 1.143.2.164.542.392 1.008.616l.24.11c1.756.765 3.687.725 5.573-.58l.29-.214-.233-.183c1.588 1.307 3.27 1.686 4.911 1.351.913-.186 1.663-.549 2.207-.93l.219-.163c.485-.385.201-1.165-.417-1.15-.524.014-.944-.268-1.74-1.124l-.247-.27c-1.207-1.331-1.859-1.819-2.967-1.819l-.248.01zm.248 1.28c.561 0 .992.293 1.826 1.193l.469.511c.345.371.647.665.933.891l.148.112-.115.042c-.181.06-.373.113-.574.154-1.27.26-2.554-.03-3.833-1.084-.116-.095-.26-.147-.41-.147h-.352c-.15 0-.294.052-.41.147l-.243.192c-1.375 1.03-2.736 1.195-4.025.786l-.255-.091.149-.11c.286-.227.588-.521.933-.892l.283-.31c.96-1.057 1.41-1.394 2.012-1.394.487 0 .865.2 1.127.465l.105.118c.259.317.744.316 1.001-.002.26-.32.674-.581 1.23-.581z" transform="translate(20.633 9.027)"/>
                <path fill="#F5FAF0" d="M7.63 12.927c0-2.962 3.655-3.544 3.915-5.673.251-2.058-1.908-3.615-1.908-3.615s-3.99-.115-4.719 4.519c-.552 3.514.251 5.623.251 5.623" transform="translate(20.633 9.027)"/>
                <path fill="#00280F" fill-rule="nonzero" d="M9.656 2.995c.129.004.254.046.358.121.282.204.683.558 1.085 1.044.79.957 1.226 2.025 1.086 3.172-.105.865-.542 1.474-1.45 2.256l-.732.603c-1.174.96-1.663 1.599-1.723 2.532l-.006.204h-1.29c0-1.452.594-2.37 1.941-3.516l.753-.618c.83-.685 1.165-1.109 1.227-1.617.09-.738-.215-1.485-.8-2.195-.185-.222-.369-.41-.53-.558l-.155-.135-.185.016c-.416.048-.918.182-1.424.447l-.253.144c-1.028.63-1.741 1.7-2.003 3.363-.28 1.782-.228 3.314.024 4.555.063.312.125.538.169.67l.024.068-1.205.46c-.068-.179-.161-.495-.252-.942-.282-1.387-.338-3.073-.034-5.011.32-2.037 1.252-3.435 2.603-4.263.91-.557 1.823-.772 2.545-.798l.227-.002z" transform="translate(20.633 9.027)"/>
                <path fill="#F5FAF0" d="M24.926 12.927c0-2.962-3.656-3.544-3.915-5.673-.252-2.058 1.907-3.615 1.907-3.615s3.991-.115 4.72 4.519c.552 3.514-.252 5.623-.252 5.623" transform="translate(20.633 9.027)"/>
                <path fill="#00280F" fill-rule="nonzero" d="M22.9 2.995h.015c.75-.011 1.756.187 2.756.8 1.351.828 2.283 2.226 2.603 4.263.305 1.938.248 3.624-.033 5.011-.076.372-.153.654-.216.84l-.036.101-1.205-.459.052-.159c.04-.135.09-.33.141-.58.252-1.24.303-2.772.023-4.554-.26-1.664-.974-2.733-2.002-3.363-.59-.362-1.192-.535-1.678-.59l-.187-.017-.036.032c-.149.126-.325.296-.508.5l-.138.161c-.586.71-.89 1.457-.8 2.195.056.466.343.86 1.03 1.45l.688.567c1.442 1.179 2.12 2.08 2.195 3.468l.007.266h-1.29c0-.978-.41-1.617-1.487-2.535l-.737-.605c-1.069-.882-1.572-1.517-1.687-2.455-.14-1.147.297-2.215 1.087-3.172.401-.486.802-.84 1.084-1.044.07-.05.149-.085.232-.105l.127-.016z" transform="translate(20.633 9.027)"/>
                <path fill="#00280F" fill-rule="nonzero" d="M25.016 11.88c1.847 0 3.357 1.44 3.357 3.23 0 1.72-1.391 3.116-3.137 3.224l-.22.007v-1.29c1.148 0 2.067-.875 2.067-1.94 0-1.006-.82-1.843-1.878-1.933l-.189-.008v-1.29zM7.532 11.88v1.29c-1.148 0-2.066.876-2.066 1.94 0 1.007.819 1.844 1.877 1.934l.19.008v1.29c-1.848 0-3.357-1.44-3.357-3.231 0-1.72 1.391-3.115 3.136-3.223l.22-.007zM20.387 26.345L20.387 28.855 19.098 28.855 19.098 26.345zM13.56 26.345L13.56 28.855 12.27 28.855 12.27 26.345z" transform="translate(20.633 9.027)"/>
                <path fill="#C3DC87" d="M16.36 33.473l-1.611 1.172c-.602.438-1.444.305-1.882-.297l-2.577-4.05 2.636-1.546 3.434 4.72z" transform="translate(20.633 9.027)"/>
                <path fill="#C3DC87" d="M16.314 33.473l1.612 1.172c.601.438 1.444.305 1.881-.297l2.578-4.05-2.636-1.546-3.435 4.72z" transform="translate(20.633 9.027)"/>
                <path fill="#00280F" fill-rule="nonzero" d="M17.261 33.615L13.103 27.9l-3.716 2.18 2.936 4.615c.67.922 1.916 1.119 2.805.471l2.133-1.551zm-4.514-4.012l2.712 3.727-1.09.794-.108.065c-.3.144-.67.059-.872-.22l-2.197-3.454 1.555-.912z" transform="translate(20.633 9.027)"/>
                <path fill="#00280F" fill-rule="nonzero" d="M23.288 30.08L19.57 27.9l-4.157 5.715 2.133 1.551c.89.648 2.135.451 2.782-.438l2.959-4.649zm-3.362-.477l1.555.912-2.218 3.487-.076.086c-.225.206-.603.238-.882.036l-1.09-.794 2.711-3.727zM7.437 39.473L8.725 39.546 7.784 56.182 6.497 56.109zM25.367 39.473L26.295 55.888 25.008 55.961 24.08 39.546z" transform="translate(20.633 9.027)"/>
                <path fill="#00280F" fill-rule="nonzero" d="M7.711 30.946l1.191-.494.297.708c.466 1.092.804 1.784 1.297 2.615 1.532 2.579 3.387 4.062 5.73 4.106 2.777.052 4.565-1.675 6.663-5.657l.881-1.738 1.154.577-.684 1.357c-2.395 4.666-4.51 6.816-8.038 6.75-2.878-.054-5.078-1.814-6.814-4.736-.528-.889-.885-1.619-1.369-2.754l-.308-.734z" transform="translate(20.633 9.027)"/>
                <path fill="#00280F" fill-rule="nonzero" d="M10.39 29.753v1.29h-.318c-3.976 0-6.51 3.628-7.82 9.955-.494 2.386-.781 5.019-.9 7.75-.063 1.457-.074 2.797-.052 3.952l.017.63.415.187c4.31 1.875 8.96 2.901 13.754 3l.759.007c5.162 0 10.171-1.075 14.78-3.126l.409-.187.003-.067c.032-1.103.033-2.398-.016-3.819l-.024-.616c-.12-2.727-.407-5.355-.901-7.736-1.282-6.168-3.73-9.764-7.55-9.925l-.269-.005h-.318v-1.29h.318c4.78 0 7.66 4.116 9.081 10.958.51 2.456.805 5.15.927 7.942.074 1.696.078 3.239.041 4.53l-.03.858-.467.225c-4.96 2.326-10.386 3.548-15.984 3.548-5.252 0-10.353-1.076-15.06-3.129l-.813-.366-.325-.42-.008-.206c-.053-1.376-.059-3.09.025-5 .121-2.796.415-5.495.925-7.957C2.38 34.025 5.17 29.93 9.77 29.76l.303-.006h.318z" transform="translate(20.633 9.027)"/>
            </g>
        </g>
    </g>
</svg>
