<svg xmlns="http://www.w3.org/2000/svg" width="24" height="25" viewBox="0 0 24 25">
    <g fill="#00280f">
        <path d="M9.333.5C4.455.5.5 4.455.5 9.333c0 4.879 3.955 8.834 8.833 8.834 4.879 0 8.834-3.955 8.834-8.834C18.167 4.455 14.212.5 9.333.5zm0 1c4.327 0 7.834 3.507 7.834 7.833 0 4.327-3.507 7.834-7.834 7.834-4.326 0-7.833-3.507-7.833-7.834C1.5 5.007 5.007 1.5 9.333 1.5z" transform="translate(2 3)"/>
        <path d="M15.572 14.865L20.104 19.396 19.396 20.104 14.865 15.572z" transform="translate(2 3)"/>
    </g>
</svg>
