<svg xmlns="http://www.w3.org/2000/svg" width="24" height="24" viewBox="0 0 24 24">
    <g fill="#00280F">
        <path d="M18-.5c-3.038 0-5.5 2.462-5.5 5.5s2.462 5.5 5.5 5.5 5.5-2.462 5.5-5.5S21.038-.5 18-.5zm0 1c2.485 0 4.5 2.015 4.5 4.5S20.485 9.5 18 9.5 13.5 7.485 13.5 5 15.515.5 18 .5z" transform="translate(.5 7)"/>
        <path d="M15.473.25L15.473 1.25 7.605 1.25 7.605.25zM13.172 4.25L13.172 5.25 10 5.25 10 4.25z" transform="translate(.5 7)"/>
        <path d="M5-.5C1.962-.5-.5 1.962-.5 5s2.462 5.5 5.5 5.5 5.5-2.462 5.5-5.5S8.038-.5 5-.5zm0 1C7.485.5 9.5 2.515 9.5 5S7.485 9.5 5 9.5.5 7.485.5 5 2.515.5 5 .5z" transform="translate(.5 7)"/>
    </g>
</svg>
