<svg xmlns="http://www.w3.org/2000/svg" width="22.32" height="22.32" viewBox="0 0 22.32 22.32">
    <g>
        <circle cx="11.16" cy="11.16" r="11.16" fill="#00280f"/>
        <path fill="#fff" d="M5.92 1.928L5.129 3.5l-.79-1.568H3.331L4.756 4.41h.008v1.904h.731V4.405h.008l1.425-2.477zM8.054 3.39a.37.37 0 0 1 .366.366v1.462a.366.366 0 1 1-.731 0V3.756a.37.37 0 0 1 .366-.366zm0-.731a1.1 1.1 0 0 0-1.1 1.1v1.459a1.1 1.1 0 0 0 2.193 0V3.756a1.1 1.1 0 0 0-1.1-1.1zm3.29 0v2.878c-.319.266-.731.426-.731-.521V2.659h-.732v2.505c.011.6.139 1.692 1.461.808v.342h.731V2.659h-.731zm1.1 7.31a.366.366 0 0 0-.366.366v.365h.731v-.366a.366.366 0 0 0-.369-.364zm-3.29.366v1.919c.247.247.731.274.731-.091v-1.714c-.004-.365-.369-.479-.735-.114zm5.058-1.764A1.52 1.52 0 0 0 12.713 7.1c-.8-.04-2.621-.06-4.223-.06s-3.556.02-4.353.06a1.52 1.52 0 0 0-1.495 1.471c-.048.858-.072 1.169-.072 1.6s.024 1.073.072 1.931a1.52 1.52 0 0 0 1.495 1.466c.8.04 2.751.06 4.353.06s3.426-.02 4.223-.06a1.52 1.52 0 0 0 1.495-1.468q.06-1.073.06-1.931c0-.572-.02-.883-.06-1.6zm-9.448 4.323h-.731V9.238H3.3v-.731h2.195v.731h-.731zm2.924 0h-.731v-.342c-1.39.78-1.45.025-1.461-.579v-2h.731v2.014c0 .442.412.4.731.133V9.97h.731zm2.924-.741c0 .764-.782.987-1.462.393v.349h-.731V8.507h.731V9.7c.731-.731 1.462-.457 1.462.274zm2.924-1.453v.366h-1.462v.734a.366.366 0 0 0 .731 0v-.366h.731v.366a1.1 1.1 0 0 1-2.193 0v-1.465a1.1 1.1 0 1 1 2.193 0v.365z" transform="translate(3.066 2.959)"/>
    </g>
</svg>
