<?xml version="1.0" encoding="UTF-8"?>
<svg width="34px" height="34px" viewBox="0 0 24 24" version="1.1" xmlns="http://www.w3.org/2000/svg" xmlns:xlink="http://www.w3.org/1999/xlink">
    <title>bookmark_add_black_24dp</title>
    <g id="symbols" stroke="none" stroke-width="1" fill="none" fill-rule="evenodd">
        <g id="bookmark_add_black_24dp">
            <rect id="Rectangle" x="0" y="0" width="24" height="24"></rect>
            <path d="M17,11 L17,17.97 L12,15.83 L7,17.97 L7,5 L13,5 L13,3 L7,3 C5.9,3 5,3.9 5,5 L5,21 L12,18 L19,21 L19,11 L17,11 Z M21,7 L19,7 L19,9 L17,9 L17,7 L15,7 L15,5 L17,5 L17,3 L19,3 L19,5 L21,5 L21,7 Z" id="Shape" fill="#495057" fill-rule="nonzero"></path>
        </g>
    </g>
</svg>