<?xml version="1.0" encoding="UTF-8"?>
<svg width="32px" height="32px" viewBox="0 0 32 32" version="1.1" xmlns="http://www.w3.org/2000/svg" xmlns:xlink="http://www.w3.org/1999/xlink">
    <title>E2536326-1D80-4348-B311-255C4C3142AE</title>
    <defs>
        <rect id="path-1" x="0" y="0" width="416" height="168" rx="4"></rect>
        <filter x="-4.8%" y="-9.5%" width="109.6%" height="123.8%" filterUnits="objectBoundingBox" id="filter-2">
            <feOffset dx="0" dy="4" in="SourceAlpha" result="shadowOffsetOuter1"></feOffset>
            <feGaussianBlur stdDeviation="6" in="shadowOffsetOuter1" result="shadowBlurOuter1"></feGaussianBlur>
            <feComposite in="shadowBlurOuter1" in2="SourceAlpha" operator="out" result="shadowBlurOuter1"></feComposite>
            <feColorMatrix values="0 0 0 0 0.28627451   0 0 0 0 0.31372549   0 0 0 0 0.341176471  0 0 0 0.04 0" type="matrix" in="shadowBlurOuter1"></feColorMatrix>
        </filter>
        <rect id="path-3" x="0" y="0" width="32" height="32"></rect>
        <path d="M22.6666667,0 L9.33333333,0 C8.85094571,0 7.96205682,0 6.66666667,0 C6.66666667,1.4961189 6.66666667,2.53315594 6.66666667,3.11111111 L6.66666667,28 L16,23.3333333 L25.3333333,28 L25.3333333,3.11111111 C25.3333333,2.57524007 25.3333333,1.53820303 25.3333333,0 C24.0740153,0 23.1851264,0 22.6666667,0 Z" id="path-5"></path>
    </defs>
    <g id="course-pages" stroke="none" stroke-width="1" fill="none" fill-rule="evenodd">
        <g id="Member-Tab---Mobile" transform="translate(-384.000000, -1328.000000)">
            <rect id="bg" fill="none" x="0" y="56" width="448" height="2526"></rect>
            <g id="Course-Participants" transform="translate(16.000000, 1104.000000)">
                <g id="Platform-Member/Default-2" transform="translate(0.000000, 224.000000)">
                    <g id="icon/course/content/bookmark_edge_24px" transform="translate(368.000000, 0.000000)">
                        <mask id="mask-4" fill="none">
                            <use xlink:href="#path-3"></use>
                        </mask>
                        <g id="Background/Mask"></g>
                        <mask id="mask-6" fill="none">
                            <use xlink:href="#path-5"></use>
                        </mask>
                        <use id="-↳Color" fill="#0096D7" xlink:href="#path-5"></use>
                    </g>
                </g>
            </g>
        </g>
    </g>
</svg>
