<?xml version="1.0" encoding="UTF-8"?>
<svg width="24px" height="24px" viewBox="0 0 24 24" version="1.1" xmlns="http://www.w3.org/2000/svg" xmlns:xlink="http://www.w3.org/1999/xlink">
    <title>AEE350AD-8241-49B2-B3DD-FA5015ABF40F</title>
    <defs>
        <rect id="path-1" x="0" y="0" width="24" height="24"></rect>
        <filter id="filter-3">
            <feColorMatrix in="SourceGraphic" type="matrix" values="0 0 0 0 1.000000 0 0 0 0 0.999619 0 0 0 0 0.999619 0 0 0 1.000000 0"></feColorMatrix>
        </filter>
    </defs>
    <g id="style" stroke="none" stroke-width="1" fill="none" fill-rule="evenodd">
        <g id="Menus-/-Desktop-/-Header" transform="translate(-1872.000000, -910.000000)">
            <g id="menu/desktop/main" transform="translate(0.000000, 894.000000)">
                <polygon id="bg" fill="none" points="0 56 1920 56 1920 0 0 0"></polygon>
                <g id="icon/menu/main/cart_24px" transform="translate(1872.000000, 16.000000)">
                    <mask id="mask-2" fill="white">
                        <use xlink:href="#path-1"></use>
                    </mask>
                    <g id="Background/Mask"></g>
                    <g filter="url(#filter-3)" id="cart2">
                        <g mask="url(#mask-2)">
                            <g transform="translate(3.000000, 4.000000)" fill="#495057" fill-rule="nonzero" id="Shape">
                                <path d="M0,0.6 C0,0.26862915 0.26862915,0 0.6,0 L2.4,0 C2.67538228,0 2.9153575,0.187603101 2.982,0.4548 L3.468,2.4 L17.4,2.4 C17.5846739,2.40005101 17.7590359,2.48514211 17.8727066,2.63068744 C17.9863773,2.77623277 18.0266911,2.96601526 17.982,3.1452 L16.182,10.3452 C16.1153575,10.6123969 15.8753823,10.8 15.6,10.8 L4.8,10.8 C4.52461772,10.8 4.2846425,10.6123969 4.218,10.3452 L1.932,1.2 L0.6,1.2 C0.26862915,1.2 0,0.93137085 0,0.6 Z M3.768,3.6 L5.268,9.6 L15.132,9.6 L16.632,3.6 L3.768,3.6 Z M6,13.2 C5.3372583,13.2 4.8,13.7372583 4.8,14.4 C4.8,15.0627417 5.3372583,15.6 6,15.6 C6.6627417,15.6 7.2,15.0627417 7.2,14.4 C7.2,13.7372583 6.6627417,13.2 6,13.2 Z M3.6,14.4 C3.6,13.0745166 4.6745166,12 6,12 C7.3254834,12 8.4,13.0745166 8.4,14.4 C8.4,15.7254834 7.3254834,16.8 6,16.8 C4.6745166,16.8 3.6,15.7254834 3.6,14.4 Z M14.4,13.2 C13.7372583,13.2 13.2,13.7372583 13.2,14.4 C13.2,15.0627417 13.7372583,15.6 14.4,15.6 C15.0627417,15.6 15.6,15.0627417 15.6,14.4 C15.6,13.7372583 15.0627417,13.2 14.4,13.2 Z M12,14.4 C12,13.0745166 13.0745166,12 14.4,12 C15.7254834,12 16.8,13.0745166 16.8,14.4 C16.8,15.7254834 15.7254834,16.8 14.4,16.8 C13.0745166,16.8 12,15.7254834 12,14.4 Z"></path>
                            </g>
                        </g>
                    </g>
                </g>
            </g>
        </g>
    </g>
</svg>
