<?xml version="1.0" encoding="UTF-8"?>
<svg width="24px" height="24px" viewBox="0 0 24 24" version="1.1" xmlns="http://www.w3.org/2000/svg" xmlns:xlink="http://www.w3.org/1999/xlink">
    <title>icon/course/content/clock_24px</title>
    <defs>
        <rect id="path-1" x="0" y="0" width="24" height="24"></rect>
        <filter id="filter-3">
            <feColorMatrix in="SourceGraphic" type="matrix" values="0 0 0 0 0.286275 0 0 0 0 0.313725 0 0 0 0 0.341176 0 0 0 1.000000 0"></feColorMatrix>
        </filter>
    </defs>
    <g id="icon/course/content/clock_24px" stroke="none" stroke-width="1" fill="none" fill-rule="evenodd">
        <mask id="mask-2" fill="white">
            <use xlink:href="#path-1"></use>
        </mask>
        <g id="Background/Mask"></g>
        <g filter="url(#filter-3)" id="clock">
            <g mask="url(#mask-2)">
                <g transform="translate(3.000000, 3.000000)" fill="#495057" fill-rule="nonzero">
                    <path d="M9,3.9375 C9,3.62683983 8.74816017,3.375 8.4375,3.375 C8.12683983,3.375 7.875,3.62683983 7.875,3.9375 L7.875,10.125 C7.8750651,10.3268243 7.9832514,10.5131452 8.1585,10.61325 L12.096,12.86325 C12.3647379,13.0084887 12.7002719,12.9126997 12.8518294,12.647474 C13.003387,12.3822483 12.9155649,12.0445415 12.654,11.88675 L9,9.79875 L9,3.9375 Z" id="Path"></path>
                    <path d="M9,18 C13.9705627,18 18,13.9705627 18,9 C18,4.02943725 13.9705627,0 9,0 C4.02943725,0 0,4.02943725 0,9 C0,13.9705627 4.02943725,18 9,18 Z M16.875,9 C16.875,13.3492424 13.3492424,16.875 9,16.875 C4.6507576,16.875 1.125,13.3492424 1.125,9 C1.125,4.6507576 4.6507576,1.125 9,1.125 C13.3492424,1.125 16.875,4.6507576 16.875,9 Z" id="Shape"></path>
                </g>
            </g>
        </g>
    </g>
</svg>