<?xml version="1.0" encoding="UTF-8"?>
<svg width="90px" height="90px" viewBox="0 0 90 90" version="1.1" xmlns="http://www.w3.org/2000/svg" xmlns:xlink="http://www.w3.org/1999/xlink">
    <title>8814CDB3-0DF5-4363-A78A-33C0F7720AEC</title>
    <defs>
        <filter color-interpolation-filters="auto" id="filter-1">
            <feColorMatrix in="SourceGraphic" type="matrix" values="0 0 0 0 0.000000 0 0 0 0 0.588235 0 0 0 0 0.843137 0 0 0 1.000000 0"></feColorMatrix>
        </filter>
    </defs>
    <g id="public-pages" stroke="none" stroke-width="1" fill="none" fill-rule="evenodd">
        <g id="Course-Search---Courses---No-Results" transform="translate(-1083.000000, -351.000000)">
            <g id="No-Results" transform="translate(808.000000, 336.000000)">
                <g id="columns-gap" transform="translate(260.000000, 0.000000)" filter="url(#filter-1)">
                    <g transform="translate(15.000000, 15.000000)">
                        <path d="M33.75,5.625 L33.75,22.5 L5.625,22.5 L5.625,5.625 L33.75,5.625 Z M5.625,0 C2.51839828,0 0,2.51839828 0,5.625 L0,22.5 C0,25.6066017 2.51839828,28.125 5.625,28.125 L33.75,28.125 C36.8566017,28.125 39.375,25.6066017 39.375,22.5 L39.375,5.625 C39.375,2.51839828 36.8566017,0 33.75,0 L5.625,0 Z M84.375,67.5 L84.375,84.375 L56.25,84.375 L56.25,67.5 L84.375,67.5 Z M56.25,61.875 C53.1433983,61.875 50.625,64.3933983 50.625,67.5 L50.625,84.375 C50.625,87.4816017 53.1433983,90 56.25,90 L84.375,90 C87.4816017,90 90,87.4816017 90,84.375 L90,67.5 C90,64.3933983 87.4816017,61.875 84.375,61.875 L56.25,61.875 Z M33.75,45 L33.75,84.375 L5.625,84.375 L5.625,45 L33.75,45 Z M5.625,39.375 C2.51839828,39.375 0,41.8933983 0,45 L0,84.375 C0,87.4816017 2.51839828,90 5.625,90 L33.75,90 C36.8566017,90 39.375,87.4816017 39.375,84.375 L39.375,45 C39.375,41.8933983 36.8566017,39.375 33.75,39.375 L5.625,39.375 Z M84.375,5.625 L84.375,45 L56.25,45 L56.25,5.625 L84.375,5.625 Z M56.25,0 C53.1433983,0 50.625,2.51839828 50.625,5.625 L50.625,45 C50.625,48.1066017 53.1433983,50.625 56.25,50.625 L84.375,50.625 C87.4816017,50.625 90,48.1066017 90,45 L90,5.625 C90,2.51839828 87.4816017,0 84.375,0 L56.25,0 Z" id="Shape" fill="#495057" fill-rule="nonzero"></path>
                    </g>
                </g>
            </g>
        </g>
    </g>
</svg>