<?xml version="1.0" encoding="UTF-8"?>
<svg width="24px" height="24px" viewBox="0 0 24 24" version="1.1" xmlns="http://www.w3.org/2000/svg" xmlns:xlink="http://www.w3.org/1999/xlink">
    <title>04B9073A-27CA-49D9-AE95-E107106A013D</title>
    <defs>
        <rect id="path-1" x="0" y="0" width="24" height="24"></rect>
        <filter color-interpolation-filters="auto" id="filter-3">
            <feColorMatrix in="SourceGraphic" type="matrix" values="0 0 0 0 1.000000 0 0 0 0 0.999619 0 0 0 0 0.999619 0 0 0 1.000000 0"></feColorMatrix>
        </filter>
    </defs>
    <g id="course-pages" stroke="none" stroke-width="1" fill="none" fill-rule="evenodd">
        <g id="Course---Main" transform="translate(-642.000000, -184.000000)">
            <g id="course/menu/main" transform="translate(0.000000, 176.000000)">
                <polygon id="bg" fill="none" points="0 40 1920 40 1920 0 0 0"></polygon>
                <g id="Menu" transform="translate(323.000000, 8.000000)">
                    <g id="icon/course/discussions_24px" transform="translate(319.000000, 0.000000)">
                        <mask id="mask-2" fill="white">
                            <use xlink:href="#path-1"></use>
                        </mask>
                        <g id="Background/Mask"></g>
                        <g filter="url(#filter-3)" id="card-text">
                            <g mask="url(#mask-2)">
                                <g transform="translate(3.000000, 5.000000)" fill="#495057" fill-rule="nonzero" id="Shape">
                                    <path d="M16.3125,1.125 C16.6231602,1.125 16.875,1.37683983 16.875,1.6875 L16.875,11.8125 C16.875,12.1231602 16.6231602,12.375 16.3125,12.375 L1.6875,12.375 C1.37683983,12.375 1.125,12.1231602 1.125,11.8125 L1.125,1.6875 C1.125,1.37683983 1.37683983,1.125 1.6875,1.125 L16.3125,1.125 Z M1.6875,0 C0.755519485,0 0,0.755519485 0,1.6875 L0,11.8125 C0,12.7444805 0.755519485,13.5 1.6875,13.5 L16.3125,13.5 C17.2444805,13.5 18,12.7444805 18,11.8125 L18,1.6875 C18,0.755519485 17.2444805,0 16.3125,0 L1.6875,0 Z"></path>
                                    <path d="M3.375,3.9375 C3.375,3.62683983 3.62683983,3.375 3.9375,3.375 L14.0625,3.375 C14.3731602,3.375 14.625,3.62683983 14.625,3.9375 C14.625,4.24816017 14.3731602,4.5 14.0625,4.5 L3.9375,4.5 C3.62683983,4.5 3.375,4.24816017 3.375,3.9375 Z M3.375,6.75 C3.375,6.43933983 3.62683983,6.1875 3.9375,6.1875 L14.0625,6.1875 C14.3731602,6.1875 14.625,6.43933983 14.625,6.75 C14.625,7.06066017 14.3731602,7.3125 14.0625,7.3125 L3.9375,7.3125 C3.62683983,7.3125 3.375,7.06066017 3.375,6.75 Z M3.375,9.5625 C3.375,9.25183983 3.62683983,9 3.9375,9 L10.6875,9 C10.9981602,9 11.25,9.25183983 11.25,9.5625 C11.25,9.87316017 10.9981602,10.125 10.6875,10.125 L3.9375,10.125 C3.62683983,10.125 3.375,9.87316017 3.375,9.5625 Z"></path>
                                </g>
                            </g>
                        </g>
                    </g>
                </g>
            </g>
        </g>
    </g>
</svg>
