<?xml version="1.0" encoding="UTF-8"?>
<svg width="24px" height="24px" viewBox="0 0 24 24" version="1.1" xmlns="http://www.w3.org/2000/svg" xmlns:xlink="http://www.w3.org/1999/xlink">
    <title>0DE57D41-EAB1-474B-821D-0560CA22D411</title>
    <defs>
        <rect id="path-1" x="0" y="0" width="24" height="24"></rect>
        <path d="M15.4545455,3 L5.63636364,3 C4.73636364,3 4,3.73636364 4,4.63636364 L4,16.0909091 L5.63636364,16.0909091 L5.63636364,4.63636364 L15.4545455,4.63636364 L15.4545455,3 Z M17.9090909,6.27272727 L8.90909091,6.27272727 C8.00909091,6.27272727 7.27272727,7.00909091 7.27272727,7.90909091 L7.27272727,19.3636364 C7.27272727,20.2636364 8.00909091,21 8.90909091,21 L17.9090909,21 C18.8090909,21 19.5454545,20.2636364 19.5454545,19.3636364 L19.5454545,7.90909091 C19.5454545,7.00909091 18.8090909,6.27272727 17.9090909,6.27272727 Z M17.9090909,19.3636364 L8.90909091,19.3636364 L8.90909091,7.90909091 L17.9090909,7.90909091 L17.9090909,19.3636364 Z" id="path-3"></path>
    </defs>
    <g id="user-account-pages" stroke="none" stroke-width="1" fill="none" fill-rule="evenodd">
        <g id="Settings----Edit-Profile" transform="translate(-312.000000, -552.000000)">
            <rect id="bg" fill="#F6F6F7" x="0" y="56" width="1920" height="2573"></rect>
            <g id="menu/desktop/acount/settings" transform="translate(304.000000, 208.000000)">
                <g id="icon/action/settings" transform="translate(8.000000, 344.000000)">
                    <mask id="mask-2" fill="white">
                        <use xlink:href="#path-1"></use>
                    </mask>
                    <g id="Background/Mask"></g>
                    <mask id="mask-4" fill="white">
                        <use xlink:href="#path-3"></use>
                    </mask>
                    <use id="-↳Color" fill="#0096D7" xlink:href="#path-3"></use>
                </g>
            </g>
        </g>
    </g>
</svg>