<?xml version="1.0" encoding="UTF-8"?>
<svg width="24px" height="24px" viewBox="0 0 24 24" version="1.1" xmlns="http://www.w3.org/2000/svg" xmlns:xlink="http://www.w3.org/1999/xlink">
    <title>icon/course/forum/edit_24px</title>
    <defs>
        <rect id="path-1" x="0" y="0" width="24" height="24"></rect>
        <filter id="filter-3">
            <feColorMatrix in="SourceGraphic" type="matrix" values="0 0 0 0 0.286275 0 0 0 0 0.313725 0 0 0 0 0.341176 0 0 0 1.000000 0"></feColorMatrix>
        </filter>
    </defs>
    <g id="icon/course/forum/edit_24px" stroke="none" stroke-width="1" fill="none" fill-rule="evenodd">
        <mask id="mask-2" fill="white">
            <use xlink:href="#path-1"></use>
        </mask>
        <g id="Background/Mask"></g>
        <g filter="url(#filter-3)" id="filter-left">
            <g mask="url(#mask-2)">
                <g transform="translate(3.000000, 7.000000)" fill="#495057" fill-rule="nonzero" id="Shape">
                    <path d="M0,9.75 C0,9.33578644 0.335786438,9 0.75,9 L5.25,9 C5.66421356,9 6,9.33578644 6,9.75 C6,10.1642136 5.66421356,10.5 5.25,10.5 L0.75,10.5 C0.335786438,10.5 0,10.1642136 0,9.75 Z M0,5.25 C0,4.83578644 0.335786438,4.5 0.75,4.5 L11.25,4.5 C11.6642136,4.5 12,4.83578644 12,5.25 C12,5.66421356 11.6642136,6 11.25,6 L0.75,6 C0.335786438,6 0,5.66421356 0,5.25 Z M0,0.75 C0,0.335786438 0.335786438,0 0.75,0 L17.25,0 C17.6642136,0 18,0.335786438 18,0.75 C18,1.16421356 17.6642136,1.5 17.25,1.5 L0.75,1.5 C0.335786438,1.5 0,1.16421356 0,0.75 Z"></path>
                </g>
            </g>
        </g>
    </g>
</svg>