<?xml version="1.0" encoding="UTF-8"?>
<svg width="24px" height="24px" viewBox="0 0 24 24" version="1.1" xmlns="http://www.w3.org/2000/svg" xmlns:xlink="http://www.w3.org/1999/xlink">
    <title>55DE1619-D97E-4DFA-938F-D90AB08F2D91</title>
    <defs>
        <rect id="path-1" x="0" y="0" width="24" height="24"></rect>
    </defs>
    <g id="symbols" stroke="none" stroke-width="1" fill="none" fill-rule="evenodd">
        <g id="menu/desktop/footer/default" transform="translate(-311.000000, -401.000000)">
            <rect id="bg" fill="none" x="0.035" y="184" width="1920" height="456"></rect>
            <g id="Block---Links" transform="translate(311.000000, 225.000000)">
                <g id="brand-/-facebook" transform="translate(0.000000, 176.000000)">
                    <mask id="mask-2" fill="white">
                        <use xlink:href="#path-1"></use>
                    </mask>
                    <g id="Background/Mask"></g>
                    <path d="M2.00195312,12.0009537 C2.00195312,16.9909534 5.65795326,21.1269515 10.4389534,21.8799515 L10.4389534,14.8919535 L7.89895344,14.8919535 L7.89895344,12.0009537 L10.4389534,12.0009537 L10.4389534,9.79795361 C10.4389534,7.28995371 11.9319534,5.9069531 14.2149534,5.9069531 C14.9442867,5.9069531 15.6909533,5.97195323 16.4549532,6.10195351 L16.4549532,8.56095314 L15.1909533,8.56095314 C13.9509532,8.56095314 13.562953,9.33295286 13.562953,10.1239529 L13.562953,11.9989529 L16.3339529,11.9989529 L15.8909531,14.8899536 L13.562953,14.8899536 L13.562953,21.8779526 C18.3439531,21.1289526 21.9999523,16.9919538 21.9999523,12.0009537 C21.9999523,6.47895384 17.5229535,2.00195312 12.0009537,2.00195312 C6.47895384,2.00195312 2.00195312,6.47895384 2.00195312,12.0009537 Z" fill="#495057" mask="url(#mask-2)"></path>
                </g>
            </g>
        </g>
    </g>
</svg>
