<?xml version="1.0" encoding="UTF-8"?>
<svg width="24px" height="24px" viewBox="0 0 24 24" version="1.1" xmlns="http://www.w3.org/2000/svg" xmlns:xlink="http://www.w3.org/1999/xlink">
    <title>icon/course/forum/flag_24px</title>
    <defs>
        <rect id="path-1" x="0" y="0" width="24" height="24"></rect>
        <filter id="filter-3">
            <feColorMatrix in="SourceGraphic" type="matrix" values="0 0 0 0 0.286275 0 0 0 0 0.313725 0 0 0 0 0.341176 0 0 0 1.000000 0"></feColorMatrix>
        </filter>
    </defs>
    <g id="icon/course/forum/flag_24px" stroke="none" stroke-width="1" fill="none" fill-rule="evenodd">
        <mask id="mask-2" fill="white">
            <use xlink:href="#path-1"></use>
        </mask>
        <g id="Background/Mask"></g>
        <g filter="url(#filter-3)" id="flag">
            <g mask="url(#mask-2)">
                <g transform="translate(5.000000, 3.000000)" fill="#495057" fill-rule="nonzero" id="Shape">
                    <path d="M14.37525,0.095625 C14.531119,0.19988973 14.6247782,0.374973402 14.625,0.5625 L14.625,9 C14.625,9.22982646 14.4850825,9.43650456 14.27175,9.522 L14.0625,9 L14.27175,9.522 L14.268375,9.523125 L14.261625,9.5265 L14.23575,9.536625 C14.0878458,9.59541156 13.9389491,9.65166975 13.789125,9.705375 C13.492125,9.81225 13.07925,9.95625 12.61125,10.099125 C11.69325,10.382625 10.497375,10.6875 9.5625,10.6875 C8.609625,10.6875 7.821,10.3725 7.13475,10.096875 L7.10325,10.085625 C6.39,9.79875 5.7825,9.5625 5.0625,9.5625 C4.275,9.5625 3.21975,9.82125 2.320875,10.099125 C1.91841174,10.2245556 1.51962326,10.3614867 1.125,10.50975 L1.125,17.4375 C1.125,17.7481602 0.873160172,18 0.5625,18 C0.251839828,18 9.99200722e-16,17.7481602 9.99200722e-16,17.4375 L9.99200722e-16,0.5625 C9.99200722e-16,0.251839828 0.251839828,0 0.5625,0 C0.873160172,0 1.125,0.251839828 1.125,0.5625 L1.125,0.87975 C1.37925,0.790875 1.683,0.6885 2.01375,0.58725 C2.93175,0.306 4.12875,0 5.0625,0 C6.0075,0 6.777,0.311625 7.448625,0.583875 L7.497,0.604125 C8.19675,0.8865 8.8065,1.125 9.5625,1.125 C10.35,1.125 11.40525,0.86625 12.304125,0.588375 C12.8163517,0.428413739 13.3225642,0.249794645 13.82175,0.052875 L13.843125,0.045 L13.847625,0.04275 L13.84875,0.04275 M13.5,1.373625 C13.2525,1.461375 12.96,1.5615 12.63825,1.6605 C11.727,1.944 10.53225,2.248875 9.5625,2.248875 C8.56575,2.248875 7.7715,1.927125 7.084125,1.648125 L7.075125,1.64475 C6.36975,1.36125 5.781375,1.125 5.0625,1.125 C4.309875,1.125 3.25575,1.382625 2.345625,1.66275 C1.93512156,1.78940538 1.52809936,1.92708017 1.125,2.075625 L1.125,9.31275 C1.3725,9.225 1.665,9.124875 1.98675,9.025875 C2.898,8.74125 4.09275,8.4375 5.0625,8.4375 C6.015375,8.4375 6.804,8.7525 7.49025,9.028125 L7.52175,9.039375 C8.235,9.32625 8.8425,9.5625 9.5625,9.5625 C10.314,9.5625 11.36925,9.304875 12.279375,9.02475 C12.6898746,8.89808276 13.0968965,8.76040807 13.5,8.611875 L13.5,1.37475 L13.5,1.373625 Z"></path>
                </g>
            </g>
        </g>
    </g>
</svg>