<?xml version="1.0" encoding="UTF-8"?>
<svg width="32px" height="32px" viewBox="0 0 32 32" version="1.1" xmlns="http://www.w3.org/2000/svg" xmlns:xlink="http://www.w3.org/1999/xlink">
    <title>FB846006-0803-4198-9E98-28D623700C1A</title>
    <defs>
        <rect id="path-1" x="0" y="0" width="32" height="32"></rect>
    </defs>
    <g id="user-account-pages" stroke="none" stroke-width="1" fill="none" fill-rule="evenodd">
        <g id="Settings---Profile---My-Profile" transform="translate(-824.000000, -440.000000)">
            <rect id="bg" fill="none" x="0" y="56" width="1920" height="1362"></rect>
            <g id="user_profile" transform="translate(304.000000, 208.000000)">
                <rect id="bg_profile" fill="none" x="0" y="0" width="1312" height="848"></rect>
                <g id="Social-Media-Links" transform="translate(376.000000, 232.000000)">
                    <g id="icon/social-media/facebook_24px" transform="translate(144.000000, 0.000000)">
                        <mask id="mask-2" fill="white">
                            <use xlink:href="#path-1"></use>
                        </mask>
                        <g id="Background/Mask"></g>
                        <path d="M16,2.66666667 C12.3816667,2.66666667 11.9266667,2.68333333 10.505,2.74666667 C9.08333333,2.81333333 8.115,3.03666667 7.26666667,3.36666667 C6.37682328,3.70136517 5.57081918,4.22637701 4.905,4.905 C4.22679358,5.57116019 3.70184546,6.37706646 3.36666667,7.26666667 C3.03666667,8.11333333 2.81166667,9.08333333 2.74666667,10.5 C2.68333333,11.925 2.66666667,12.3783333 2.66666667,16.0016667 C2.66666667,19.6216667 2.68333333,20.075 2.74666667,21.4966667 C2.81333333,22.9166667 3.03666667,23.885 3.36666667,24.7333333 C3.70833333,25.61 4.16333333,26.3533333 4.905,27.095 C5.645,27.8366667 6.38833333,28.2933333 7.265,28.6333333 C8.115,28.9633333 9.08166667,29.1883333 10.5016667,29.2533333 C11.925,29.3166667 12.3783333,29.3333333 16,29.3333333 C19.6216667,29.3333333 20.0733333,29.3166667 21.4966667,29.2533333 C22.915,29.1866667 23.8866667,28.9633333 24.735,28.6333333 C25.6242715,28.2984682 26.4296976,27.7734624 27.095,27.095 C27.8366667,26.3533333 28.2916667,25.61 28.6333333,24.7333333 C28.9616667,23.885 29.1866667,22.9166667 29.2533333,21.4966667 C29.3166667,20.075 29.3333333,19.6216667 29.3333333,16 C29.3333333,12.3783333 29.3166667,11.925 29.2533333,10.5016667 C29.1866667,9.08333333 28.9616667,8.11333333 28.6333333,7.26666667 C28.2982025,6.37704219 27.773248,5.57112618 27.095,4.905 C26.4293864,4.22612605 25.6233232,3.70107573 24.7333333,3.36666667 C23.8833333,3.03666667 22.9133333,2.81166667 21.495,2.74666667 C20.0716667,2.68333333 19.62,2.66666667 15.9966667,2.66666667 L16.0016667,2.66666667 L16,2.66666667 Z M14.805,5.07 L16.0016667,5.07 C19.5616667,5.07 19.9833333,5.08166667 21.3883333,5.14666667 C22.6883333,5.205 23.395,5.42333333 23.865,5.605 C24.4866667,5.84666667 24.9316667,6.13666667 25.3983333,6.60333333 C25.865,7.07 26.1533333,7.51333333 26.395,8.13666667 C26.5783333,8.605 26.795,9.31166667 26.8533333,10.6116667 C26.9183333,12.0166667 26.9316667,12.4383333 26.9316667,15.9966667 C26.9316667,19.555 26.9183333,19.9783333 26.8533333,21.3833333 C26.795,22.6833333 26.5766667,23.3883333 26.395,23.8583333 C26.1812364,24.4372657 25.8400451,24.9607295 25.3966667,25.39 C24.93,25.8566667 24.4866667,26.145 23.8633333,26.3866667 C23.3966667,26.57 22.69,26.7866667 21.3883333,26.8466667 C19.9833333,26.91 19.5616667,26.925 16.0016667,26.925 C12.4416667,26.925 12.0183333,26.91 10.6133333,26.8466667 C9.31333333,26.7866667 8.60833333,26.57 8.13833333,26.3866667 C7.55916511,26.1732019 7.03521012,25.8326311 6.605,25.39 C6.16125134,24.9600558 5.81953835,24.4360959 5.605,23.8566667 C5.42333333,23.3883333 5.205,22.6816667 5.14666667,21.3816667 C5.08333333,19.9766667 5.07,19.555 5.07,15.9933333 C5.07,12.4333333 5.08333333,12.0133333 5.14666667,10.6083333 C5.20666667,9.30833333 5.42333333,8.60166667 5.60666667,8.13166667 C5.84833333,7.51 6.13833333,7.065 6.605,6.59833333 C7.07166667,6.13166667 7.515,5.84333333 8.13833333,5.60166667 C8.60833333,5.41833333 9.31333333,5.20166667 10.6133333,5.14166667 C11.8433333,5.085 12.32,5.06833333 14.805,5.06666667 L14.805,5.07 L14.805,5.07 Z M23.1183333,7.28333333 C22.5467084,7.28333333 22.0185051,7.58829159 21.7326926,8.08333332 C21.4468802,8.57837505 21.4468802,9.18829162 21.7326926,9.68333335 C22.0185051,10.1783751 22.5467084,10.4833333 23.1183333,10.4833333 C24.0019889,10.4833333 24.7183333,9.76698892 24.7183333,8.88333333 C24.7183333,7.99967775 24.0019889,7.28333333 23.1183333,7.28333333 L23.1183333,7.28333333 Z M16.0016667,9.15333333 C13.5298297,9.11476851 11.229075,10.4113945 9.98188973,12.545872 C8.73470446,14.6803494 8.73470446,17.3213173 9.98188973,19.4557947 C11.229075,21.5902722 13.5298297,22.8868982 16.0016667,22.8483333 C19.7417862,22.7899812 22.7431674,19.7414081 22.7431674,16.0008333 C22.7431674,12.2602586 19.7417862,9.21168551 16.0016667,9.15333333 Z M16.0016667,11.555 C18.4565724,11.555 20.4466667,13.5450943 20.4466667,16 C20.4466667,18.4549057 18.4565724,20.445 16.0016667,20.445 C13.546761,20.445 11.5566667,18.4549057 11.5566667,16 C11.5566667,13.5450943 13.546761,11.555 16.0016667,11.555 Z" id="brand-/-instagram" fill="#666666" mask="url(#mask-2)"></path>
                    </g>
                </g>
            </g>
        </g>
    </g>
</svg>
