<?xml version="1.0" encoding="UTF-8"?>
<svg width="32px" height="32px" viewBox="0 0 32 32" version="1.1" xmlns="http://www.w3.org/2000/svg" xmlns:xlink="http://www.w3.org/1999/xlink">
    <title>EE45B510-73E8-4C40-B33F-1C6EA12BFC99</title>
    <defs>
        <rect id="path-1" x="0" y="0" width="32" height="32"></rect>
    </defs>
    <g id="course-pages" stroke="none" stroke-width="1" fill="none" fill-rule="evenodd">
        <g id="Course---Main" transform="translate(-316.000000, -426.000000)">
            <polygon id="bg" fill="none" points="0 6872 1920 6872 1920 216 0 216"></polygon>
            <g id="course/navi/sidebar" transform="translate(304.000000, 360.000000)">
                <g id="Menu-0.1" transform="translate(0.000000, 52.000000)">
                    <polygon id="Background---Menu-Item" fill="none" points="0 64 416 64 416 0 0 0"></polygon>
                    <polygon id="bg_icon" fill="none" points="0 64 56 64 56 0 0 0"></polygon>
                    <g id="icon/course/lightbulb_24px" transform="translate(12.000000, 14.000000)">
                        <mask id="mask-2" fill="white">
                            <use xlink:href="#path-1"></use>
                        </mask>
                        <g id="Background/Mask"></g>
                        <path d="M14.1307183,20.5673578 C15.2292658,20.6736107 16.3359174,20.6691085 17.434465,20.5646564 C18.4888905,18.3099326 20.2690779,17.7282427 20.2790183,14.5703687 C20.2996931,8.13035872 11.2645897,8.13215962 11.2861618,14.5703687 C11.2961054,17.7282427 13.0771932,18.3117335 14.1307183,20.5673578 L14.1307183,20.5673578 Z M12.6791948,22.0260849 C12.9295196,22.8788099 12.7746424,24.6418887 12.7746424,25.621577 C12.7746424,26.0060686 13.1807448,26.2906105 13.7822446,26.4761029 C14.6709876,28.5084159 16.896897,28.5075154 17.7820382,26.4761029 C18.383538,26.2906105 18.7905409,26.0060686 18.7905409,25.621577 C18.7905409,24.6382869 18.6356637,22.8833121 18.8859885,22.0260849 C19.677483,19.3283402 22.1384096,18.804279 22.1519591,14.5757714 C22.1789298,5.67843659 9.38535301,5.67933704 9.41322131,14.5766718 C9.42677365,18.8033785 11.883198,19.323838 12.6791948,22.0260849 L12.6791948,22.0260849 Z M6.03028072,15.1043348 C5.10101754,15.1043348 5.10101754,13.7932813 6.03028072,13.7932813 L7.82577566,13.7932813 C8.75503884,13.7932813 8.75503884,15.1043348 7.82577566,15.1043348 L6.03028072,15.1043348 Z M7.00906858,10.1401605 L8.56324324,11.0370075 C9.36824448,11.5025395 10.0237712,10.3670736 9.21876998,9.90244199 L7.66459532,9.00469452 C6.85959408,8.54096338 6.20406734,9.67552889 7.00906858,10.1401605 L7.00906858,10.1401605 Z M10.3389283,6.33036154 C9.87429672,5.5253603 11.0088622,4.87073401 11.4734938,5.6748348 L12.3712413,7.22900946 C12.8367733,8.03491115 11.7013074,8.69043789 11.2366758,7.88543664 L10.3389283,6.33036154 Z M25.5340021,13.7932813 C26.4641657,13.7932813 26.4641657,15.1043348 25.5340021,15.1043348 L23.7394076,15.1043348 C22.8101444,15.1043348 22.8101444,13.7932813 23.7394076,13.7932813 L25.5340021,13.7932813 Z M23.9005879,9.00469452 L22.3455128,9.90244199 C21.5405116,10.3670736 22.1960383,11.5025395 23.00194,11.0370075 L24.5561147,10.1401605 C25.3611159,9.67552889 24.7055892,8.54096338 23.9005879,9.00469452 L23.9005879,9.00469452 Z M20.0916894,5.6748348 C20.5554206,4.87073401 21.6908865,5.5253603 21.2253545,6.33036154 L20.3285075,7.88543664 C19.8638759,8.69043789 18.7284099,8.03491115 19.193942,7.22900946 L20.0916894,5.6748348 Z M15.1266147,4.69694738 C15.1266147,3.76768421 16.4385686,3.76768421 16.4385686,4.69694738 L16.4385686,6.49154188 C16.4385686,7.42080505 15.1266147,7.42080505 15.1266147,6.49154188 L15.1266147,4.69694738 Z" id="Color" fill="#FFFFFF" mask="url(#mask-2)"></path>
                    </g>
                </g>
            </g>
        </g>
    </g>
</svg>
