<?xml version="1.0" encoding="UTF-8"?>
<svg width="24px" height="24px" viewBox="0 0 24 24" version="1.1" xmlns="http://www.w3.org/2000/svg" xmlns:xlink="http://www.w3.org/1999/xlink">
    <title>B692AD4E-8042-4A94-BCCC-ED325407BE90</title>
    <defs>
        <path d="M4,224 L860,224 C862.209139,224 864,222.209139 864,220 L864,4 C864,1.790861 862.209139,-4.05812251e-16 860,0 L4,0 C1.790861,4.05812251e-16 -2.705415e-16,1.790861 0,4 L0,220 C2.705415e-16,222.209139 1.790861,224 4,224 Z" id="path-1"></path>
        <filter x="-2.3%" y="-7.1%" width="104.6%" height="117.9%" filterUnits="objectBoundingBox" id="filter-2">
            <feOffset dx="0" dy="4" in="SourceAlpha" result="shadowOffsetOuter1"></feOffset>
            <feGaussianBlur stdDeviation="6" in="shadowOffsetOuter1" result="shadowBlurOuter1"></feGaussianBlur>
            <feComposite in="shadowBlurOuter1" in2="SourceAlpha" operator="out" result="shadowBlurOuter1"></feComposite>
            <feColorMatrix values="0 0 0 0 0.28627451   0 0 0 0 0.31372549   0 0 0 0 0.341176471  0 0 0 0.04 0" type="matrix" in="shadowBlurOuter1"></feColorMatrix>
        </filter>
        <rect id="path-3" x="0" y="0" width="24" height="24"></rect>
        <filter color-interpolation-filters="auto" id="filter-5">
            <feColorMatrix in="SourceGraphic" type="matrix" values="0 0 0 0 0.968627 0 0 0 0 0.580392 0 0 0 0 0.125490 0 0 0 1.000000 0"></feColorMatrix>
        </filter>
    </defs>
    <g id="course-pages" stroke="none" stroke-width="1" fill="none" fill-rule="evenodd">
        <g id="course-tab/quiz/results" transform="translate(-968.000000, -2200.000000)">
            <polygon id="bg" fill="none" points="0 2984 1920 2984 1920 216 0 216"></polygon>
            <g id="Area---Discussions" transform="translate(752.000000, 1953.000000)">
                <g id="course/discussion/post/default" transform="translate(0.000000, 55.000000)">
                    <g id="bg">
                        <use fill="black" fill-opacity="1" filter="url(#filter-2)" xlink:href="#path-1"></use>
                        <path stroke="#EBEBEB" stroke-width="0.5" d="M4,0.25 L860,0.25 C861.035534,0.25 861.973034,0.669733047 862.65165,1.34834957 C863.330267,2.02696609 863.75,2.96446609 863.75,4 L863.75,4 L863.75,220 C863.75,221.035534 863.330267,221.973034 862.65165,222.65165 C861.973034,223.330267 861.035534,223.75 860,223.75 L860,223.75 L4,223.75 C2.96446609,223.75 2.02696609,223.330267 1.34834957,222.65165 C0.669733047,221.973034 0.25,221.035534 0.25,220 L0.25,220 L0.25,4 C0.25,2.96446609 0.669733047,2.02696609 1.34834957,1.34834957 C2.02696609,0.669733047 2.96446609,0.25 4,0.25 L4,0.25 L4,0.25 Z" stroke-linejoin="square" fill="none" fill-rule="evenodd"></path>
                    </g>
                    <g id="Reply-Likes" transform="translate(112.000000, 192.000000)">
                        <g id="icon/course/forum/like_24px" transform="translate(104.000000, 0.000000)">
                            <mask id="mask-4" fill="white">
                                <use xlink:href="#path-3"></use>
                            </mask>
                            <g id="Background/Mask"></g>
                            <g filter="url(#filter-5)" id="heart">
                                <g mask="url(#mask-4)">
                                    <g transform="translate(3.000000, 4.000000)" fill="#495057" fill-rule="nonzero" id="Shape">
                                        <path d="M9,3.0915 L8.193375,2.262375 C6.3,0.316125 2.82825,0.98775 1.575,3.434625 C0.986625,4.5855 0.853875,6.247125 1.92825,8.36775 C2.96325,10.409625 5.1165,12.855375 9,15.519375 C12.8835,12.855375 15.035625,10.409625 16.07175,8.36775 C17.146125,6.246 17.0145,4.5855 16.425,3.434625 C15.17175,0.98775 11.7,0.315 9.806625,2.26125 L9,3.0915 Z M9,16.875 C-8.249625,5.4765 3.688875,-3.42 8.802,1.285875 C8.8695,1.34775 8.935875,1.411875 9,1.47825 C9.06347375,1.4119354 9.12952453,1.34813635 9.198,1.287 C14.31,-3.42225 26.249625,5.475375 9,16.875 Z"></path>
                                    </g>
                                </g>
                            </g>
                        </g>
                    </g>
                </g>
            </g>
        </g>
    </g>
</svg>
