<?xml version="1.0" encoding="UTF-8"?>
<svg width="24px" height="24px" viewBox="0 0 24 24" version="1.1" xmlns="http://www.w3.org/2000/svg" xmlns:xlink="http://www.w3.org/1999/xlink">
    <title>icon/course/content/lock_24px</title>
    <defs>
        <rect id="path-1" x="0" y="0" width="24" height="24"></rect>
    </defs>
    <g id="icon/course/content/lock_24px" stroke="none" stroke-width="1" fill="none" fill-rule="evenodd">
        <mask id="mask-2" fill="white">
            <use xlink:href="#path-1"></use>
        </mask>
        <g id="Background/Mask"></g>
        <path d="M15,10 L8,10 L8,7.42841037 C8,6.48139797 8.34177215,5.67305524 9.02531646,5.00338219 C9.70886076,4.33483653 10.5339471,4 11.4994246,4 C12.4660529,4 13.2911392,4.33483653 13.9746835,5.00338219 C14.6582278,5.67305524 15,6.48139797 15,7.42841037 L15,10 Z M18.6350552,10.5405858 C18.3917586,10.3006575 18.0958574,10.1812313 17.7495434,10.1812313 L17.3330898,10.1812313 L17.3330898,7.72707711 C17.3330898,6.159474 16.7599182,4.81243276 15.6146709,3.6881052 C14.4683276,2.56270173 13.0984146,2 11.499452,2 C9.90268138,2 8.52948053,2.56270173 7.38532914,3.6881052 C6.2389859,4.81243276 5.66691021,6.159474 5.66691021,7.72707711 L5.66691021,10.1812313 L5.24936071,10.1812313 C4.90195076,10.1812313 4.60714547,10.3006575 4.36384891,10.5405858 C4.12164828,10.7783622 4,11.0688583 4,11.4099223 L4,18.7723849 C4,19.1134489 4.12164828,19.403945 4.36384891,19.6417215 C4.60714547,19.8816497 4.90195076,20 5.24936071,20 L17.7495434,20 C18.0958574,20 18.3917586,19.8816497 18.6350552,19.6417215 C18.8783517,19.403945 19,19.1134489 19,18.7723849 L19,11.4099223 C19,11.0688583 18.8783517,10.7783622 18.6350552,10.5405858 L18.6350552,10.5405858 Z" id="color" fill="#495057" mask="url(#mask-2)"></path>
    </g>
</svg>