<?xml version="1.0" encoding="UTF-8"?>
<svg width="16px" height="16px" viewBox="0 0 16 16" version="1.1" xmlns="http://www.w3.org/2000/svg" xmlns:xlink="http://www.w3.org/1999/xlink">
    <title>3CC475AC-07D0-4639-BFF4-3A1EBB7206F9</title>
    <defs>
        <path d="M0,0 L240,0 L240,316 C240,318.209139 238.209139,320 236,320 L4,320 C1.790861,320 2.705415e-16,318.209139 0,316 L0,0 L0,0 Z" id="path-1"></path>
        <filter x="-7.5%" y="-3.8%" width="115.0%" height="111.2%" filterUnits="objectBoundingBox" id="filter-2">
            <feOffset dx="0" dy="6" in="SourceAlpha" result="shadowOffsetOuter1"></feOffset>
            <feGaussianBlur stdDeviation="5" in="shadowOffsetOuter1" result="shadowBlurOuter1"></feGaussianBlur>
            <feComposite in="shadowBlurOuter1" in2="SourceAlpha" operator="out" result="shadowBlurOuter1"></feComposite>
            <feColorMatrix values="0 0 0 0 0.28627451   0 0 0 0 0.31372549   0 0 0 0 0.341176471  0 0 0 0.07 0" type="matrix" in="shadowBlurOuter1"></feColorMatrix>
        </filter>
        <rect id="path-3" x="0" y="0" width="16" height="16"></rect>
        <filter id="filter-5">
            <feColorMatrix in="SourceGraphic" type="matrix" values="0 0 0 0 0.286275 0 0 0 0 0.313725 0 0 0 0 0.341176 0 0 0 1.000000 0"></feColorMatrix>
        </filter>
    </defs>
    <g id="symbols" stroke="none" stroke-width="1" fill="none" fill-rule="evenodd">
        <g id="menu/desktop/main/user/drop_down" transform="translate(-16.000000, -144.000000)">
            <g id="bg">
                <use fill="none" fill-opacity="1" filter="url(#filter-2)" xlink:href="#path-1"></use>
                <path stroke="#EBEBEB" stroke-width="0.5" d="M239.75,0.25 L239.75,316 C239.75,317.035534 239.330267,317.973034 238.65165,318.65165 C237.973034,319.330267 237.035534,319.75 236,319.75 L236,319.75 L4,319.75 C2.96446609,319.75 2.02696609,319.330267 1.34834957,318.65165 C0.669733047,317.973034 0.25,317.035534 0.25,316 L0.25,316 L0.25,0.25 L239.75,0.25 Z" stroke-linejoin="square" fill="none" fill-rule="evenodd"></path>
            </g>
            <g id="icon/content/_24px" transform="translate(16.000000, 144.000000)">
                <mask id="mask-4" fill="white">
                    <use xlink:href="#path-3"></use>
                </mask>
                <g id="Background/Mask"></g>
                <g filter="url(#filter-5)" id="people">
                    <g mask="url(#mask-4)">
                        <g transform="translate(2.000000, 3.333333)" fill="#495057" fill-rule="nonzero" id="Shape">
                            <path d="M11.25,9 C11.25,9 12,9 12,8.25 C12,7.5 11.25,5.25 8.25,5.25 C5.25,5.25 4.5,7.5 4.5,8.25 C4.5,9 5.25,9 5.25,9 L11.25,9 Z M5.2665,8.25 C5.26095967,8.24923617 5.25545462,8.24823525 5.25,8.247 C5.25075,8.049 5.37525,7.4745 5.82,6.957 C6.234,6.47175 6.9615,6 8.25,6 C9.53775,6 10.26525,6.4725 10.68,6.957 C11.12475,7.4745 11.2485,8.04975 11.25,8.247 L11.244,8.2485 C11.2405135,8.24909026 11.2370123,8.24959042 11.2335,8.25 L5.2665,8.25 Z M8.25,3.75 C9.07842712,3.75 9.75,3.07842712 9.75,2.25 C9.75,1.42157288 9.07842712,0.75 8.25,0.75 C7.42157288,0.75 6.75,1.42157288 6.75,2.25 C6.75,3.07842712 7.42157288,3.75 8.25,3.75 Z M10.5,2.25 C10.5,3.05384759 10.0711524,3.7966334 9.37500001,4.1985572 C8.67884758,4.600481 7.82115242,4.600481 7.12499999,4.1985572 C6.42884756,3.7966334 6,3.05384759 6,2.25 C6,1.00735931 7.00735931,-8.32667268e-16 8.25,-8.32667268e-16 C9.49264069,-8.32667268e-16 10.5,1.00735931 10.5,2.25 L10.5,2.25 Z M5.202,5.46 C4.90198623,5.36552877 4.59272643,5.30342538 4.2795,5.27475 C4.10349901,5.25801381 3.92679477,5.24975426 3.75,5.24999467 C0.75,5.24999467 0,7.5 0,8.24999467 C0,8.75025 0.24975,9 0.75,9 L3.912,9 C3.80081632,8.76586146 3.74536768,8.50915479 3.75,8.24999467 C3.75,7.4925 4.03275,6.7185 4.5675,6.072 C4.74975,5.8515 4.962,5.64525 5.202,5.46 L5.202,5.46 Z M3.69,6 C3.24611549,6.66695383 3.00633006,7.44886281 3,8.25 L0.75,8.25 C0.75,8.055 0.873,7.4775 1.32,6.957 C1.72875,6.48 2.439,6.015 3.69,6.00075 L3.69,6 Z M1.125,2.625 C1.125,1.38235931 2.13235931,0.375 3.375,0.375 C4.61764069,0.375 5.625,1.38235931 5.625,2.625 C5.625,3.86764069 4.61764069,4.875 3.375,4.875 C2.13235931,4.875 1.125,3.86764069 1.125,2.625 Z M3.375,1.125 C2.54657288,1.125 1.875,1.79657288 1.875,2.625 C1.875,3.45342712 2.54657288,4.125 3.375,4.125 C4.20342712,4.125 4.875,3.45342712 4.875,2.625 C4.875,1.79657288 4.20342712,1.125 3.375,1.125 Z"></path>
                        </g>
                    </g>
                </g>
            </g>
        </g>
    </g>
</svg>
