<?xml version="1.0" encoding="UTF-8"?>
<svg width="24px" height="24px" viewBox="0 0 24 24" version="1.1" xmlns="http://www.w3.org/2000/svg" xmlns:xlink="http://www.w3.org/1999/xlink">
    <title>249BAC9B-7682-4EF2-8495-E8F77F38A44F</title>
    <defs>
        <rect id="path-1" x="0" y="0" width="24" height="24"></rect>
        <path d="M12,22 C13.1,22 14,21.1 14,20 L10,20 C10,21.1 10.9,22 12,22 Z M18,16 L18,11 C18,7.93 16.37,5.36 13.5,4.68 L13.5,4 C13.5,3.17 12.83,2.5 12,2.5 C11.17,2.5 10.5,3.17 10.5,4 L10.5,4.68 C7.64,5.36 6,7.92 6,11 L6,16 L4,18 L4,19 L20,19 L20,18 L18,16 Z M16,17 L8,17 L8,11 C8,8.52 9.51,6.5 12,6.5 C14.49,6.5 16,8.52 16,11 L16,17 Z" id="path-3"></path>
    </defs>
    <g id="user-account-pages" stroke="none" stroke-width="1" fill="none" fill-rule="evenodd">
        <g id="Settings----Edit-Profile" transform="translate(-312.000000, -408.000000)">
            <rect id="bg" fill="none" x="0" y="56" width="1920" height="2573"></rect>
            <g id="menu/desktop/acount/settings" transform="translate(304.000000, 208.000000)">
                <g id="icon/action/settings" transform="translate(8.000000, 200.000000)">
                    <mask id="mask-2" fill="none">
                        <use xlink:href="#path-1"></use>
                    </mask>
                    <g id="Background/Mask"></g>
                    <mask id="mask-4" fill="none">
                        <use xlink:href="#path-3"></use>
                    </mask>
                    <use id="-↳Color" fill="#495057" xlink:href="#path-3"></use>
                </g>
            </g>
        </g>
    </g>
</svg>
