<?xml version="1.0" encoding="UTF-8"?>
<svg width="24px" height="24px" viewBox="0 0 24 24" version="1.1" xmlns="http://www.w3.org/2000/svg" xmlns:xlink="http://www.w3.org/1999/xlink">
    <title>8DA35625-D31D-4E21-AC08-B7ECE3FE56BF</title>
    <defs>
        <rect id="path-1" x="0" y="0" width="24" height="24"></rect>
        <filter color-interpolation-filters="auto" id="filter-3">
            <feColorMatrix in="SourceGraphic" type="matrix" values="0 0 0 0 1.000000 0 0 0 0 0.999619 0 0 0 0 0.999619 0 0 0 1.000000 0"></feColorMatrix>
        </filter>
    </defs>
    <g id="course-pages" stroke="none" stroke-width="1" fill="none" fill-rule="evenodd">
        <g id="Course---Main" transform="translate(-971.000000, -185.000000)">
            <g id="course/menu/main" transform="translate(0.000000, 176.000000)">
                <polygon id="bg" fill="none" points="0 40 1920 40 1920 0 0 0"></polygon>
                <g id="Menu" transform="translate(323.000000, 8.000000)">
                    <g id="Menu-5" transform="translate(648.000000, 0.000000)">
                        <g id="icon/course/notifications_24px" transform="translate(0.000000, 1.000000)">
                            <mask id="mask-2" fill="white">
                                <use xlink:href="#path-1"></use>
                            </mask>
                            <g id="Background/Mask"></g>
                            <g filter="url(#filter-3)" id="broadcast">
                                <g mask="url(#mask-2)">
                                    <g transform="translate(3.000000, 5.000000)" fill="#495057" fill-rule="nonzero" id="Shape">
                                        <path d="M3.43125,1.18125 C1.95422722,2.65812207 1.12443179,4.66128091 1.12443179,6.75 C1.12443179,8.83871909 1.95422722,10.8418779 3.43125,12.31875 C3.64442187,12.5394631 3.64137321,12.8902977 3.42439795,13.1072729 C3.20742269,13.3242482 2.85658812,13.3272969 2.635875,13.114125 C0.947947285,11.4262843 -0.000327942867,9.13702876 -0.000327942867,6.75 C-0.000327942867,4.36297124 0.947947285,2.07371574 2.635875,0.385875 C2.85658812,0.172703132 3.20742269,0.17575179 3.42439795,0.392727051 C3.64137321,0.609702313 3.64442187,0.960536876 3.43125,1.18125 L3.43125,1.18125 Z M5.8185,3.5685 C4.06178128,5.32574933 4.06178128,8.17425067 5.8185,9.9315 C6.03844739,10.1514474 6.03844738,10.5080526 5.81849998,10.728 C5.59855259,10.9479474 5.2419474,10.9479474 5.022,10.728 C3.96678707,9.67306527 3.37395122,8.24209974 3.37395122,6.75 C3.37395122,5.25790026 3.96678707,3.82693473 5.022,2.772 C5.2419474,2.5520526 5.5985526,2.5520526 5.8185,2.772 C6.0384474,2.9919474 6.0384474,3.3485526 5.8185,3.5685 L5.8185,3.5685 Z M12.1815,2.772 C12.2870298,2.66620309 12.4303193,2.60674449 12.57975,2.60674449 C12.7291807,2.60674449 12.8724702,2.66620309 12.978,2.772 C14.0332129,3.82693473 14.6260488,5.25790026 14.6260488,6.75 C14.6260488,8.24209974 14.0332129,9.67306527 12.978,10.728 C12.835719,10.870281 12.6283399,10.9258481 12.4339804,10.8737696 C12.2396209,10.8216912 12.0878088,10.6698791 12.0357304,10.4755196 C11.9836519,10.2811601 12.039219,10.073781 12.1815,9.9315 C13.9382187,8.17425067 13.9382187,5.32574933 12.1815,3.5685 C12.0757031,3.4629702 12.0162445,3.31968067 12.0162445,3.17025 C12.0162445,3.02081933 12.0757031,2.8775298 12.1815,2.772 L12.1815,2.772 Z M14.56875,0.387 C14.7884062,0.16741016 15.1444688,0.16741016 15.364125,0.387 C18.8783123,3.90162744 18.8783123,9.59949756 15.364125,13.114125 C15.1434119,13.3272969 14.7925773,13.3242482 14.5756021,13.1072729 C14.3586268,12.8902977 14.3555781,12.5394631 14.56875,12.31875 C16.0457728,10.8418779 16.8755682,8.83871909 16.8755682,6.75 C16.8755682,4.66128091 16.0457728,2.65812207 14.56875,1.18125 C14.3491602,0.961593834 14.3491602,0.605531166 14.56875,0.385875 L14.56875,0.387 Z M11.25,6.75 C11.25,7.99264069 10.2426407,9 9,9 C7.75735931,9 6.75,7.99264069 6.75,6.75 C6.75,5.50735931 7.75735931,4.5 9,4.5 C10.2426407,4.5 11.25,5.50735931 11.25,6.75 L11.25,6.75 Z"></path>
                                    </g>
                                </g>
                            </g>
                        </g>
                    </g>
                </g>
            </g>
        </g>
    </g>
</svg>
