<?xml version="1.0" encoding="UTF-8"?>
<svg width="32px" height="32px" viewBox="0 0 32 32" version="1.1" xmlns="http://www.w3.org/2000/svg" xmlns:xlink="http://www.w3.org/1999/xlink">
    <title>A3D5CB16-90BA-434A-9E93-4E71593708AA</title>
    <defs>
        <rect id="path-1" x="0" y="0" width="32" height="32"></rect>
        <filter color-interpolation-filters="auto" id="filter-3">
            <feColorMatrix in="SourceGraphic" type="matrix" values="0 0 0 0 0.733333 0 0 0 0 0.733333 0 0 0 0 0.733333 0 0 0 1.000000 0"></feColorMatrix>
        </filter>
    </defs>
    <g id="course-pages" stroke="none" stroke-width="1" fill="none" fill-rule="evenodd">
        <g id="Course---Main" transform="translate(-316.000000, -966.000000)">
            <polygon id="bg" fill="none" points="0 6872 1920 6872 1920 216 0 216"></polygon>
            <g id="course/navi/sidebar" transform="translate(304.000000, 360.000000)">
                <g id="Menu-1.7" transform="translate(0.000000, 604.000000)">
                    <polygon id="bg_unit" fill="none" points="0 40 416 40 416 0 0 0"></polygon>
                    <polygon id="bg_icon" fill="none" points="0 40 56 40 56 0 0 0"></polygon>
                    <g id="icon/course/quiz_24px" transform="translate(12.000000, 2.000000)">
                        <mask id="mask-2" fill="white">
                            <use xlink:href="#path-1"></use>
                        </mask>
                        <g id="Background/Mask"></g>
                        <g filter="url(#filter-3)" id="color">
                            <g mask="url(#mask-2)">
                                <g transform="translate(4.000000, 6.666667)" fill="#495057" fill-rule="nonzero" id="Shape">
                                    <path d="M1.71428571,0.857142857 C1.24089879,0.857142857 0.857142857,1.24089879 0.857142857,1.71428571 L0.857142857,3.42857143 C0.857142857,3.90195836 1.24089879,4.28571429 1.71428571,4.28571429 L3.42857143,4.28571429 C3.90195836,4.28571429 4.28571429,3.90195836 4.28571429,3.42857143 L4.28571429,1.71428571 C4.28571429,1.24089879 3.90195836,0.857142857 3.42857143,0.857142857 L1.71428571,0.857142857 Z M3.42857143,1.71428571 L1.71428571,1.71428571 L1.71428571,3.42857143 L3.42857143,3.42857143 L3.42857143,1.71428571 Z"></path>
                                    <path d="M6.85714286,2.57142857 C6.85714286,2.09804164 7.24089879,1.71428571 7.71428571,1.71428571 L23.1428571,1.71428571 C23.6162441,1.71428571 24,2.09804164 24,2.57142857 C24,3.0448155 23.6162441,3.42857143 23.1428571,3.42857143 L7.71428571,3.42857143 C7.24089879,3.42857143 6.85714286,3.0448155 6.85714286,2.57142857 Z M7.71428571,8.57142857 C7.24089879,8.57142857 6.85714286,8.9551845 6.85714286,9.42857143 C6.85714286,9.90195836 7.24089879,10.2857143 7.71428571,10.2857143 L23.1428571,10.2857143 C23.6162441,10.2857143 24,9.90195836 24,9.42857143 C24,8.9551845 23.6162441,8.57142857 23.1428571,8.57142857 L7.71428571,8.57142857 Z M7.71428571,15.4285714 C7.24089879,15.4285714 6.85714286,15.8123274 6.85714286,16.2857143 C6.85714286,16.7591012 7.24089879,17.1428571 7.71428571,17.1428571 L23.1428571,17.1428571 C23.6162441,17.1428571 24,16.7591012 24,16.2857143 C24,15.8123274 23.6162441,15.4285714 23.1428571,15.4285714 L7.71428571,15.4285714 Z"></path>
                                    <path d="M0.857142857,8.57142857 C0.857142857,8.09804164 1.24089879,7.71428571 1.71428571,7.71428571 L3.42857143,7.71428571 C3.90195836,7.71428571 4.28571429,8.09804164 4.28571429,8.57142857 L4.28571429,10.2857143 C4.28571429,10.7591012 3.90195836,11.1428571 3.42857143,11.1428571 L1.71428571,11.1428571 C1.24089879,11.1428571 0.857142857,10.7591012 0.857142857,10.2857143 L0.857142857,8.57142857 Z M1.71428571,8.57142857 L3.42857143,8.57142857 L3.42857143,10.2857143 L1.71428571,10.2857143 L1.71428571,8.57142857 Z M1.71428571,14.5714286 C1.24089879,14.5714286 0.857142857,14.9551845 0.857142857,15.4285714 L0.857142857,17.1428571 C0.857142857,17.6162441 1.24089879,18 1.71428571,18 L3.42857143,18 C3.90195836,18 4.28571429,17.6162441 4.28571429,17.1428571 L4.28571429,15.4285714 C4.28571429,14.9551845 3.90195836,14.5714286 3.42857143,14.5714286 L1.71428571,14.5714286 Z M3.42857143,15.4285714 L1.71428571,15.4285714 L1.71428571,17.1428571 L3.42857143,17.1428571 L3.42857143,15.4285714 Z"></path>
                                </g>
                            </g>
                        </g>
                    </g>
                </g>
            </g>
        </g>
    </g>
</svg>
