<?xml version="1.0" encoding="UTF-8"?>
<svg width="24px" height="25px" viewBox="0 0 24 25" version="1.1" xmlns="http://www.w3.org/2000/svg" xmlns:xlink="http://www.w3.org/1999/xlink">
    <title>9155A537-1A27-43D8-9A7A-A613FB6C7B92</title>
    <defs>
        <rect id="path-1" x="0" y="0" width="24" height="23.5714286"></rect>
        <filter id="filter-3">
            <feColorMatrix in="SourceGraphic" type="matrix" values="0 0 0 0 1.000000 0 0 0 0 0.999619 0 0 0 0 0.999619 0 0 0 1.000000 0"></feColorMatrix>
        </filter>
    </defs>
    <g id="style" stroke="none" stroke-width="1" fill="none" fill-rule="evenodd">
        <g id="Menus-/-Desktop-/-Header" transform="translate(-1856.000000, -778.000000)">
            <g id="menu/desktop/main" transform="translate(0.000000, 763.000000)">
                <polygon id="bg" fill="none" points="0 55 1920 55 1920 0 0 0"></polygon>
                <g id="icon/main/menu/search_24px" transform="translate(1856.000000, 15.714286)">
                    <mask id="mask-2" fill="white">
                        <use xlink:href="#path-1"></use>
                    </mask>
                    <g id="Background/Mask"></g>
                    <g filter="url(#filter-3)" id="search">
                        <g mask="url(#mask-2)">
                            <g transform="translate(2.998968, 2.787755)" fill="#495057" fill-rule="nonzero" id="Shape">
                                <path d="M13.2107821,11.6349387 C15.4701668,8.5518381 14.9738992,4.24881194 12.0720171,1.76095973 C9.17013506,-0.726892487 4.84179812,-0.560113978 2.13995859,2.14365958 C-0.561880935,4.84743314 -0.725562203,9.17588831 1.76436585,12.0759894 C4.25429391,14.9760906 8.55767408,15.4692789 11.6391571,13.2076887 L11.6380321,13.2076887 C11.6717821,13.2526887 11.7077821,13.2954387 11.7482821,13.3370637 L16.0795321,17.6683137 C16.5188056,18.1078978 17.2312605,18.1081496 17.6708446,17.6688762 C18.1104287,17.2296027 18.1106806,16.5171478 17.6714071,16.0775637 L13.3401571,11.7463137 C13.2999357,11.7055996 13.2566869,11.6679919 13.2107821,11.6338137 L13.2107821,11.6349387 Z M13.5010321,7.31043869 C13.5010321,9.52101955 12.3217014,11.5636805 10.4072822,12.668971 C8.492863,13.7742614 6.1342013,13.7742614 4.21978212,12.668971 C2.30536295,11.5636805 1.12603215,9.52101955 1.12603215,7.31043869 C1.12603215,3.89317684 3.89627029,1.12293878 7.31353215,1.12293878 C10.730794,1.12293878 13.5010321,3.89317684 13.5010321,7.31043869 Z"></path>
                            </g>
                        </g>
                    </g>
                </g>
            </g>
        </g>
    </g>
</svg>
