<?xml version="1.0" encoding="UTF-8"?>
<svg width="32px" height="32px" viewBox="0 0 32 32" version="1.1" xmlns="http://www.w3.org/2000/svg" xmlns:xlink="http://www.w3.org/1999/xlink">
    <title>0BFD931C-1F07-465E-9E7B-BBD23956C74F</title>
    <defs>
        <rect id="path-1" x="0" y="0" width="32" height="32"></rect>
        <polygon id="path-3" points="22.12 11.4533333 16 17.56 9.88 11.4533333 8 13.3333333 16 21.3333333 24 13.3333333"></polygon>
    </defs>
    <g id="style" stroke="none" stroke-width="1" fill="none" fill-rule="evenodd">
        <g id="Forms" transform="translate(-705.000000, -1215.000000)">
            <g id="form/inputText/Default/DropDown/Normal" transform="translate(441.000000, 1207.000000)">
                <path d="M301,0.5 C301.690356,0.5 302.315356,0.779822031 302.767767,1.23223305 C303.220178,1.68464406 303.5,2.30964406 303.5,3 L303.5,3 L303.5,47.5 L0.5,47.5 L0.5,3 C0.5,2.30964406 0.779822031,1.68464406 1.23223305,1.23223305 C1.68464406,0.779822031 2.30964406,0.5 3,0.5 L3,0.5 Z" id="Field" stroke="#D3D5D8" fill="none"></path>
                <g id="icon/navigation/arrow_drop_down_24px" transform="translate(264.000000, 8.000000)">
                    <mask id="mask-2" fill="none">
                        <use xlink:href="#path-1"></use>
                    </mask>
                    <g id="Background/Mask"></g>
                    <mask id="mask-4" fill="none">
                        <use xlink:href="#path-3"></use>
                    </mask>
                    <use id="-↳Color" fill="#495057" xlink:href="#path-3"></use>
                </g>
            </g>
        </g>
    </g>
</svg>
