<?xml version="1.0" encoding="UTF-8"?>
<svg width="16px" height="16px" viewBox="0 0 16 16" version="1.1" xmlns="http://www.w3.org/2000/svg" xmlns:xlink="http://www.w3.org/1999/xlink">
    <title>9FC0DF7F-399A-4281-868C-D64816B1876D</title>
    <defs>
        <path d="M0,0 L240,0 L240,316 C240,318.209139 238.209139,320 236,320 L4,320 C1.790861,320 2.705415e-16,318.209139 0,316 L0,0 L0,0 Z" id="path-1"></path>
        <filter x="-7.5%" y="-3.8%" width="115.0%" height="111.2%" filterUnits="objectBoundingBox" id="filter-2">
            <feOffset dx="0" dy="6" in="SourceAlpha" result="shadowOffsetOuter1"></feOffset>
            <feGaussianBlur stdDeviation="5" in="shadowOffsetOuter1" result="shadowBlurOuter1"></feGaussianBlur>
            <feComposite in="shadowBlurOuter1" in2="SourceAlpha" operator="out" result="shadowBlurOuter1"></feComposite>
            <feColorMatrix values="0 0 0 0 0.28627451   0 0 0 0 0.31372549   0 0 0 0 0.341176471  0 0 0 0.07 0" type="matrix" in="shadowBlurOuter1"></feColorMatrix>
        </filter>
        <rect id="path-3" x="0" y="0" width="16" height="16"></rect>
        <filter id="filter-5">
            <feColorMatrix in="SourceGraphic" type="matrix" values="0 0 0 0 0.286275 0 0 0 0 0.313725 0 0 0 0 0.341176 0 0 0 1.000000 0"></feColorMatrix>
        </filter>
    </defs>
    <g id="symbols" stroke="none" stroke-width="1" fill="none" fill-rule="evenodd">
        <g id="menu/desktop/main/user/drop_down" transform="translate(-16.000000, -240.000000)">
            <g id="bg">
                <use fill="black" fill-opacity="1" filter="url(#filter-2)" xlink:href="#path-1"></use>
                <path stroke="#EBEBEB" stroke-width="0.5" d="M239.75,0.25 L239.75,316 C239.75,317.035534 239.330267,317.973034 238.65165,318.65165 C237.973034,319.330267 237.035534,319.75 236,319.75 L236,319.75 L4,319.75 C2.96446609,319.75 2.02696609,319.330267 1.34834957,318.65165 C0.669733047,317.973034 0.25,317.035534 0.25,316 L0.25,316 L0.25,0.25 L239.75,0.25 Z" stroke-linejoin="square" fill="none" fill-rule="evenodd"></path>
            </g>
            <g id="icon/action/settings" transform="translate(16.000000, 240.000000)">
                <mask id="mask-4" fill="white">
                    <use xlink:href="#path-3"></use>
                </mask>
                <g id="Background/Mask"></g>
                <g filter="url(#filter-5)" id="gear">
                    <g mask="url(#mask-4)">
                        <g transform="translate(2.000375, 2.000375)" fill="#000000" fill-rule="nonzero" id="Shape">
                            <path d="M5.999625,3.565125 C5.12986191,3.565125 4.32616766,4.02913806 3.89128611,4.78237499 C3.45640456,5.53561191 3.45640456,6.46363809 3.89128611,7.21687501 C4.32616766,7.97011194 5.12986191,8.434125 5.999625,8.434125 C7.34416221,8.434125 8.43412496,7.34416221 8.43412496,5.999625 C8.43412496,4.65508779 7.34416221,3.565125 5.999625,3.565125 L5.999625,3.565125 Z M4.315125,5.999625 C4.315125,5.06930134 5.06930134,4.315125 5.999625,4.315125 C6.92994866,4.315125 7.684125,5.06930134 7.684125,5.999625 C7.684125,6.92994866 6.92994866,7.684125 5.999625,7.684125 C5.06930134,7.684125 4.315125,6.92994866 4.315125,5.999625 L4.315125,5.999625 Z"></path>
                            <path d="M7.346625,1.006875 C6.951375,-0.335625 5.047875,-0.335625 4.652625,1.006875 L4.582125,1.246125 C4.52621948,1.43593028 4.38747837,1.59027346 4.20468116,1.66601414 C4.02188394,1.74175481 3.81463963,1.73076814 3.640875,1.636125 L3.421875,1.516125 C2.191875,0.847125 0.847125,2.192625 1.516875,3.421875 L1.636125,3.640875 C1.73076814,3.81463963 1.74175481,4.02188394 1.66601414,4.20468116 C1.59027346,4.38747837 1.43593028,4.52621948 1.246125,4.582125 L1.006875,4.652625 C-0.335625,5.047875 -0.335625,6.951375 1.006875,7.346625 L1.246125,7.417125 C1.43593028,7.47303052 1.59027346,7.61177163 1.66601414,7.79456884 C1.74175481,7.97736606 1.73076814,8.18461037 1.636125,8.358375 L1.516125,8.577375 C0.847125,9.807375 2.191875,11.152875 3.421875,10.482375 L3.640875,10.363125 C3.81463963,10.2684819 4.02188394,10.2574952 4.20468116,10.3332359 C4.38747837,10.4089765 4.52621948,10.5633197 4.582125,10.753125 L4.652625,10.992375 C5.047875,12.334875 6.951375,12.334875 7.346625,10.992375 L7.417125,10.753125 C7.47303052,10.5633197 7.61177163,10.4089765 7.79456884,10.3332359 C7.97736606,10.2574952 8.18461037,10.2684819 8.358375,10.363125 L8.577375,10.483125 C9.807375,11.152875 11.152875,9.806625 10.482375,8.577375 L10.363125,8.358375 C10.2684819,8.18461037 10.2574952,7.97736606 10.3332359,7.79456884 C10.4089765,7.61177163 10.5633197,7.47303052 10.753125,7.417125 L10.992375,7.346625 C12.334875,6.951375 12.334875,5.047875 10.992375,4.652625 L10.753125,4.582125 C10.5633197,4.52621948 10.4089765,4.38747837 10.3332359,4.20468116 C10.2574952,4.02188394 10.2684819,3.81463963 10.363125,3.640875 L10.483125,3.421875 C11.152875,2.191875 9.806625,0.847125 8.577375,1.516875 L8.358375,1.636125 C8.18461037,1.73076814 7.97736606,1.74175481 7.79456884,1.66601414 C7.61177163,1.59027346 7.47303052,1.43593028 7.417125,1.246125 L7.346625,1.006875 Z M5.371875,1.219125 C5.556375,0.592875 6.442875,0.592875 6.627375,1.219125 L6.697875,1.458375 C6.8179085,1.86560347 7.11567391,2.19670083 7.50793193,2.35910992 C7.90018995,2.52151901 8.34485593,2.49781527 8.717625,2.294625 L8.935875,2.174625 C9.508875,1.863375 10.135875,2.489625 9.823875,3.063375 L9.704625,3.282375 C9.50174171,3.65518237 9.47829525,4.09973258 9.64083684,4.49181318 C9.80337843,4.88389379 10.1344789,5.18146242 10.541625,5.301375 L10.780125,5.371875 C11.406375,5.556375 11.406375,6.442875 10.780125,6.627375 L10.540875,6.697875 C10.1336465,6.8179085 9.80254917,7.11567391 9.64014008,7.50793193 C9.47773099,7.90018995 9.50143473,8.34485593 9.704625,8.717625 L9.824625,8.935875 C10.135875,9.508875 9.509625,10.135875 8.935875,9.823875 L8.717625,9.704625 C8.34475427,9.50145394 7.89999141,9.47785013 7.50771091,9.64041419 C7.11543042,9.80297826 6.81773578,10.1342622 6.697875,10.541625 L6.627375,10.780125 C6.442875,11.406375 5.556375,11.406375 5.371875,10.780125 L5.301375,10.540875 C5.1812898,10.1338633 4.88365042,9.80294929 4.49159227,9.64056265 C4.09953412,9.47817601 3.65508073,9.50172242 3.282375,9.704625 L3.063375,9.824625 C2.490375,10.135875 1.863375,9.509625 2.175375,8.935875 L2.294625,8.717625 C2.49810319,8.34479272 2.52196442,7.89991404 2.35953285,7.50745606 C2.19710128,7.11499807 1.86582033,6.8171066 1.458375,6.697125 L1.219125,6.626625 C0.592875,6.442125 0.592875,5.555625 1.219125,5.371125 L1.458375,5.300625 C1.86517017,5.1804883 2.19590092,4.88297494 2.35826513,4.49111655 C2.52062935,4.09925815 2.49724011,3.65501726 2.294625,3.282375 L2.174625,3.063375 C1.863375,2.490375 2.489625,1.863375 3.063375,2.175375 L3.282375,2.294625 C3.65508073,2.49752758 4.09953412,2.52107399 4.49159227,2.35868735 C4.88365042,2.19630071 5.1812898,1.86538675 5.301375,1.458375 L5.371875,1.219125 Z"></path>
                        </g>
                    </g>
                </g>
            </g>
        </g>
    </g>
</svg>
