<?xml version="1.0" encoding="UTF-8"?>
<svg width="24px" height="24px" viewBox="0 0 24 24" version="1.1" xmlns="http://www.w3.org/2000/svg" xmlns:xlink="http://www.w3.org/1999/xlink">
    <title>0BF45A1F-16F6-4665-AAA7-FEA8CACFDBC0</title>
    <defs>
        <rect id="path-1" x="0" y="0" width="24" height="24"></rect>
    </defs>
    <g id="user-account-pages" stroke="none" stroke-width="1" fill="none" fill-rule="evenodd">
        <g id="Settings----Edit-Profile" transform="translate(-312.000000, -264.000000)">
            <rect id="bg" fill="#F6F6F7" x="0" y="56" width="1920" height="2573"></rect>
            <g id="menu/desktop/acount/settings" transform="translate(304.000000, 208.000000)">
                <g id="Item-1" transform="translate(0.000000, 48.000000)">
                    <rect id="bg" fill="#F6F6F6" x="0" y="0" width="304" height="40" rx="4"></rect>
                    <g id="icon/action/settings" transform="translate(8.000000, 8.000000)">
                        <mask id="mask-2" fill="white">
                            <use xlink:href="#path-1"></use>
                        </mask>
                        <g id="Background/Mask"></g>
                        <g id="gear" mask="url(#mask-2)" fill="#0096D7" fill-rule="nonzero">
                            <g transform="translate(3.000562, 3.000562)" id="Shape">
                                <path d="M8.9994375,5.3476875 C7.69479286,5.3476875 6.48925149,6.04370708 5.83692917,7.17356248 C5.18460684,8.30341787 5.18460684,9.69545713 5.83692917,10.8253125 C6.48925149,11.9551679 7.69479286,12.6511875 8.9994375,12.6511875 C11.0162433,12.6511875 12.6511874,11.0162433 12.6511874,8.9994375 C12.6511874,6.98263169 11.0162433,5.3476875 8.9994375,5.3476875 L8.9994375,5.3476875 Z M6.4726875,8.9994375 C6.4726875,7.60395201 7.60395201,6.4726875 8.9994375,6.4726875 C10.394923,6.4726875 11.5261875,7.60395201 11.5261875,8.9994375 C11.5261875,10.394923 10.394923,11.5261875 8.9994375,11.5261875 C7.60395201,11.5261875 6.4726875,10.394923 6.4726875,8.9994375 L6.4726875,8.9994375 Z"></path>
                                <path d="M11.0199375,1.5103125 C10.4270625,-0.5034375 7.5718125,-0.5034375 6.9789375,1.5103125 L6.8731875,1.8691875 C6.78932921,2.15389542 6.58121755,2.38541019 6.30702173,2.4990212 C6.03282592,2.61263222 5.72195945,2.59615221 5.4613125,2.4541875 L5.1328125,2.2741875 C3.2878125,1.2706875 1.2706875,3.2889375 2.2753125,5.1328125 L2.4541875,5.4613125 C2.59615221,5.72195945 2.61263222,6.03282592 2.4990212,6.30702173 C2.38541019,6.58121755 2.15389542,6.78932921 1.8691875,6.8731875 L1.5103125,6.9789375 C-0.5034375,7.5718125 -0.5034375,10.4270625 1.5103125,11.0199375 L1.8691875,11.1256875 C2.15389542,11.2095458 2.38541019,11.4176574 2.4990212,11.6918533 C2.61263222,11.9660491 2.59615221,12.2769156 2.4541875,12.5375625 L2.2741875,12.8660625 C1.2706875,14.7110625 3.2878125,16.7293125 5.1328125,15.7235625 L5.4613125,15.5446875 C5.72195945,15.4027228 6.03282592,15.3862428 6.30702173,15.4998538 C6.58121755,15.6134648 6.78932921,15.8449796 6.8731875,16.1296875 L6.9789375,16.4885625 C7.5718125,18.5023125 10.4270625,18.5023125 11.0199375,16.4885625 L11.1256875,16.1296875 C11.2095458,15.8449796 11.4176574,15.6134648 11.6918533,15.4998538 C11.9660491,15.3862428 12.2769156,15.4027228 12.5375625,15.5446875 L12.8660625,15.7246875 C14.7110625,16.7293125 16.7293125,14.7099375 15.7235625,12.8660625 L15.5446875,12.5375625 C15.4027228,12.2769156 15.3862428,11.9660491 15.4998538,11.6918533 C15.6134648,11.4176574 15.8449796,11.2095458 16.1296875,11.1256875 L16.4885625,11.0199375 C18.5023125,10.4270625 18.5023125,7.5718125 16.4885625,6.9789375 L16.1296875,6.8731875 C15.8449796,6.78932921 15.6134648,6.58121755 15.4998538,6.30702173 C15.3862428,6.03282592 15.4027228,5.72195945 15.5446875,5.4613125 L15.7246875,5.1328125 C16.7293125,3.2878125 14.7099375,1.2706875 12.8660625,2.2753125 L12.5375625,2.4541875 C12.2769156,2.59615221 11.9660491,2.61263222 11.6918533,2.4990212 C11.4176574,2.38541019 11.2095458,2.15389542 11.1256875,1.8691875 L11.0199375,1.5103125 Z M8.0578125,1.8286875 C8.3345625,0.8893125 9.6643125,0.8893125 9.9410625,1.8286875 L10.0468125,2.1875625 C10.2268627,2.7984052 10.6735109,3.29505124 11.2618979,3.53866488 C11.8502849,3.78227852 12.5172839,3.74672291 13.0764375,3.4419375 L13.4038125,3.2619375 C14.2633125,2.7950625 15.2038125,3.7344375 14.7358125,4.5950625 L14.5569375,4.9235625 C14.2526126,5.48277356 14.2174429,6.14959887 14.4612553,6.73771977 C14.7050676,7.32584068 15.2017184,7.77219364 15.8124375,7.9520625 L16.1701875,8.0578125 C17.1095625,8.3345625 17.1095625,9.6643125 16.1701875,9.9410625 L15.8113125,10.0468125 C15.2004698,10.2268627 14.7038238,10.6735109 14.4602101,11.2618979 C14.2165965,11.8502849 14.2521521,12.5172839 14.5569375,13.0764375 L14.7369375,13.4038125 C15.2038125,14.2633125 14.2644375,15.2038125 13.4038125,14.7358125 L13.0764375,14.5569375 C12.5171314,14.2521809 11.8499871,14.2167752 11.2615664,14.4606213 C10.6731456,14.7044674 10.2266037,15.2013933 10.0468125,15.8124375 L9.9410625,16.1701875 C9.6643125,17.1095625 8.3345625,17.1095625 8.0578125,16.1701875 L7.9520625,15.8113125 C7.7719347,15.2007949 7.32547563,14.7044239 6.73738841,14.460844 C6.14930118,14.217264 5.48262109,14.2525836 4.9235625,14.5569375 L4.5950625,14.7369375 C3.7355625,15.2038125 2.7950625,14.2644375 3.2630625,13.4038125 L3.4419375,13.0764375 C3.74715479,12.5171891 3.78294663,11.8498711 3.53929927,11.2611841 C3.29565192,10.6724971 2.7987305,10.2256599 2.1875625,10.0456875 L1.8286875,9.9399375 C0.8893125,9.6631875 0.8893125,8.3334375 1.8286875,8.0566875 L2.1875625,7.9509375 C2.79775525,7.77073244 3.29385138,7.3244624 3.5373977,6.73667482 C3.78094402,6.14888723 3.74586016,5.48252589 3.4419375,4.9235625 L3.2619375,4.5950625 C2.7950625,3.7355625 3.7344375,2.7950625 4.5950625,3.2630625 L4.9235625,3.4419375 C5.48262109,3.74629137 6.14930118,3.78161098 6.73738841,3.53803102 C7.32547563,3.29445106 7.7719347,2.79808012 7.9520625,2.1875625 L8.0578125,1.8286875 Z"></path>
                            </g>
                        </g>
                    </g>
                </g>
            </g>
        </g>
    </g>
</svg>