<?xml version="1.0" encoding="UTF-8"?>
<svg width="32px" height="32px" viewBox="0 0 32 32" version="1.1" xmlns="http://www.w3.org/2000/svg" xmlns:xlink="http://www.w3.org/1999/xlink">
    <title>58EA487D-996A-4738-AA44-0FD19C1737FA</title>
    <defs>
        <rect id="path-1" x="660" y="360" width="600" height="224" rx="4"></rect>
        <filter x="-2.8%" y="-6.0%" width="105.5%" height="114.7%" filterUnits="objectBoundingBox" id="filter-2">
            <feOffset dx="0" dy="3" in="SourceAlpha" result="shadowOffsetOuter1"></feOffset>
            <feGaussianBlur stdDeviation="5" in="shadowOffsetOuter1" result="shadowBlurOuter1"></feGaussianBlur>
            <feComposite in="shadowBlurOuter1" in2="SourceAlpha" operator="out" result="shadowBlurOuter1"></feComposite>
            <feColorMatrix values="0 0 0 0 0.28627451   0 0 0 0 0.31372549   0 0 0 0 0.341176471  0 0 0 0.04 0" type="matrix" in="shadowBlurOuter1"></feColorMatrix>
        </filter>
        <rect id="path-3" x="0" y="0" width="32" height="32"></rect>
        <filter color-interpolation-filters="auto" id="filter-5">
            <feColorMatrix in="SourceGraphic" type="matrix" values="0 0 0 0 0.000000 0 0 0 0 0.588235 0 0 0 0 0.843137 0 0 0 1.000000 0"></feColorMatrix>
        </filter>
    </defs>
    <g id="public-pages" stroke="none" stroke-width="1" fill="none" fill-rule="evenodd">
        <g id="Course-Information-Page---Overlay---Share" transform="translate(-1044.000000, -512.000000)">
            <g id="Header-Section" fill="none" transform="translate(0.000000, 56.000000)">
                <rect id="bg" x="0" y="0" width="1920" height="552"></rect>
            </g>
            <rect id="overlay" fill-opacity="0.8" fill="none" x="0" y="0" width="1920" height="1024"></rect>
            <g id="bg_pop_up_window">
                <use fill="none" fill-opacity="1" filter="url(#filter-2)" xlink:href="#path-1"></use>
                <rect stroke="#D3D5D8" stroke-width="1" stroke-linejoin="square" fill="none" fill-rule="evenodd" x="660.5" y="360.5" width="599" height="223" rx="4"></rect>
            </g>
            <g id="Social-Media-Buttons" transform="translate(844.000000, 512.000000)">
                <g id="icon/social-media/facebook_24px" transform="translate(200.000000, 0.000000)">
                    <mask id="mask-4" fill="white">
                        <use xlink:href="#path-3"></use>
                    </mask>
                    <g id="Background/Mask"></g>
                    <g filter="url(#filter-5)" id="envelope">
                        <g mask="url(#mask-4)">
                            <g transform="translate(4.000000, 6.666667)" fill="#495057" fill-rule="nonzero" id="Shape">
                                <path d="M0,3 C0,1.34314575 1.34314575,0 3,0 L21,0 C22.6568542,0 24,1.34314575 24,3 L24,15 C24,16.6568542 22.6568542,18 21,18 L3,18 C1.34314575,18 0,16.6568542 0,15 L0,3 Z M3,1.5 C2.17157288,1.5 1.5,2.17157288 1.5,3 L1.5,3.3255 L12,9.6255 L22.5,3.3255 L22.5,3 C22.5,2.17157288 21.8284271,1.5 21,1.5 L3,1.5 Z M22.5,5.0745 L15.363,9.357 L22.5,13.671 L22.5,5.076 L22.5,5.0745 Z M22.449,15.3915 L13.9065,10.23 L12,11.3745 L10.092,10.23 L1.551,15.39 C1.72739564,16.0451123 2.32155509,16.5002655 3,16.5000003 L21,16.5000003 C21.6780179,16.5004483 22.2720374,16.0460171 22.449,15.3915 L22.449,15.3915 Z M1.5,13.671 L8.637,9.357 L1.5,5.0745 L1.5,13.6695 L1.5,13.671 Z"></path>
                            </g>
                        </g>
                    </g>
                </g>
            </g>
        </g>
    </g>
</svg>
