<?xml version="1.0" encoding="UTF-8"?>
<svg width="24px" height="24px" viewBox="0 0 24 24" version="1.1" xmlns="http://www.w3.org/2000/svg" xmlns:xlink="http://www.w3.org/1999/xlink">
    <title>CC8A272C-A3FA-4477-97D4-EB895690824C</title>
    <defs>
        <rect id="path-1" x="0" y="0" width="24" height="24"></rect>
    </defs>
    <g id="user-account-pages" stroke="none" stroke-width="1" fill="none" fill-rule="evenodd">
        <g id="Settings----Edit-Profile" transform="translate(-312.000000, -600.000000)">
            <rect id="bg" fill="#F6F6F7" x="0" y="56" width="1920" height="2573"></rect>
            <g id="menu/desktop/acount/settings" transform="translate(304.000000, 208.000000)">
                <g id="icon/action/settings" transform="translate(8.000000, 392.000000)">
                    <mask id="mask-2" fill="white">
                        <use xlink:href="#path-1"></use>
                    </mask>
                    <g id="Background/Mask"></g>
                    <g id="box-arrow-right" mask="url(#mask-2)" fill="#0096D7" fill-rule="nonzero">
                        <g transform="translate(3.000000, 5.000000)" id="Path">
                            <path d="M11.25,11.8125 C11.25,12.1231602 10.9981602,12.375 10.6875,12.375 L1.6875,12.375 C1.37683983,12.375 1.125,12.1231602 1.125,11.8125 L1.125,1.6875 C1.125,1.37683983 1.37683983,1.125 1.6875,1.125 L10.6875,1.125 C10.9981602,1.125 11.25,1.37683983 11.25,1.6875 L11.25,3.9375 C11.25,4.24816017 11.5018398,4.5 11.8125,4.5 C12.1231602,4.5 12.375,4.24816017 12.375,3.9375 L12.375,1.6875 C12.375,0.755519485 11.6194805,-9.99200722e-16 10.6875,-9.99200722e-16 L1.6875,-9.99200722e-16 C0.755519485,-9.99200722e-16 0,0.755519485 0,1.6875 L0,11.8125 C0,12.7444805 0.755519485,13.5 1.6875,13.5 L10.6875,13.5 C11.6194805,13.5 12.375,12.7444805 12.375,11.8125 L12.375,9.5625 C12.375,9.25183983 12.1231602,9 11.8125,9 C11.5018398,9 11.25,9.25183983 11.25,9.5625 L11.25,11.8125 Z"></path>
                            <path d="M17.83575,7.14825 C17.9415469,7.0427202 18.0010055,6.89943067 18.0010055,6.75 C18.0010055,6.60056933 17.9415469,6.4572798 17.83575,6.35175 L14.46075,2.97675 C14.2408026,2.7568026 13.8841974,2.7568026 13.66425,2.97675 C13.4443026,3.1966974 13.4443026,3.5533026 13.66425,3.77325 L16.079625,6.1875 L6.1875,6.1875 C5.87683983,6.1875 5.625,6.43933983 5.625,6.75 C5.625,7.06066017 5.87683983,7.3125 6.1875,7.3125 L16.079625,7.3125 L13.66425,9.72675 C13.4443026,9.9466974 13.4443026,10.3033026 13.66425,10.52325 C13.8841974,10.7431974 14.2408026,10.7431974 14.46075,10.52325 L17.83575,7.14825 L17.83575,7.14825 Z"></path>
                        </g>
                    </g>
                </g>
            </g>
        </g>
    </g>
</svg>