<?xml version="1.0" encoding="UTF-8"?>
<svg width="32px" height="32px" viewBox="0 0 32 32" version="1.1" xmlns="http://www.w3.org/2000/svg" xmlns:xlink="http://www.w3.org/1999/xlink">
    <title>4D9B83B9-3B84-4A6E-850A-0B67339F471F</title>
    <defs>
        <rect id="path-1" x="0" y="0" width="32" height="32"></rect>
        <filter color-interpolation-filters="auto" id="filter-3">
            <feColorMatrix in="SourceGraphic" type="matrix" values="0 0 0 0 0.733333 0 0 0 0 0.733333 0 0 0 0 0.733333 0 0 0 1.000000 0"></feColorMatrix>
        </filter>
    </defs>
    <g id="course-pages" stroke="none" stroke-width="1" fill="none" fill-rule="evenodd">
        <g id="Course---Main" transform="translate(-316.000000, -749.000000)">
            <polygon id="bg" fill="none" points="0 6872 1920 6872 1920 216 0 216"></polygon>
            <g id="course/navi/sidebar" transform="translate(304.000000, 360.000000)">
                <g id="Menu-1.2" transform="translate(0.000000, 384.000000)">
                    <polygon id="bg_unit" fill="none" points="0 40 416 40 416 0 0 0"></polygon>
                    <polygon id="bg_icon" fill="none" points="0 40 56 40 56 0 0 0"></polygon>
                    <g id="icon/course/File-earmark-text_24px" transform="translate(12.000000, 5.000000)">
                        <mask id="mask-2" fill="white">
                            <use xlink:href="#path-1"></use>
                        </mask>
                        <g id="Background/Mask"></g>
                        <g filter="url(#filter-3)" id="color">
                            <g mask="url(#mask-2)">
                                <g transform="translate(6.666667, 4.000000)" fill="#495057" fill-rule="nonzero" id="Shape">
                                    <path d="M5.25,10.5 C4.83578644,10.5 4.5,10.8357864 4.5,11.25 C4.5,11.6642136 4.83578644,12 5.25,12 L12.75,12 C13.1642136,12 13.5,11.6642136 13.5,11.25 C13.5,10.8357864 13.1642136,10.5 12.75,10.5 L5.25,10.5 Z M4.5,14.25 C4.5,13.8357864 4.83578644,13.5 5.25,13.5 L12.75,13.5 C13.1642136,13.5 13.5,13.8357864 13.5,14.25 C13.5,14.6642136 13.1642136,15 12.75,15 L5.25,15 C4.83578644,15 4.5,14.6642136 4.5,14.25 Z M4.5,17.25 C4.5,16.8357864 4.83578644,16.5 5.25,16.5 L8.25,16.5 C8.66421356,16.5 9,16.8357864 9,17.25 C9,17.6642136 8.66421356,18 8.25,18 L5.25,18 C4.83578644,18 4.5,17.6642136 4.5,17.25 Z"></path>
                                    <path d="M11.25,0 L3,0 C1.34314575,0 0,1.34314575 0,3 L0,21 C0,22.6568542 1.34314575,24 3,24 L15,24 C16.6568542,24 18,22.6568542 18,21 L18,6.75 L11.25,0 Z M11.25,1.5 L11.25,4.5 C11.25,5.74264069 12.2573593,6.75 13.5,6.75 L16.5,6.75 L16.5,21 C16.5,21.8284271 15.8284271,22.5 15,22.5 L3,22.5 C2.17157288,22.5 1.5,21.8284271 1.5,21 L1.5,3 C1.5,2.17157288 2.17157288,1.5 3,1.5 L11.25,1.5 Z"></path>
                                </g>
                            </g>
                        </g>
                    </g>
                </g>
            </g>
        </g>
    </g>
</svg>
