<?xml version="1.0" encoding="UTF-8"?>
<svg width="150px" height="27px" viewBox="0 0 150 27" version="1.1" xmlns="http://www.w3.org/2000/svg" xmlns:xlink="http://www.w3.org/1999/xlink">
    <title>Combined Shape</title>
    <g id="symbols" stroke="none" stroke-width="1" fill="none" fill-rule="evenodd">
        <g id="logo/TrainingAid/White/MenuHeader-Copy" fill="#FFFFFF">
            <path d="M113.708709,8.015625 L115.221471,9.43945312 L113.830706,10.4860276 L113.962448,10.6680657 C114.468339,11.4129237 114.721284,12.358254 114.721284,13.5040565 C114.721284,14.8183594 114.310561,15.9217248 113.489114,16.8141526 C112.726342,17.6428357 111.742669,18.142736 110.538094,18.3138537 L110.256194,18.347506 L108.340841,18.5422175 L108.220538,18.5596267 C108.009303,18.5973745 107.744411,18.6787861 107.425863,18.8038612 C107.043606,18.9539513 106.852477,19.1506911 106.852477,19.3940805 C106.852477,19.7267127 107.251001,19.8930288 108.048048,19.8930288 C108.337057,19.8930288 108.759368,19.8500899 109.314981,19.7642121 L109.561263,19.7247784 L109.682808,19.704402 C110.422923,19.5786508 110.971909,19.5157752 111.329767,19.5157752 C112.614802,19.5157752 113.617211,19.8220403 114.336993,20.4345703 C115.056776,21.0471004 115.416667,21.8969351 115.416667,22.9840745 C115.416667,24.1847957 114.877847,25.1542969 113.800206,25.8925781 C112.722566,26.6308594 111.358233,27 109.707207,27 C108.861361,27 107.970783,26.8499099 107.035473,26.5497296 C106.217076,26.2870718 105.538786,25.9747221 105.000601,25.6126803 L104.778529,25.4544772 L106.035098,23.6047175 L106.322786,23.7907987 C107.562425,24.5672855 108.710898,24.9555288 109.768206,24.9555288 C110.81738,24.9555288 111.644926,24.775015 112.250845,24.4139874 C112.856763,24.0529597 113.159722,23.6047175 113.159722,23.0692608 C113.159722,22.0145733 112.395208,21.4872296 110.866179,21.4872296 C110.605918,21.4872296 110.134197,21.5521334 109.451014,21.6819411 C108.76783,21.8117488 108.23511,21.8766526 107.852853,21.8766526 C105.998498,21.8766526 105.071321,21.1789363 105.071321,19.7835036 C105.071321,19.3535156 105.288883,18.9640925 105.724005,18.6152344 C106.159128,18.2663762 106.697948,18.0148738 107.340465,17.8607272 C105.502377,17.0007512 104.583333,15.5079627 104.583333,13.3823618 C104.583333,12.019381 105.059122,10.8835637 106.010698,9.97490986 C106.962275,9.06625601 108.137513,8.61192909 109.536411,8.61192909 C110.722598,8.61192909 111.669699,8.83659625 112.377714,9.28593057 L112.549737,9.40294471 L113.708709,8.015625 Z M25.4166667,2.953125 L25.4166667,23.625 L6.66666667,23.625 L6.66666667,20.671875 L22.4996667,20.671125 L22.5,2.953125 L25.4166667,2.953125 Z M150,3.375 L150,22.1144153 L146.945568,22.1144153 L146.945568,21.3182964 L146.842672,21.4207775 C146.583427,21.6561047 146.190105,21.8648627 145.662706,22.0470514 C145.059965,22.2552671 144.436861,22.359375 143.793394,22.359375 C141.96888,22.359375 140.533297,21.7796371 139.486645,20.6201613 C138.439993,19.4606855 137.916667,17.8439516 137.916667,15.7699597 C137.916667,13.6959677 138.517372,12.0077873 139.718782,10.7054183 C140.920192,9.4030494 142.425008,8.75186492 144.233232,8.75186492 C145.116529,8.75186492 145.929033,8.91315524 146.670744,9.23573589 L146.945568,9.36426411 L146.945568,4.10987903 L150,3.375 Z M35.2956204,5.484375 L35.2956204,9.09523595 L38.6934307,9.09523595 L38.6934307,10.9189031 L35.2956204,10.9189031 L35.2956204,17.3868426 L35.2992722,17.6538072 C35.3260517,18.6085307 35.5001183,19.2976405 35.821472,19.7211365 C36.1720397,20.1831322 36.7364152,20.41413 37.5145985,20.41413 C38.0770479,20.41413 38.6587591,20.2641841 39.2597324,19.9642921 L39.2597324,19.9642921 L39.5833333,21.9946416 L39.1882665,22.0914076 C38.3872834,22.2700525 37.5212026,22.359375 36.5900243,22.359375 C35.6115166,22.359375 34.7851784,21.9764049 34.1110097,21.2104647 C33.436841,20.4445245 33.0997567,19.4779809 33.0997567,18.3108339 L33.0997567,18.3108339 L33.0997567,10.9189031 L31.6666667,10.9189031 L31.6666667,9.09523595 L33.0997567,9.09523595 L33.0997567,6.37189301 L35.2956204,5.484375 Z M55.5986172,8.859375 C57.5063683,8.859375 58.8921488,9.28871793 59.7559589,10.1474038 C60.5689566,10.9555787 60.9993671,12.2122414 61.0471905,13.9173919 L61.0516739,14.2423633 L61.0516739,18.9084299 L61.0562591,19.1317962 C61.0959971,20.0777188 61.394032,20.7376648 61.9503639,21.1116342 L62.0833333,21.1928583 L62.0833333,22.3472238 L61.8055836,22.3432139 C60.9938887,22.3191545 60.3761827,22.1868277 59.9524654,21.9462337 C59.4816685,21.678907 59.1439229,21.2374128 58.9392285,20.6217512 C58.0058224,21.7801671 56.577056,22.359375 54.6529294,22.359375 C53.62127,22.359375 52.7267558,21.9887629 51.9693868,21.2475388 C51.2120178,20.5063147 50.8333333,19.5848475 50.8333333,18.4831374 C50.8333333,17.1627053 51.4167122,16.0468187 52.5834698,15.1354776 C53.7502274,14.2241365 55.2383552,13.7684659 57.047853,13.7684659 C57.5391194,13.7684659 58.0958879,13.8737764 58.7181587,14.0843975 C58.7181587,11.9781869 57.768377,10.9250816 55.8688137,10.9250816 C54.5085517,10.9250816 53.4407205,11.2638034 52.6653202,11.9412472 L52.503639,12.0915982 L51.5211063,10.159555 L51.6948725,10.0282649 C52.1189096,9.72745907 52.6730236,9.46541685 53.3572143,9.24213828 C54.1391467,8.98696276 54.8862809,8.859375 55.5986172,8.859375 Z M122.074804,8.859375 C124.025219,8.859375 125.454197,9.31099516 126.361737,10.2142355 C127.228025,11.0764194 127.680857,12.6748691 127.720234,15.0095845 L127.723047,15.3481239 L127.723047,18.1307521 L127.726216,18.4137179 C127.762139,19.9833999 128.1034,20.9786369 128.75,21.399429 C128.503213,21.8368727 128.228562,22.1062247 127.926049,22.2074848 C127.623536,22.3087449 127.277238,22.359375 126.887155,22.359375 C126.457267,22.359375 126.071165,22.1973588 125.728847,21.8733264 C125.386529,21.549294 125.155664,21.1969088 125.03625,20.8161707 C124.765581,21.269816 124.293899,21.6404281 123.621204,21.9280069 C122.94851,22.2155856 122.245963,22.359375 121.513562,22.359375 C120.13633,22.359375 119.053651,22.009015 118.265524,21.3082949 C117.477397,20.6075748 117.083333,19.6132004 117.083333,18.3251716 C117.083333,16.8184209 117.638605,15.639753 118.749147,14.789168 C119.85969,13.9385829 121.437934,13.5132904 123.483879,13.5132904 C123.834158,13.5132904 124.248124,13.5740465 124.725776,13.6955586 C124.725776,12.1645055 123.774451,11.398979 121.871801,11.398979 C120.861566,11.398979 119.999642,11.5531779 119.286029,11.8615757 L119.053651,11.9700861 L118.40882,9.61275034 L118.693733,9.48199925 C119.659566,9.06691642 120.786589,8.859375 122.074804,8.859375 Z M135.416667,8.859375 L135.416667,21.9375 L132.443376,21.9375 L132.443376,11.3626576 L130.833333,11.3626576 L130.833333,8.859375 L135.416667,8.859375 Z M88.75,8.859375 L88.75,21.9375 L86.4008408,21.9375 L86.4008408,10.8131565 L84.5833333,10.8131565 L84.5833333,8.859375 L88.75,8.859375 Z M48.2933437,8.859375 C48.6880805,8.859375 49.2569659,8.93129869 50,9.07514608 L50,9.07514608 L49.0828173,11.2927933 L48.9026824,11.171984 C48.4819442,10.9088881 48.058243,10.7773402 47.6315789,10.7773402 C46.8498452,10.7773402 46.1667957,11.1489459 45.5824303,11.8921574 C44.998065,12.6353689 44.7058824,13.5304193 44.7058824,14.5773087 L44.7058824,14.5773087 L44.7058824,21.9375 L42.5,21.9375 L42.5,9.09912065 L44.7058824,9.09912065 L44.7058824,11.1489459 L44.8295569,10.9257128 C45.6313951,9.54815425 46.7859907,8.859375 48.2933437,8.859375 Z M98.1811936,8.859375 C101.060398,8.859375 102.5,10.5695606 102.5,13.9899318 L102.5,13.9899318 L102.5,21.9375 L100.168826,21.9375 L100.168826,14.4694231 L100.165602,14.1828598 C100.137662,12.9682505 99.9281134,12.1067869 99.5369552,11.598469 C99.115708,11.0510498 98.4102212,10.7773402 97.4204947,10.7773402 C96.8888235,10.7773402 96.3326135,10.9331748 95.7518649,11.2448442 C95.1711163,11.5565135 94.7253305,11.9401066 94.4145073,12.3956233 L94.4145073,12.3956233 L94.4145073,21.9375 L92.0833333,21.9375 L92.0833333,9.09912065 L93.6783471,9.09912065 L94.4145073,10.7533656 L94.5399536,10.5592447 C95.3168983,9.42599823 96.5306449,8.859375 98.1811936,8.859375 Z M77.7645269,8.859375 C80.6437312,8.859375 82.0833333,10.5695606 82.0833333,13.9899318 L82.0833333,13.9899318 L82.0833333,21.9375 L79.7521594,21.9375 L79.7521594,14.4694231 C79.7521594,13.1028729 79.5415358,12.1458882 79.1202886,11.598469 C78.6990414,11.0510498 77.9935545,10.7773402 77.003828,10.7773402 C76.4721568,10.7773402 75.9159469,10.9331748 75.3351983,11.2448442 C74.7544497,11.5565135 74.3086638,11.9401066 73.9978406,12.3956233 L73.9978406,12.3956233 L73.9978406,21.9375 L71.6666667,21.9375 L71.6666667,9.09912065 L73.2616804,9.09912065 L73.9978406,10.7533656 C74.766719,9.4907052 76.0222811,8.859375 77.7645269,8.859375 Z M67.9166667,8.859375 L67.9166667,21.9375 L65.5675074,21.9375 L65.5675074,10.8131565 L63.75,10.8131565 L63.75,8.859375 L67.9166667,8.859375 Z M18.75,-1.19015908e-13 L18.75,2.953125 L2.916,2.953 L2.91666667,20.671875 L0,20.671875 L0,-1.19015908e-13 L18.75,-1.19015908e-13 Z M57.1706696,15.4817872 C55.9916303,15.4817872 55.029567,15.7815172 54.2844796,16.3809772 C53.5393923,16.9804371 53.1668486,17.689258 53.1668486,18.5074398 C53.1668486,19.8602751 53.9733443,20.5366927 55.5863355,20.5366927 C56.6916849,20.5366927 57.6782955,20.0489828 58.5461675,19.073563 L58.7181587,18.8719763 L58.7181587,15.7248115 L58.4807132,15.6738064 C57.8693595,15.5457936 57.4326783,15.4817872 57.1706696,15.4817872 Z M123.603292,15.8341725 C121.246873,15.8341725 120.068663,16.6199511 120.068663,18.1915082 C120.068663,19.3580249 120.733396,19.9412832 122.062863,19.9412832 C123.787719,19.9412832 124.68209,19.0961987 124.745973,17.4060297 L124.749659,17.2072598 L124.749659,15.9921383 L124.539102,15.950229 C124.133584,15.872858 123.821648,15.8341725 123.603292,15.8341725 Z M144.905207,11.3484375 C143.683434,11.3484375 142.742669,11.722001 142.082912,12.469128 C141.423155,13.216255 141.093276,14.2879536 141.093276,15.6842238 C141.093276,18.4114415 142.404646,19.7750504 145.027385,19.7750504 C145.32061,19.7750504 145.681033,19.6872732 146.108654,19.5117187 C146.475185,19.3612435 146.732506,19.2092685 146.880614,19.0557938 L146.945568,18.9789315 L146.945568,12.1323085 L146.749229,11.983373 C146.157647,11.5600827 145.542973,11.3484375 144.905207,11.3484375 Z M109.695008,10.4738582 C108.889827,10.4738582 108.233077,10.7578125 107.724756,11.3257212 C107.216435,11.8936298 106.962275,12.5832332 106.962275,13.3945312 C106.962275,14.3031851 107.208302,15.0556641 107.700357,15.6519681 C108.192411,16.2482722 108.857295,16.5464243 109.695008,16.5464243 C110.516454,16.5464243 111.158971,16.2563852 111.62256,15.6763071 C112.086149,15.096229 112.317943,14.335637 112.317943,13.3945312 C112.317943,12.5832332 112.067849,11.8936298 111.567661,11.3257212 C111.067474,10.7578125 110.443256,10.4738582 109.695008,10.4738582 Z M66.6613475,3.796875 C67.0088652,3.796875 67.3049645,3.92074468 67.5496454,4.16848404 C67.7943262,4.4162234 67.9166667,4.71243351 67.9166667,5.05711436 C67.9166667,5.40897606 67.7943262,5.7087766 67.5496454,5.95651596 C67.3049645,6.20425532 67.0088652,6.328125 66.6613475,6.328125 C66.320922,6.328125 66.0283688,6.20425532 65.7836879,5.95651596 C65.5390071,5.7087766 65.4166667,5.40897606 65.4166667,5.05711436 C65.4166667,4.70525266 65.537234,4.40724734 65.7783688,4.1630984 C66.0195035,3.91894947 66.3138298,3.796875 66.6613475,3.796875 Z M86.6613475,3.796875 C87.0088652,3.796875 87.3049645,3.92074468 87.5496454,4.16848404 C87.7943262,4.4162234 87.9166667,4.71243351 87.9166667,5.05711436 C87.9166667,5.40897606 87.7943262,5.7087766 87.5496454,5.95651596 C87.3049645,6.20425532 87.0088652,6.328125 86.6613475,6.328125 C86.320922,6.328125 86.0283688,6.20425532 85.7836879,5.95651596 C85.5390071,5.7087766 85.4166667,5.40897606 85.4166667,5.05711436 C85.4166667,4.70525266 85.537234,4.40724734 85.7783688,4.1630984 C86.0195035,3.91894947 86.3138298,3.796875 86.6613475,3.796875 Z M133.328014,3.796875 C133.675532,3.796875 133.971631,3.92074468 134.216312,4.16848404 C134.460993,4.4162234 134.583333,4.71243351 134.583333,5.05711436 C134.583333,5.40897606 134.460993,5.7087766 134.216312,5.95651596 C133.971631,6.20425532 133.675532,6.328125 133.328014,6.328125 C132.987589,6.328125 132.695035,6.20425532 132.450355,5.95651596 C132.205674,5.7087766 132.083333,5.40897606 132.083333,5.05711436 C132.083333,4.70525266 132.203901,4.40724734 132.445035,4.1630984 C132.68617,3.91894947 132.980496,3.796875 133.328014,3.796875 Z" id="Combined-Shape"></path>
        </g>
    </g>
</svg>