<?xml version="1.0" encoding="UTF-8" standalone="no"?>
<!DOCTYPE svg PUBLIC "-//W3C//DTD SVG 1.1//EN" "http://www.w3.org/Graphics/SVG/1.1/DTD/svg11.dtd">
<svg width="100%" height="100%" viewBox="0 0 567 167" version="1.1" xmlns="http://www.w3.org/2000/svg" xmlns:xlink="http://www.w3.org/1999/xlink" xml:space="preserve" xmlns:serif="http://www.serif.com/" style="fill-rule:evenodd;clip-rule:evenodd;stroke-linejoin:round;stroke-miterlimit:2;">
    <g transform="matrix(4.16667,0,0,4.16667,0,0)">
        <path d="M13.757,24.347C13.757,25.419 14.076,26.309 14.738,27.015C15.376,27.722 16.197,28.064 17.132,28.064C18.181,28.064 19.139,27.95 20.028,27.722L19.709,25.875C19.139,26.149 18.569,26.286 18.021,26.286C17.269,26.286 16.721,26.081 16.379,25.647C16.037,25.237 15.878,24.507 15.878,23.504L15.878,17.575L19.161,17.575L19.161,15.91L15.878,15.91L15.878,12.604L13.757,13.425L13.757,15.91L12.366,15.91L12.366,17.575L13.757,17.575L13.757,24.347Z" style="fill:white;fill-rule:nonzero;"/>
        <path d="M29.411,15.887C28.704,15.751 28.157,15.682 27.769,15.682C26.241,15.682 25.101,16.389 24.326,17.803L24.326,15.91L22.205,15.91L22.205,27.836L24.326,27.836L24.326,20.995C24.326,20.015 24.6,19.194 25.17,18.487C25.74,17.803 26.378,17.461 27.131,17.461C27.61,17.461 28.066,17.621 28.522,17.94L29.411,15.887Z" style="fill:white;fill-rule:nonzero;"/>
        <path d="M38.548,27.677C38.981,27.928 39.62,28.042 40.486,28.042L40.486,26.993C39.871,26.651 39.551,25.944 39.551,24.895L39.551,20.608C39.551,18.898 39.164,17.643 38.366,16.868C37.59,16.07 36.336,15.682 34.603,15.682C33.964,15.682 33.28,15.796 32.573,16.024C31.867,16.275 31.319,16.549 30.909,16.868L31.798,18.647C32.505,17.94 33.531,17.575 34.854,17.575C36.564,17.575 37.431,18.533 37.431,20.471C36.86,20.266 36.359,20.174 35.926,20.174C34.284,20.174 32.938,20.585 31.867,21.429C30.818,22.272 30.293,23.299 30.293,24.507C30.293,25.51 30.635,26.354 31.319,27.038C32.002,27.722 32.824,28.064 33.759,28.064C35.492,28.064 36.792,27.54 37.636,26.468C37.818,27.038 38.115,27.426 38.548,27.677ZM37.431,24.872C36.61,25.898 35.675,26.4 34.603,26.4C33.144,26.4 32.414,25.784 32.414,24.53C32.414,23.777 32.756,23.116 33.417,22.569C34.101,22.022 34.968,21.748 36.04,21.748C36.29,21.748 36.769,21.816 37.431,21.976L37.431,24.872Z" style="fill:white;fill-rule:nonzero;"/>
        <path d="M44.144,11.783C43.893,12.034 43.756,12.33 43.756,12.695C43.756,13.06 43.893,13.379 44.144,13.63C44.394,13.881 44.714,14.018 45.056,14.018C45.42,14.018 45.74,13.881 45.991,13.63C46.241,13.379 46.378,13.06 46.378,12.695C46.378,12.353 46.241,12.034 45.991,11.783C45.74,11.532 45.42,11.395 45.056,11.395C44.691,11.395 44.394,11.532 44.144,11.783ZM46.013,27.836L46.013,15.91L42.251,15.91L42.251,17.689L43.893,17.689L43.893,27.836L46.013,27.836Z" style="fill:white;fill-rule:nonzero;"/>
        <path d="M58.856,27.836L58.856,20.448C58.856,17.278 57.556,15.682 54.933,15.682C53.36,15.682 52.22,16.275 51.513,17.438L50.852,15.91L49.392,15.91L49.392,27.836L51.513,27.836L51.513,18.966C51.787,18.533 52.197,18.191 52.722,17.894C53.246,17.598 53.748,17.461 54.249,17.461C55.139,17.461 55.777,17.712 56.165,18.213C56.552,18.738 56.735,19.627 56.735,20.904L56.735,27.836L58.856,27.836Z" style="fill:white;fill-rule:nonzero;"/>
        <path d="M63.105,11.783C62.855,12.034 62.718,12.33 62.718,12.695C62.718,13.06 62.855,13.379 63.105,13.63C63.356,13.881 63.676,14.018 64.017,14.018C64.382,14.018 64.702,13.881 64.953,13.63C65.203,13.379 65.339,13.06 65.339,12.695C65.339,12.353 65.203,12.034 64.953,11.783C64.702,11.532 64.382,11.395 64.017,11.395C63.653,11.395 63.356,11.532 63.105,11.783ZM64.975,27.836L64.975,15.91L61.213,15.91L61.213,17.689L62.855,17.689L62.855,27.836L64.975,27.836Z" style="fill:white;fill-rule:nonzero;"/>
        <path d="M77.818,27.836L77.818,20.448C77.818,17.278 76.518,15.682 73.895,15.682C72.322,15.682 71.182,16.275 70.475,17.438L69.814,15.91L68.354,15.91L68.354,27.836L70.475,27.836L70.475,18.966C70.749,18.533 71.159,18.191 71.683,17.894C72.208,17.598 72.71,17.461 73.211,17.461C74.101,17.461 74.739,17.712 75.127,18.213C75.514,18.738 75.697,19.627 75.697,20.904L75.697,27.836L77.818,27.836Z" style="fill:white;fill-rule:nonzero;"/>
        <path d="M82.432,32.101C83.299,32.374 84.097,32.511 84.872,32.511C86.377,32.511 87.631,32.169 88.612,31.508C89.592,30.824 90.094,29.934 90.094,28.84C90.094,27.836 89.775,27.061 89.114,26.514C88.452,25.944 87.54,25.67 86.354,25.67C86.035,25.67 85.533,25.716 84.849,25.83C84.188,25.944 83.686,26.012 83.367,26.012C82.637,26.012 82.273,25.853 82.273,25.556C82.273,25.328 82.455,25.146 82.797,25.009C83.139,24.872 83.413,24.804 83.618,24.781L85.374,24.598C86.605,24.484 87.586,24.005 88.338,23.185C89.091,22.386 89.456,21.36 89.456,20.152C89.456,19.034 89.182,18.099 88.635,17.392L89.912,16.435L88.521,15.135L87.472,16.412C86.81,15.933 85.898,15.682 84.713,15.682C83.436,15.682 82.364,16.093 81.497,16.936C80.631,17.757 80.198,18.806 80.198,20.06C80.198,21.999 81.041,23.367 82.706,24.165C82.136,24.302 81.634,24.53 81.246,24.849C80.859,25.168 80.654,25.533 80.654,25.921C80.654,27.198 81.497,27.836 83.185,27.836C83.55,27.836 84.028,27.768 84.644,27.654C85.283,27.54 85.716,27.472 85.944,27.472C87.335,27.472 88.042,27.95 88.042,28.908C88.042,29.41 87.768,29.82 87.221,30.14C86.651,30.482 85.898,30.641 84.941,30.641C83.892,30.641 82.774,30.231 81.52,29.41L80.38,31.097C80.904,31.485 81.589,31.827 82.432,32.101ZM86.582,18.168C87.039,18.692 87.267,19.331 87.267,20.06C87.267,20.927 87.061,21.634 86.628,22.158C86.195,22.683 85.625,22.956 84.872,22.956C84.097,22.956 83.481,22.683 83.048,22.136C82.592,21.588 82.364,20.904 82.364,20.06C82.364,19.331 82.592,18.692 83.071,18.168C83.527,17.643 84.12,17.392 84.872,17.392C85.556,17.392 86.126,17.643 86.582,18.168Z" style="fill:white;fill-rule:nonzero;"/>
        <path d="M99.962,27.607C100.282,27.904 100.646,28.064 101.057,28.064C101.422,28.064 101.741,28.018 102.015,27.927C102.311,27.836 102.562,27.585 102.79,27.174C102.151,26.764 101.832,25.76 101.832,24.187L101.832,21.633C101.832,19.33 101.399,17.756 100.555,16.913C99.712,16.092 98.389,15.681 96.565,15.681C95.242,15.681 94.102,15.909 93.144,16.365L93.737,18.532C94.444,18.19 95.333,18.007 96.359,18.007C98.138,18.007 99.027,18.714 99.027,20.105C98.594,19.991 98.207,19.946 97.864,19.946C95.972,19.946 94.49,20.333 93.463,21.109C92.437,21.907 91.913,22.978 91.913,24.369C91.913,25.532 92.278,26.467 93.007,27.106C93.76,27.744 94.763,28.064 96.04,28.064C96.724,28.064 97.386,27.927 98.001,27.676C98.64,27.402 99.073,27.06 99.324,26.65C99.438,26.992 99.643,27.311 99.962,27.607ZM99.05,23.32C99.05,25.008 98.207,25.852 96.542,25.852C95.311,25.852 94.695,25.304 94.695,24.233C94.695,22.796 95.789,22.066 97.978,22.066C98.229,22.066 98.571,22.112 99.05,22.203L99.05,23.32Z" style="fill:white;fill-rule:nonzero;"/>
        <path d="M105.862,11.759C105.543,12.078 105.383,12.443 105.383,12.899C105.383,13.355 105.543,13.72 105.862,14.04C106.181,14.359 106.546,14.518 107.002,14.518C107.458,14.518 107.823,14.359 108.142,14.04C108.461,13.72 108.621,13.355 108.621,12.899C108.621,12.443 108.461,12.078 108.142,11.759C107.823,11.44 107.458,11.28 107.002,11.28C106.546,11.28 106.181,11.44 105.862,11.759ZM108.393,27.836L108.393,15.909L104.038,15.909L104.038,18.19L105.565,18.19L105.565,27.836L108.393,27.836Z" style="fill:white;fill-rule:nonzero;"/>
        <path d="M122.106,27.836L122.106,10.801L119.324,11.463L119.324,16.229C118.572,15.864 117.751,15.681 116.861,15.681C115.197,15.681 113.828,16.274 112.734,17.46C111.639,18.646 111.092,20.174 111.092,22.066C111.092,23.959 111.571,25.418 112.529,26.49C113.486,27.539 114.786,28.064 116.451,28.064C117.044,28.064 117.614,27.972 118.161,27.767C118.708,27.585 119.096,27.357 119.324,27.106L119.324,27.836L122.106,27.836ZM119.324,24.985C119.21,25.145 118.959,25.304 118.572,25.464C118.161,25.624 117.842,25.715 117.568,25.715C115.174,25.715 113.988,24.483 113.988,21.998C113.988,20.721 114.285,19.74 114.9,19.079C115.493,18.395 116.36,18.053 117.454,18.053C118.115,18.053 118.731,18.281 119.324,18.76L119.324,24.985Z" style="fill:white;fill-rule:nonzero;"/>
        <rect x="0" y="0.03" width="27.129" height="4.237" style="fill:white;fill-rule:nonzero;"/>
        <rect x="0" y="4.11" width="4.25" height="25.777" style="fill:white;fill-rule:nonzero;"/>
        <rect x="108.745" y="35.843" width="27.251" height="4.153" style="fill:white;fill-rule:nonzero;"/>
        <rect x="131.83" y="10.138" width="4.166" height="25.861" style="fill:white;fill-rule:nonzero;"/>
    </g>
</svg>
