<?xml version="1.0" encoding="UTF-8" standalone="no"?><!DOCTYPE svg PUBLIC "-//W3C//DTD SVG 1.1//EN" "http://www.w3.org/Graphics/SVG/1.1/DTD/svg11.dtd"><svg width="100%" height="100%" viewBox="0 0 677 120" version="1.1" xmlns="http://www.w3.org/2000/svg" xmlns:xlink="http://www.w3.org/1999/xlink" xml:space="preserve" xmlns:serif="http://www.serif.com/" style="fill-rule:evenodd;clip-rule:evenodd;stroke-linejoin:round;stroke-miterlimit:2;"><rect id="logo-2-white" serif:id="logo 2 white" x="0" y="-0" width="676.617" height="119.765" style="fill:none;"/><g id="text"><path d="M168.579,78.813c-0,4.932 1.483,9.025 4.561,12.273c2.967,3.252 6.785,4.825 11.132,4.825c4.878,0 9.333,-0.524 13.467,-1.573l-1.484,-8.496c-2.65,1.26 -5.301,1.891 -7.849,1.891c-3.496,-0 -6.045,-0.943 -7.635,-2.94c-1.59,-1.886 -2.33,-5.244 -2.33,-9.857l0,-27.273l15.266,-0l0,-7.659l-15.266,-0l0,-15.208l-9.862,3.777l-0,11.431l-6.468,-0l-0,7.659l6.468,-0l-0,31.15Z" style="fill:#fff;fill-rule:nonzero;"/><path d="M241.369,39.898c-3.287,-0.626 -5.831,-0.943 -7.635,-0.943c-7.105,-0 -12.406,3.252 -16.01,9.756l0,-8.707l-9.862,-0l-0,54.859l9.862,-0l0,-31.469c0,-4.508 1.274,-8.284 3.925,-11.536c2.65,-3.147 5.617,-4.72 9.118,-4.72c2.228,0 4.348,0.736 6.469,2.204l4.133,-9.444Z" style="fill:#fff;fill-rule:nonzero;"/><path d="M283.856,94.131c2.013,1.155 4.985,1.679 9.012,1.679l-0,-4.825c-2.86,-1.573 -4.348,-4.825 -4.348,-9.651l-0,-19.72c-0,-7.866 -1.8,-13.639 -5.51,-17.204c-3.609,-3.67 -9.44,-5.455 -17.498,-5.455c-2.971,-0 -6.152,0.524 -9.439,1.573c-3.283,1.155 -5.832,2.415 -7.738,3.882l4.134,8.184c3.287,-3.252 8.058,-4.931 14.21,-4.931c7.952,-0 11.983,4.406 11.983,13.321c-2.655,-0.943 -4.985,-1.366 -6.998,-1.366c-7.635,-0 -13.894,1.89 -18.874,5.773c-4.878,3.878 -7.319,8.602 -7.319,14.158c-0,4.614 1.59,8.496 4.77,11.643c3.176,3.146 6.999,4.719 11.346,4.719c8.059,0 14.104,-2.41 18.028,-7.341c0.847,2.622 2.228,4.407 4.241,5.561Zm-5.194,-12.903c-3.818,4.72 -8.165,7.029 -13.15,7.029c-6.784,0 -10.179,-2.833 -10.179,-8.602c0,-3.464 1.59,-6.504 4.664,-9.02c3.181,-2.516 7.212,-3.777 12.197,-3.777c1.162,0 3.39,0.313 6.468,1.049l0,13.321Z" style="fill:#fff;fill-rule:nonzero;"/><path d="M309.877,21.02c-1.167,1.154 -1.804,2.516 -1.804,4.195c0,1.679 0.637,3.146 1.804,4.301c1.163,1.154 2.651,1.785 4.241,1.785c1.693,-0 3.181,-0.631 4.348,-1.785c1.162,-1.155 1.799,-2.622 1.799,-4.301c0,-1.573 -0.637,-3.041 -1.799,-4.195c-1.167,-1.155 -2.655,-1.785 -4.348,-1.785c-1.697,-0 -3.078,0.63 -4.241,1.785Zm8.691,73.843l0,-54.859l-17.493,-0l-0,8.183l7.635,-0l0,46.676l9.858,-0Z" style="fill:#fff;fill-rule:nonzero;"/><path d="M378.287,94.863l0,-33.985c0,-14.582 -6.044,-21.923 -18.241,-21.923c-7.315,-0 -12.616,2.728 -15.903,8.077l-3.074,-7.028l-6.789,-0l0,54.859l9.863,-0l-0,-40.802c1.274,-1.992 3.18,-3.565 5.622,-4.931c2.436,-1.362 4.77,-1.992 7.1,-1.992c4.139,0 7.105,1.155 8.909,3.459c1.8,2.415 2.651,6.505 2.651,12.379l-0,31.887l9.862,-0Z" style="fill:#fff;fill-rule:nonzero;"/><path d="M398.045,21.02c-1.162,1.154 -1.799,2.516 -1.799,4.195c-0,1.679 0.637,3.146 1.799,4.301c1.167,1.154 2.655,1.785 4.241,1.785c1.697,-0 3.185,-0.631 4.352,-1.785c1.163,-1.155 1.795,-2.622 1.795,-4.301c0,-1.573 -0.632,-3.041 -1.795,-4.195c-1.167,-1.155 -2.655,-1.785 -4.352,-1.785c-1.693,-0 -3.074,0.63 -4.241,1.785Zm8.696,73.843l-0,-54.859l-17.494,-0l0,8.183l7.636,-0l-0,46.676l9.858,-0Z" style="fill:#fff;fill-rule:nonzero;"/><path d="M466.46,94.863l0,-33.985c0,-14.582 -6.045,-21.923 -18.242,-21.923c-7.314,-0 -12.615,2.728 -15.903,8.077l-3.073,-7.028l-6.789,-0l-0,54.859l9.862,-0l0,-40.802c1.274,-1.992 3.181,-3.565 5.618,-4.931c2.441,-1.362 4.775,-1.992 7.105,-1.992c4.138,0 7.105,1.155 8.909,3.459c1.8,2.415 2.65,6.505 2.65,12.379l0,31.887l9.863,-0Z" style="fill:#fff;fill-rule:nonzero;"/><path d="M487.915,114.481c4.032,1.256 7.742,1.886 11.346,1.886c6.998,0 12.829,-1.573 17.391,-4.613c4.557,-3.147 6.891,-7.241 6.891,-12.273c-0,-4.618 -1.483,-8.183 -4.557,-10.7c-3.078,-2.621 -7.319,-3.882 -12.834,-3.882c-1.483,0 -3.818,0.212 -6.998,0.736c-3.074,0.525 -5.408,0.837 -6.891,0.837c-3.395,0 -5.087,-0.731 -5.087,-2.097c-0,-1.049 0.846,-1.886 2.436,-2.516c1.591,-0.631 2.865,-0.943 3.818,-1.049l8.165,-0.842c5.724,-0.524 10.286,-2.728 13.783,-6.5c3.501,-3.675 5.198,-8.395 5.198,-13.951c0,-5.143 -1.274,-9.444 -3.817,-12.696l5.938,-4.402l-6.468,-5.98l-4.878,5.874c-3.078,-2.203 -7.319,-3.358 -12.829,-3.358c-5.938,-0 -10.923,1.89 -14.955,5.768c-4.027,3.777 -6.04,8.602 -6.04,14.37c-0,8.92 3.92,15.212 11.662,18.883c-2.65,0.63 -4.985,1.679 -6.789,3.147c-1.799,1.467 -2.753,3.146 -2.753,4.931c0,5.874 3.92,8.809 11.769,8.809c1.698,-0 3.92,-0.313 6.785,-0.838c2.971,-0.524 4.984,-0.837 6.045,-0.837c6.468,0 9.755,2.199 9.755,6.606c0,2.309 -1.274,4.195 -3.817,5.667c-2.651,1.573 -6.152,2.304 -10.602,2.304c-4.878,0 -10.077,-1.886 -15.908,-5.662l-5.301,7.76c2.437,1.785 5.622,3.358 9.542,4.618Zm19.297,-64.091c2.125,2.411 3.186,5.35 3.186,8.703c-0,3.989 -0.958,7.241 -2.972,9.651c-2.013,2.415 -4.664,3.671 -8.165,3.671c-3.604,-0 -6.468,-1.256 -8.482,-3.772c-2.12,-2.521 -3.18,-5.667 -3.18,-9.55c-0,-3.353 1.06,-6.292 3.287,-8.703c2.121,-2.415 4.878,-3.569 8.375,-3.569c3.18,-0 5.831,1.154 7.951,3.569Z" style="fill:#fff;fill-rule:nonzero;"/><path d="M569.429,93.809c1.488,1.366 3.18,2.102 5.092,2.102c1.697,0 3.18,-0.211 4.454,-0.63c1.377,-0.418 2.544,-1.573 3.604,-3.464c-2.971,-1.886 -4.455,-6.504 -4.455,-13.74l0,-11.748c0,-10.593 -2.013,-17.834 -5.938,-21.712c-3.92,-3.776 -10.072,-5.667 -18.553,-5.667c-6.152,0 -11.453,1.049 -15.908,3.147l2.758,9.968c3.287,-1.573 7.421,-2.415 12.192,-2.415c8.272,-0 12.406,3.252 12.406,9.65c-2.013,-0.524 -3.813,-0.731 -5.408,-0.731c-8.798,0 -15.689,1.78 -20.464,5.35c-4.771,3.671 -7.208,8.597 -7.208,14.996c0,5.349 1.698,9.65 5.087,12.59c3.502,2.934 8.166,4.406 14.104,4.406c3.18,0 6.259,-0.63 9.118,-1.784c2.972,-1.261 4.985,-2.834 6.152,-4.72c0.53,1.573 1.483,3.041 2.967,4.402Zm-4.241,-19.72c0,7.765 -3.92,11.647 -11.662,11.647c-5.724,0 -8.589,-2.52 -8.589,-7.447c0,-6.61 5.088,-9.968 15.266,-9.968c1.167,-0 2.758,0.212 4.985,0.63l0,5.138Z" style="fill:#fff;fill-rule:nonzero;"/><path d="M596.864,20.909c-1.484,1.468 -2.228,3.147 -2.228,5.244c0,2.098 0.744,3.777 2.228,5.249c1.483,1.467 3.18,2.199 5.301,2.199c2.12,-0 3.817,-0.732 5.3,-2.199c1.484,-1.472 2.228,-3.151 2.228,-5.249c-0,-2.097 -0.744,-3.776 -2.228,-5.244c-1.483,-1.467 -3.18,-2.203 -5.3,-2.203c-2.121,-0 -3.818,0.736 -5.301,2.203Zm11.769,73.954l-0,-54.864l-20.251,0l0,10.493l7.101,-0l-0,44.371l13.15,-0Z" style="fill:#fff;fill-rule:nonzero;"/><path d="M672.398,94.863l-0,-78.36l-12.937,3.045l0,21.923c-3.496,-1.679 -7.314,-2.521 -11.452,-2.521c-7.738,0 -14.104,2.728 -19.191,8.184c-5.092,5.455 -7.635,12.484 -7.635,21.187c-0,8.708 2.227,15.419 6.682,20.35c4.45,4.825 10.495,7.24 18.237,7.24c2.757,0 5.408,-0.423 7.951,-1.366c2.544,-0.837 4.348,-1.886 5.408,-3.04l0,3.358l12.937,-0Zm-12.937,-13.115c-0.53,0.736 -1.697,1.468 -3.496,2.204c-1.912,0.736 -3.395,1.154 -4.669,1.154c-11.132,0 -16.647,-5.667 -16.647,-17.098c0,-5.874 1.381,-10.387 4.241,-13.427c2.757,-3.146 6.789,-4.72 11.876,-4.72c3.074,0 5.938,1.049 8.695,3.253l0,28.634Z" style="fill:#fff;fill-rule:nonzero;"/></g><path d="M113.722,92.979l-66.441,0l0,14.575l81.012,-0l-0,-12.993l0.004,0l0,-76.889l-14.575,0l0,75.307Zm-110.299,-0.629l0,-89.748l80.658,-0l-0,14.575l-66.083,-0l0,75.173l-14.575,0Z" style="fill:#fff;"/></svg>