<?xml version="1.0" encoding="UTF-8"?>
<svg width="24px" height="24px" viewBox="0 0 24 24" version="1.1" xmlns="http://www.w3.org/2000/svg" xmlns:xlink="http://www.w3.org/1999/xlink">
    <title>icon/course/forum/trash_24px</title>
    <defs>
        <rect id="path-1" x="0" y="0" width="24" height="24"></rect>
    </defs>
    <g id="icon/course/forum/trash_24px" stroke="none" stroke-width="1" fill="none" fill-rule="evenodd">
        <mask id="mask-2" fill="white">
            <use xlink:href="#path-1"></use>
        </mask>
        <g id="Background/Mask"></g>
        <g id="Trash" mask="url(#mask-2)">
            <g transform="translate(4.500000, 3.000000)" id="Shape">
                <g stroke-width="1" fill="none">
                    <path d="M15.6,3.6 C15.6,4.2627417 15.0627417,4.8 14.4,4.8 L13.8,4.8 L13.8,15.6 C13.8,16.9254834 12.7254834,18 11.4,18 L4.2,18 C2.8745166,18 1.8,16.9254834 1.8,15.6 L1.8,4.8 L1.2,4.8 C0.5372583,4.8 0,4.2627417 0,3.6 L0,2.4 C0,1.7372583 0.5372583,1.2 1.2,1.2 L5.4,1.2 C5.4,0.5372583 5.9372583,0 6.6,0 L9,0 C9.6627417,0 10.2,0.5372583 10.2,1.2 L14.4,1.2 C15.0627417,1.2 15.6,1.7372583 15.6,2.4 L15.6,3.6 Z" id="Path" fill="#495057"></path>
                    <path d="M3.1416,4.8 L3,4.8708 L3,15.6 C3,16.2627417 3.5372583,16.8 4.2,16.8 L11.4,16.8 C12.0627417,16.8 12.6,16.2627417 12.6,15.6 L12.6,4.8708 L12.4584,4.8 L3.1416,4.8 Z" id="Path" fill="#FFFFFF" fill-rule="nonzero"></path>
                    <polygon id="Path" fill="#FFFFFF" fill-rule="nonzero" points="1.2 3.6 1.2 2.4 14.4 2.4 14.4 3.6"></polygon>
                </g>
                <path d="M4.8,6.6 C5.13137085,6.6 5.4,6.86862915 5.4,7.2 L5.4,14.4 C5.4,14.7313708 5.13137085,15 4.8,15 C4.46862915,15 4.2,14.7313708 4.2,14.4 L4.2,7.2 C4.2,6.86862915 4.46862915,6.6 4.8,6.6 Z M7.8,6.6 C8.13137085,6.6 8.4,6.86862915 8.4,7.2 L8.4,14.4 C8.4,14.7313708 8.13137085,15 7.8,15 C7.46862915,15 7.2,14.7313708 7.2,14.4 L7.2,7.2 C7.2,6.86862915 7.46862915,6.6 7.8,6.6 Z M11.4,7.2 C11.4,6.86862915 11.1313708,6.6 10.8,6.6 C10.4686292,6.6 10.2,6.86862915 10.2,7.2 L10.2,14.4 C10.2,14.7313708 10.4686292,15 10.8,15 C11.1313708,15 11.4,14.7313708 11.4,14.4 L11.4,7.2 Z" fill="#495057"></path>
            </g>
        </g>
    </g>
</svg>