<?xml version="1.0" encoding="UTF-8"?>
<svg width="32px" height="32px" viewBox="0 0 32 32" version="1.1" xmlns="http://www.w3.org/2000/svg" xmlns:xlink="http://www.w3.org/1999/xlink">
    <title>DBF93005-D56A-4A92-B7AA-939C93C482A2</title>
    <defs>
        <rect id="path-1" x="0" y="0" width="32" height="32"></rect>
    </defs>
    <g id="course-pages" stroke="none" stroke-width="1" fill="none" fill-rule="evenodd">
        <g id="Course---Main" transform="translate(-316.000000, -588.000000)">
            <polygon id="bg" fill="none" points="0 6872 1920 6872 1920 216 0 216"></polygon>
            <g id="course/navi/sidebar" transform="translate(304.000000, 360.000000)">
                <g id="Menu-0.4" transform="translate(0.000000, 224.000000)">
                    <polygon id="bg_unit" fill="none" points="0 40 416 40 416 0 0 0"></polygon>
                    <polygon id="bg_icon" fill="none" points="0 40 56 40 56 0 0 0"></polygon>
                    <g id="icon/course/camera_24px" transform="translate(12.000000, 4.000000)">
                        <mask id="mask-2" fill="white">
                            <use xlink:href="#path-1"></use>
                        </mask>
                        <g id="Background/Mask"></g>
                        <path d="M2.66666667,10 C2.66666667,8.15905083 4.15905083,6.66666667 6,6.66666667 L18.5,6.66666667 C20.1723134,6.66646995 21.585927,7.90543127 21.805,9.56333333 L26.9883333,7.26 C27.5038093,7.03031714 28.1004996,7.07708356 28.5738977,7.3842708 C29.0472958,7.69145804 29.3333333,8.21733548 29.3333333,8.78166667 L29.3333333,21.2183333 C29.3328411,21.7822093 29.0472688,22.3076001 28.5743521,22.6146932 C28.1014355,22.9217863 27.5053112,22.9689339 26.99,22.74 L21.805,20.4366667 C21.585927,22.0945687 20.1723134,23.33353 18.5,23.3333333 L6,23.3333333 C4.15905083,23.3333333 2.66666667,21.8409492 2.66666667,20 L2.66666667,10 Z M21.8333333,18.625 L27.6666667,21.2183333 L27.6666667,8.78166667 L21.8333333,11.375 L21.8333333,18.625 Z M6,8.33333333 C5.07952542,8.33333333 4.33333333,9.07952542 4.33333333,10 L4.33333333,20 C4.33333333,20.9204746 5.07952542,21.6666667 6,21.6666667 L18.5,21.6666667 C19.4204746,21.6666667 20.1666667,20.9204746 20.1666667,20 L20.1666667,10 C20.1666667,9.07952542 19.4204746,8.33333333 18.5,8.33333333 L6,8.33333333 Z" id="color" fill="#FFFFFF" mask="url(#mask-2)"></path>
                    </g>
                </g>
            </g>
        </g>
    </g>
</svg>
