<svg width="202" height="202" viewBox="0 0 202 202" fill="none" xmlns="http://www.w3.org/2000/svg">
<g clip-path="url(#clip0_229_16349)">
<path d="M115.555 84.7535V117.12L112.062 112.442V89.4736L115.555 84.7535ZM124.994 73.4167V128.373C126.116 129.426 127.281 130.396 128.487 131.323V70.4667C127.281 71.3938 126.116 72.3631 124.994 73.4167ZM137.925 64.9036V137.012C139.09 137.518 140.254 137.982 141.418 138.403V63.555C140.212 63.9343 139.048 64.3979 137.925 64.9036ZM176.679 66.5894V135.411C177.885 134.779 179.049 134.062 180.172 133.304V68.6966C179.049 67.938 177.885 67.2216 176.679 66.5894ZM150.816 61.49V140.468C151.98 140.594 153.144 140.679 154.308 140.721V61.2792C153.144 61.2792 151.98 61.3635 150.816 61.49ZM163.747 62.0378V139.962C164.911 139.752 166.076 139.457 167.24 139.162V62.8386C166.117 62.5014 164.953 62.2486 163.747 62.0378ZM189.61 77.294V124.664C190.899 123.02 192.064 121.335 193.103 119.522V82.4356C192.064 80.6655 190.899 78.9376 189.61 77.294ZM60.377 63.5129V138.487C61.5413 138.108 62.7056 137.644 63.8698 137.139V64.9036C62.7471 64.3979 61.5413 63.9343 60.377 63.5129ZM47.4454 61.2792V140.721C48.6096 140.679 49.7739 140.637 50.9382 140.51V61.49C49.7739 61.3635 48.6096 61.2792 47.4454 61.2792ZM73.2671 70.5509V131.702C74.473 130.817 75.6372 129.848 76.7599 128.794V73.5432C75.6788 72.5317 74.5145 71.5203 73.2671 70.5509ZM21.5821 68.8652V133.135C22.7047 133.894 23.869 134.61 25.0748 135.284V66.7158C23.869 67.3901 22.7047 68.1066 21.5821 68.8652ZM34.5137 62.8807V139.077C35.678 139.414 36.8422 139.667 38.0065 139.878V62.08C36.8007 62.2907 35.6364 62.5857 34.5137 62.8807ZM8.65039 82.8992V119.101C9.64833 120.955 10.8542 122.725 12.1432 124.369V77.6312C10.8542 79.3169 9.68991 81.0448 8.65039 82.8992ZM86.1988 117.584L89.6916 112.864V89.2629L86.1988 84.5849V117.584Z" fill="#0E53F5"/>
<path d="M193.102 75.3132C192.021 73.9224 190.856 72.5738 189.609 71.3095C186.823 68.4858 183.663 65.9993 180.17 63.9343C179.047 63.2599 177.883 62.6278 176.677 62.0378C173.683 60.6049 170.565 59.467 167.238 58.6241C166.074 58.3291 164.91 58.0762 163.746 57.9076C161.043 57.4862 158.215 57.2333 155.346 57.2333C155.014 57.2333 154.639 57.2333 154.307 57.2333C153.142 57.2755 151.978 57.3176 150.814 57.4441C147.612 57.7391 144.452 58.3712 141.417 59.3405C140.252 59.7198 139.088 60.0991 137.924 60.5627C134.639 61.8692 131.479 63.5128 128.485 65.5357C127.279 66.3365 126.115 67.2215 124.992 68.1065C121.79 70.7195 118.838 73.7117 116.26 77.1254L115.553 78.0525L112.061 82.7727L103.661 94.0673C103.536 94.2359 103.536 94.4466 103.661 94.6152L105.615 97.2281C105.782 97.481 106.156 97.481 106.322 97.2281L112.061 89.4736L115.553 84.7535L119.379 79.5697C121.084 77.3361 122.955 75.271 124.992 73.3745C126.115 72.3209 127.279 71.3516 128.485 70.4244C131.437 68.1908 134.597 66.2943 137.924 64.8614C139.088 64.3557 140.252 63.8921 141.417 63.5128C144.452 62.5014 147.612 61.7849 150.855 61.4477C152.02 61.3213 153.184 61.237 154.348 61.237C154.681 61.237 155.055 61.237 155.388 61.237C158.257 61.237 161.084 61.4899 163.787 61.9956C164.951 62.2063 166.116 62.5014 167.28 62.7964C170.606 63.6814 173.767 64.9457 176.719 66.5472C177.925 67.1794 179.089 67.8958 180.212 68.6544C183.829 71.0566 186.989 73.9646 189.65 77.2939C190.939 78.9376 192.104 80.6233 193.143 82.4355C196.303 87.9564 198.091 94.278 198.091 100.979C198.091 107.68 196.303 113.959 193.143 119.522C192.104 121.335 190.939 123.062 189.65 124.664C186.989 127.993 183.829 130.901 180.212 133.303C179.089 134.062 177.925 134.736 176.719 135.411C173.767 137.012 170.606 138.276 167.28 139.162C166.116 139.457 164.951 139.752 163.787 139.962C161.084 140.468 158.257 140.721 155.388 140.721C155.055 140.721 154.681 140.721 154.348 140.721C153.184 140.679 152.02 140.594 150.855 140.468C147.654 140.131 144.494 139.414 141.417 138.361C140.252 137.939 139.088 137.476 137.924 136.97C134.597 135.495 131.437 133.598 128.485 131.323C127.279 130.396 126.115 129.426 124.992 128.373C122.747 126.308 120.668 123.99 118.755 121.419L115.553 117.12L112.061 112.442L106.572 105.109L97.7567 93.3508L89.69 82.562L86.7793 78.6847C86.5714 78.4318 86.4051 78.179 86.1972 77.9261C83.3281 74.2174 80.168 70.9302 76.7583 68.1908C75.6357 67.2636 74.4714 66.3786 73.2655 65.5779C70.2717 63.5128 67.1116 61.827 63.8267 60.5206C62.6624 60.057 61.4981 59.6356 60.3339 59.2984C57.2569 58.3291 54.1383 57.6969 50.895 57.4019C49.7308 57.2755 48.5665 57.2333 47.4022 57.2333C47.1527 57.2333 46.8617 57.2333 46.6122 57.2333C43.6599 57.2333 40.7493 57.4862 37.9634 57.9919C36.7991 58.2027 35.6348 58.4555 34.4706 58.7505C31.1857 59.5934 28.0255 60.7734 25.0317 62.2063C23.8259 62.7964 22.6616 63.4285 21.5389 64.1028C18.0461 66.21 14.886 68.6965 12.1 71.5623C10.8526 72.8688 9.68835 74.2174 8.60725 75.6082C3.20173 82.7727 0 91.5387 0 100.979C0 110.419 3.20173 119.185 8.64883 126.35C9.72993 127.783 10.8942 129.131 12.1416 130.396C14.9275 133.261 18.0877 135.79 21.5805 137.855C22.7032 138.529 23.8674 139.162 25.0733 139.752C28.0255 141.227 31.1857 142.364 34.5121 143.207C35.6764 143.502 36.8407 143.755 38.0049 143.966C40.7909 144.472 43.7015 144.725 46.6538 144.725C46.9032 144.725 47.1943 144.725 47.4438 144.725C48.6081 144.725 49.7723 144.64 50.9366 144.556C54.1383 144.261 57.2985 143.629 60.3755 142.702C61.5397 142.364 62.704 141.943 63.8683 141.479C67.1531 140.215 70.3133 138.571 73.3071 136.549C74.513 135.748 75.6772 134.905 76.7999 134.02C79.8769 131.576 82.7044 128.752 85.2408 125.549L86.2388 124.242L89.7316 119.522L98.3388 107.933C98.4636 107.764 98.4636 107.553 98.3388 107.385L96.3845 104.772C96.2182 104.519 95.844 104.519 95.6776 104.772L89.69 112.821L86.1972 117.542L82.1223 123.062C80.459 125.128 78.6711 127.024 76.7999 128.752C75.6772 129.763 74.513 130.733 73.3071 131.66C70.3549 133.894 67.1947 135.706 63.8683 137.139C62.704 137.644 61.5397 138.066 60.3755 138.487C57.3401 139.499 54.1799 140.173 50.9366 140.51C49.7723 140.637 48.6081 140.679 47.4438 140.721C47.1943 140.721 46.9032 140.721 46.6538 140.721C43.7015 140.721 40.7909 140.426 38.0049 139.92C36.8407 139.709 35.6764 139.414 34.5121 139.119C31.1857 138.192 28.0255 136.886 25.0733 135.284C23.8674 134.61 22.7032 133.894 21.5805 133.135C17.9629 130.691 14.7612 127.74 12.1416 124.369C10.8526 122.683 9.64677 120.955 8.64883 119.101C5.655 113.664 3.95019 107.511 3.95019 101.021C3.95019 94.5309 5.655 88.3778 8.64883 82.9413C9.64677 81.0869 10.8526 79.3169 12.1416 77.6732C14.7612 74.3017 17.9629 71.3516 21.5805 68.9073C22.7032 68.1487 23.8674 67.4322 25.0733 66.7579C28.0255 65.1564 31.1857 63.85 34.5121 62.9228C35.6764 62.5856 36.8407 62.3328 38.0049 62.1221C40.7909 61.5742 43.7015 61.3213 46.6538 61.3213C46.9032 61.3213 47.1943 61.3213 47.4438 61.3213C48.6496 61.3635 49.8139 61.4056 50.9366 61.532C54.3046 61.8692 57.4648 62.5856 60.3755 63.5971C61.5813 64.0185 62.7456 64.4821 63.8683 64.9457C67.4442 66.5472 70.5628 68.528 73.3071 70.6352C74.5545 71.6045 75.7188 72.5738 76.7999 73.5853C79.7106 76.2403 81.9975 78.9797 83.6608 81.2133L86.2388 84.6692L89.7316 89.3472L92.268 92.7608L103.578 107.848L112.102 119.227L115.595 123.905L115.636 123.947C118.422 127.698 121.583 130.986 125.034 133.767C126.156 134.694 127.321 135.579 128.527 136.38C131.52 138.403 134.681 140.089 137.965 141.437C139.13 141.901 140.294 142.322 141.458 142.702C144.535 143.671 147.695 144.303 150.897 144.64C152.061 144.767 153.226 144.809 154.39 144.851C154.723 144.851 155.097 144.851 155.429 144.851C158.298 144.851 161.084 144.598 163.829 144.135C164.993 143.924 166.157 143.671 167.322 143.418C170.606 142.617 173.767 141.437 176.76 140.004C177.966 139.414 179.13 138.782 180.253 138.108C183.746 136.043 186.906 133.556 189.692 130.733C190.939 129.468 192.104 128.12 193.185 126.729C198.798 119.522 202.083 110.63 202.083 101.063C202.083 91.4965 198.715 82.5198 193.102 75.3132Z" fill="#0E53F5"/>
</g>
<defs>
<clipPath id="clip0_229_16349">
<rect width="202" height="87.5333" fill="white" transform="translate(0 57.2333)"/>
</clipPath>
</defs>
</svg>
