<svg width="360" height="349" viewBox="0 0 360 349" fill="none" xmlns="http://www.w3.org/2000/svg">
<g clip-path="url(#clip0_116_8294)">
<g opacity="0.07" filter="url(#filter0_f_116_8294)">
<path d="M204.233 321L332.447 234.094L344 227.259L204.233 141L92.8174 208.706L58 227.259L204.233 321Z" fill="#575A70"/>
</g>
<path d="M306.98 224.437L306.944 236.557L183.475 308.36L183.51 296.239L306.98 224.437Z" fill="#C8C8D5"/>
<path d="M306.98 224.437L306.944 236.557L183.475 308.36L183.51 296.239L306.98 224.437Z" fill="#DFE4FE"/>
<path d="M183.511 296.239L183.476 308.36L48.377 230.358L48.4127 218.247L183.511 296.239Z" fill="#DCDCE4"/>
<path d="M183.511 296.239L183.476 308.36L48.377 230.358L48.4127 218.247L183.511 296.239Z" fill="#DFE4FE"/>
<path d="M306.981 224.437L183.511 296.239L48.4121 218.247L171.882 146.444L306.981 224.437Z" fill="#F9F7FC"/>
<path d="M306.981 224.437L183.511 296.239L48.4121 218.247L171.882 146.444L306.981 224.437Z" fill="url(#paint0_linear_116_8294)"/>
<path d="M295.977 205.956L295.941 218.077L182.4 284.056L182.436 271.944L295.977 205.956Z" fill="#C8C8D5"/>
<path d="M295.977 205.956L295.941 218.077L182.4 284.056L182.436 271.944L295.977 205.956Z" fill="#DFE4FE"/>
<path d="M182.435 271.944L182.399 284.056L68.125 218.086L68.1608 205.965L182.435 271.944Z" fill="#DFE4FE"/>
<path d="M295.975 205.956L182.434 271.944L68.1602 205.965L181.701 139.985L295.975 205.956Z" fill="url(#paint1_linear_116_8294)"/>
<path d="M295.975 205.956L182.434 271.944L68.1602 205.965L181.701 139.985L295.975 205.956Z" fill="url(#paint2_linear_116_8294)"/>
<path d="M106.366 204.238L106.357 207.62L92.5723 215.635L92.5812 212.253L106.366 204.238Z" fill="#DCDCE4"/>
<path d="M106.366 204.238L106.357 207.62L92.5723 215.635L92.5812 212.253L106.366 204.238Z" fill="url(#paint3_linear_116_8294)"/>
<path d="M92.5813 212.253L92.5723 215.635L78.6895 207.62L78.6984 204.238L92.5813 212.253Z" fill="#DCDCE4"/>
<path d="M92.5813 212.253L92.5723 215.635L78.6895 207.62L78.6984 204.238L92.5813 212.253Z" fill="url(#paint4_linear_116_8294)"/>
<path d="M106.365 204.238L92.5801 212.253L78.6973 204.238L92.4907 196.233L106.365 204.238Z" fill="url(#paint5_linear_116_8294)"/>
<path d="M101.409 107.711L101.087 204.882L96.0332 207.817L96.3552 110.645L101.409 107.711Z" fill="#DCDCE4"/>
<path d="M101.409 107.711L101.087 204.882L96.0332 207.817L96.3552 110.645L101.409 107.711Z" fill="url(#paint6_linear_116_8294)"/>
<path d="M89.181 110.645L88.859 207.808L83.7871 204.882L84.1091 107.711L89.181 110.645Z" fill="#DCDCE4"/>
<path d="M89.181 110.645L88.859 207.808L83.7871 204.882L84.1091 107.711L89.181 110.645Z" fill="url(#paint7_linear_116_8294)"/>
<path d="M96.3554 110.645L96.0334 207.816L88.8594 207.808L89.1814 110.645H96.3554Z" fill="#D9DFFF"/>
<path d="M101.374 103.561L101.41 107.711L96.3559 110.645H89.1819L84.11 107.711L84.0742 103.561L89.1282 100.618L96.3022 100.627L101.374 103.561Z" fill="#ECEAEF"/>
<path d="M137.062 186.545L137.053 189.926L123.26 197.932L123.278 194.551L137.062 186.545Z" fill="#DCDCE4"/>
<path d="M123.277 194.551L123.259 197.932L109.385 189.926L109.394 186.545L123.277 194.551Z" fill="#DCDCE4"/>
<path d="M137.06 186.545L123.275 194.551L109.393 186.545L123.177 178.53L137.06 186.545Z" fill="#ECEAEF"/>
<path d="M132.094 90.0089L131.772 187.18L126.727 190.114L127.04 92.9519L132.094 90.0089Z" fill="#DCDCE4"/>
<path d="M119.876 92.9429L119.554 190.114L114.473 187.18L114.795 90.0089L119.876 92.9429Z" fill="#DCDCE4"/>
<path d="M127.04 92.9518L126.727 190.114H119.553L119.875 92.9429L127.04 92.9518Z" fill="#EDECF8"/>
<path d="M132.067 85.8584L132.094 90.0089L127.04 92.9519L119.875 92.9429L114.794 90.0089L114.768 85.8584L119.813 82.9243H126.987L132.067 85.8584Z" fill="#ECEAEF"/>
<path d="M167.748 168.843L167.739 172.224L153.945 180.239L153.954 176.857L167.748 168.843Z" fill="#DCDCE4"/>
<path d="M153.953 176.857L153.944 180.239L140.07 172.224L140.079 168.843L153.953 176.857Z" fill="#DCDCE4"/>
<path d="M167.745 168.842L153.952 176.857L140.078 168.842L153.863 160.828L167.745 168.842Z" fill="#ECEAEF"/>
<path d="M162.782 72.3154L162.46 169.487L157.406 172.421L157.728 75.2494L162.782 72.3154Z" fill="#DCDCE4"/>
<path d="M150.554 75.2405L150.241 172.412L145.16 169.487L145.482 72.3154L150.554 75.2405Z" fill="#DCDCE4"/>
<path d="M157.727 75.2494L157.405 172.421L150.24 172.412L150.553 75.2405L157.727 75.2494Z" fill="#EDECF8"/>
<path d="M162.747 68.1559L162.783 72.3154L157.729 75.2494L150.555 75.2405L145.483 72.3154L145.447 68.1559L150.501 65.2219L157.675 65.2309L162.747 68.1559Z" fill="#ECEAEF"/>
<path d="M198.432 151.14L198.423 154.521L184.639 162.536L184.648 159.155L198.432 151.14Z" fill="#DCDCE4"/>
<path d="M184.648 159.155L184.639 162.536L170.756 154.53L170.765 151.14L184.648 159.155Z" fill="#DCDCE4"/>
<path d="M198.431 151.14L184.647 159.155L170.764 151.14L184.557 143.134L198.431 151.14Z" fill="#ECEAEF"/>
<path d="M193.469 54.6129L193.156 151.784L188.102 154.718L188.424 57.5469L193.469 54.6129Z" fill="#DCDCE4"/>
<path d="M181.249 57.547L180.927 154.718L175.855 151.784L176.169 54.6129L181.249 57.547Z" fill="#DCDCE4"/>
<path d="M188.424 57.5469L188.102 154.718H180.928L181.25 57.5469H188.424Z" fill="#EDECF8"/>
<path d="M193.442 50.4624L193.469 54.6129L188.424 57.5469H181.25L176.169 54.6129L176.143 50.4624L181.197 47.5194L188.362 47.5284L193.442 50.4624Z" fill="#ECEAEF"/>
<path d="M270.1 100.162L269.912 193.057L181.668 244.411L181.856 151.516L270.1 100.162Z" fill="#D9DFFF"/>
<path d="M181.856 151.516L181.668 244.411L107.656 201.68L107.844 108.785L181.856 151.516Z" fill="#D0D0DA"/>
<path d="M181.856 151.516L181.668 244.411L107.656 201.68L107.844 108.785L181.856 151.516Z" fill="url(#paint8_linear_116_8294)"/>
<path d="M270.102 100.162L181.858 151.516L107.846 108.785L196.09 57.4307L270.102 100.162Z" fill="#C8C8D5"/>
<path d="M193.844 255.816L193.835 259.197L180.051 267.212L180.06 263.831L193.844 255.816Z" fill="#DCDCE4"/>
<path d="M193.844 255.816L193.835 259.197L180.051 267.212L180.06 263.831L193.844 255.816Z" fill="url(#paint9_linear_116_8294)"/>
<path d="M180.06 263.831L180.051 267.212L166.168 259.197L166.177 255.816L180.06 263.831Z" fill="#DCDCE4"/>
<path d="M180.06 263.831L180.051 267.212L166.168 259.197L166.177 255.816L180.06 263.831Z" fill="url(#paint10_linear_116_8294)"/>
<path d="M193.843 255.816L180.059 263.831L166.176 255.816L179.96 247.801L193.843 255.816Z" fill="url(#paint11_linear_116_8294)"/>
<path d="M188.877 160.917L188.564 256.451L183.51 259.385L183.823 163.851L188.877 160.917Z" fill="#DCDCE4"/>
<path d="M188.877 160.917L188.564 256.451L183.51 259.385L183.823 163.851L188.877 160.917Z" fill="url(#paint12_linear_116_8294)"/>
<path d="M176.659 163.842L176.337 259.385L171.256 256.451L171.578 160.917L176.659 163.842Z" fill="#DCDCE4"/>
<path d="M176.659 163.842L176.337 259.385L171.256 256.451L171.578 160.917L176.659 163.842Z" fill="url(#paint13_linear_116_8294)"/>
<path d="M183.823 163.851L183.51 259.385H176.336L176.658 163.842L183.823 163.851Z" fill="#D9DFFF"/>
<path d="M188.851 156.758L188.878 160.917L183.824 163.851L176.658 163.842L171.578 160.917L171.551 156.758L176.596 153.824L183.77 153.833L188.851 156.758Z" fill="#ECEAEF"/>
<path d="M224.537 238.114L224.519 241.495L210.734 249.51L210.743 246.129L224.537 238.114Z" fill="#DCDCE4"/>
<path d="M224.537 238.114L224.519 241.495L210.734 249.51L210.743 246.129L224.537 238.114Z" fill="url(#paint14_linear_116_8294)"/>
<path d="M210.742 246.129L210.733 249.51L196.859 241.495L196.868 238.114L210.742 246.129Z" fill="#DCDCE4"/>
<path d="M210.742 246.129L210.733 249.51L196.859 241.495L196.868 238.114L210.742 246.129Z" fill="url(#paint15_linear_116_8294)"/>
<path d="M224.535 238.114L210.741 246.129L196.867 238.114L210.652 230.099L224.535 238.114Z" fill="url(#paint16_linear_116_8294)"/>
<path d="M219.569 143.215L219.247 238.758L214.193 241.692L214.515 146.149L219.569 143.215Z" fill="url(#paint17_linear_116_8294)"/>
<path d="M207.341 146.149L207.028 241.683L201.947 238.758L202.269 143.215L207.341 146.149Z" fill="url(#paint18_linear_116_8294)"/>
<path d="M214.514 146.149L214.192 241.692L207.027 241.683L207.34 146.149H214.514Z" fill="#D9DFFF"/>
<path d="M219.534 139.064L219.57 143.215L214.516 146.149H207.342L202.27 143.215L202.234 139.064L207.288 136.13H214.462L219.534 139.064Z" fill="#ECEAEF"/>
<path d="M255.217 220.42L255.208 223.801L241.424 231.807L241.433 228.426L255.217 220.42Z" fill="#DCDCE4"/>
<path d="M255.217 220.42L255.208 223.801L241.424 231.807L241.433 228.426L255.217 220.42Z" fill="url(#paint19_linear_116_8294)"/>
<path d="M241.433 228.426L241.424 231.807L227.541 223.801L227.55 220.42L241.433 228.426Z" fill="#DCDCE4"/>
<path d="M241.433 228.426L241.424 231.807L227.541 223.801L227.55 220.42L241.433 228.426Z" fill="url(#paint20_linear_116_8294)"/>
<path d="M255.216 220.42L241.432 228.426L227.549 220.42L241.342 212.405L255.216 220.42Z" fill="url(#paint21_linear_116_8294)"/>
<path d="M250.261 125.521L249.939 221.055L244.885 223.989L245.207 128.455L250.261 125.521Z" fill="url(#paint22_linear_116_8294)"/>
<path d="M238.033 128.446L237.711 223.989L232.639 221.055L232.952 125.521L238.033 128.446Z" fill="url(#paint23_linear_116_8294)"/>
<path d="M245.207 128.455L244.885 223.989H237.711L238.033 128.446L245.207 128.455Z" fill="#D9DFFF"/>
<path d="M250.226 121.362L250.261 125.521L245.207 128.455L238.033 128.446L232.953 125.521L232.926 121.362L237.98 118.428H245.145L250.226 121.362Z" fill="#ECEAEF"/>
<path d="M285.908 202.718L285.899 206.099L272.105 214.114L272.114 210.733L285.908 202.718Z" fill="#DCDCE4"/>
<path d="M285.908 202.718L285.899 206.099L272.105 214.114L272.114 210.733L285.908 202.718Z" fill="url(#paint24_linear_116_8294)"/>
<path d="M272.113 210.733L272.104 214.114L258.23 206.099L258.239 202.718L272.113 210.733Z" fill="#DCDCE4"/>
<path d="M272.113 210.733L272.104 214.114L258.23 206.099L258.239 202.718L272.113 210.733Z" fill="url(#paint25_linear_116_8294)"/>
<path d="M285.906 202.718L272.112 210.733L258.238 202.718L272.023 194.703L285.906 202.718Z" fill="url(#paint26_linear_116_8294)"/>
<path d="M280.941 107.819L280.619 203.353L275.574 206.296L275.887 110.753L280.941 107.819Z" fill="url(#paint27_linear_116_8294)"/>
<path d="M268.723 110.753L268.401 206.287L263.32 203.353L263.642 107.819L268.723 110.753Z" fill="url(#paint28_linear_116_8294)"/>
<path d="M275.887 110.753L275.574 206.296L268.4 206.287L268.722 110.753H275.887Z" fill="#D9DFFF"/>
<path d="M280.915 103.659L280.942 107.819L275.888 110.753H268.723L263.642 107.819L263.615 103.668L268.66 100.725L275.834 100.734L280.915 103.659Z" fill="#ECEAEF"/>
<path d="M301.756 116.63L301.729 128.75L183.877 196.76L183.913 184.649L301.756 116.63Z" fill="url(#paint29_linear_116_8294)"/>
<path d="M183.913 184.649L183.877 196.76L62.8047 126.863L62.8405 114.742L183.913 184.649Z" fill="url(#paint30_linear_116_8294)"/>
<path d="M301.756 116.63L183.912 184.649L62.8398 114.742L183.179 52.6898L301.756 116.63Z" fill="url(#paint31_linear_116_8294)"/>
<path d="M183.914 184.64L62.8418 114.742L123.383 105.01L124.751 106.808L75.3829 114.742L76.7247 115.52L122.086 108.239L167.437 167.885L174.102 171.741L183.914 184.64Z" fill="url(#paint32_linear_116_8294)"/>
<path d="M172.598 174.684L71.5625 116.352L76.7239 115.52L122.085 108.239L167.437 167.885L172.598 174.684Z" fill="url(#paint33_linear_116_8294)"/>
<path d="M122.085 108.239L167.437 167.885L76.7246 115.52L122.085 108.239Z" fill="url(#paint34_linear_116_8294)"/>
<path d="M176.419 173.074L174.102 171.741L124.752 106.808L125.915 106.62L176.419 173.074Z" fill="#C8C8D5"/>
<path d="M241.217 37L229.678 43.6552L227.075 45.158L214.015 52.6987L211.474 54.1657H211.456L198.316 61.7512L195.785 63.2182H195.776L182.644 70.8037L180.211 72.217H180.193L166.963 79.8562L164.539 81.2516L151.274 88.9087L148.894 90.2862H148.876L135.62 97.9433L133.294 99.2851L123.383 105.001L62.8418 114.742L72.7083 109.044L76.34 106.951L87.3783 100.573L91.0548 98.4621L103.972 91.0019L107.585 88.9176L119.626 81.9762L123.23 79.883L134.278 73.5051L137.963 71.3851L150.88 63.9338L154.512 61.8407L165.55 55.4628L169.226 53.3338L180.667 46.7323L241.217 37Z" fill="url(#paint35_linear_116_8294)"/>
<path d="M301.875 116.63L289.352 123.866L288.055 124.609L274.673 132.328L273.385 133.089L257.981 141.971L256.693 142.714L243.311 150.433L242.005 151.194L227.648 159.486L226.333 160.228L210.947 169.12L209.641 169.862L196.277 177.573L194.971 178.333L184.049 184.631L174.237 171.732L124.886 106.808L123.518 105.001L133.429 99.2851L135.755 97.9433L149.029 90.2862L151.409 88.9087L164.674 81.2516L167.098 79.8562L180.346 72.217L182.779 70.8037L195.92 63.2182L198.451 61.7512L211.591 54.1657L214.15 52.6987L227.21 45.158L229.813 43.6552L241.352 37L301.875 116.63Z" fill="url(#paint36_linear_116_8294)"/>
<path d="M151.549 159.164L154.689 157.339L154.626 179.55L151.486 181.375L151.549 159.164Z" fill="#D9DFFF"/>
<path d="M111.385 135.969L114.525 134.144L154.688 157.339L151.548 159.164L111.385 135.969Z" fill="url(#paint37_linear_116_8294)"/>
<path d="M151.547 159.164L151.484 181.375L111.32 158.189L111.383 135.969L151.547 159.164Z" fill="url(#paint38_linear_116_8294)"/>
<path d="M149.998 179.237C149.927 179.237 149.846 179.219 149.784 179.183L112.59 157.706C112.456 157.625 112.375 157.491 112.375 157.33L112.429 138.545C112.429 138.393 112.509 138.25 112.643 138.17C112.778 138.098 112.939 138.089 113.073 138.17L150.267 159.647C150.401 159.727 150.481 159.862 150.481 160.023L150.428 178.807C150.428 178.959 150.347 179.103 150.213 179.174C150.141 179.21 150.07 179.228 149.998 179.228V179.237ZM113.234 157.089L149.569 178.065L149.623 160.273L113.287 139.288L113.234 157.089Z" fill="#2E4277"/>
<path d="M115.137 144.1L119.108 146.39C121.103 147.544 121.828 149.333 121.828 150.934C121.828 151.954 121.452 152.893 120.513 152.553C121.318 153.189 121.989 154.495 121.989 155.908C121.989 157.974 121.175 158.708 119.153 157.536L115.146 155.219V144.091L115.137 144.1ZM119.001 150.738C119.663 151.122 120.012 150.854 120.012 150.058C120.012 149.029 119.466 148.474 119.001 148.206L116.988 147.043V149.575L119.001 150.738ZM119.073 155.622C119.627 155.944 120.137 155.935 120.137 154.745C120.137 153.931 119.851 153.019 119.073 152.571L116.979 151.364V154.414L119.073 155.622Z" fill="#2E4277"/>
<path d="M125.585 150.129L127.678 151.337L130.809 164.272L128.85 163.136L128.17 160.273L125.012 158.448L124.315 160.515L122.338 159.37L125.585 150.12V150.129ZM127.723 158.135L126.641 153.537L125.487 156.838L127.723 158.135Z" fill="#2E4277"/>
<path d="M131.793 153.716L133.663 154.799L137.482 164.191V156.999L139.325 158.064V169.191L137.482 168.127L133.645 158.806V165.909L131.793 164.835V153.707V153.716Z" fill="#2E4277"/>
<path d="M140.703 158.86L142.474 159.879V164.531L143.252 164.978L145.695 161.74L147.841 162.983L144.898 166.857L147.841 174.111L145.695 172.868L143.252 166.866L142.492 166.427V171.025L140.712 169.996V158.869L140.703 158.86Z" fill="#2E4277"/>
<path d="M153.929 187.547L132.89 175.399L132.881 216.243L153.929 228.39V187.547Z" fill="#BEBECD"/>
<path d="M155.61 188.54L134.562 176.392V217.236L155.61 229.383V188.54Z" fill="#35353F"/>
<g opacity="0.5">
<path opacity="0.3" d="M289.215 123.866L287.918 124.609L228.746 44.8807L227.074 45.158L165.549 55.4628L169.225 53.3338L229.381 43.2705L229.668 43.6283L229.677 43.6552L289.215 123.866Z" fill="#384E85"/>
<path opacity="0.3" d="M274.537 132.328L273.249 133.089L213.057 53.9153L211.473 54.1657H211.455L150.879 63.9338L154.511 61.8407L213.719 52.2962L214.014 52.6987L274.537 132.328Z" fill="#384E85"/>
<path opacity="0.3" d="M257.846 141.971L256.558 142.714L197.35 62.9499L195.784 63.2182H195.775L134.277 73.5051L137.963 71.3851L197.985 61.3308L198.271 61.6886L198.316 61.7512L257.846 141.971Z" fill="#384E85"/>
<path opacity="0.3" d="M243.173 150.433L241.867 151.194L181.667 71.9755L180.209 72.2171H180.191L119.623 81.9762L123.228 79.883L182.32 70.3744L182.642 70.8037L243.173 150.433Z" fill="#384E85"/>
<path opacity="0.3" d="M227.512 159.486L226.197 160.228L165.996 81.0101L164.538 81.2516L103.971 91.0018L107.585 88.9176L166.64 79.4089L166.962 79.8562L227.512 159.486Z" fill="#384E85"/>
<path opacity="0.3" d="M210.811 169.12L209.505 169.862L150.27 90.0537L148.893 90.2862H148.875L87.377 100.573L91.0534 98.4621L150.923 88.4346L151.192 88.8014L151.272 88.9087L210.811 169.12Z" fill="#384E85"/>
<path opacity="0.3" d="M196.141 177.573L194.835 178.333L134.607 99.0704L133.293 99.2851L72.707 109.044L76.3388 106.951L135.243 97.4692L135.618 97.9433L196.141 177.573Z" fill="#384E85"/>
</g>
</g>
<defs>
<filter id="filter0_f_116_8294" x="36" y="119" width="330" height="224" filterUnits="userSpaceOnUse" color-interpolation-filters="sRGB">
<feFlood flood-opacity="0" result="BackgroundImageFix"/>
<feBlend mode="normal" in="SourceGraphic" in2="BackgroundImageFix" result="shape"/>
<feGaussianBlur stdDeviation="11" result="effect1_foregroundBlur_116_8294"/>
</filter>
<linearGradient id="paint0_linear_116_8294" x1="295.088" y1="296.293" x2="290.935" y2="88.4704" gradientUnits="userSpaceOnUse">
<stop offset="0.02" stop-color="#E5E9FF"/>
<stop offset="0.66" stop-color="#F4F6FF"/>
<stop offset="1" stop-color="white"/>
</linearGradient>
<linearGradient id="paint1_linear_116_8294" x1="285.497" y1="271.992" x2="281.839" y2="88.9151" gradientUnits="userSpaceOnUse">
<stop offset="0.02" stop-color="#E5E9FF"/>
<stop offset="0.66" stop-color="#F4F6FF"/>
<stop offset="1" stop-color="white"/>
</linearGradient>
<linearGradient id="paint2_linear_116_8294" x1="285.497" y1="271.992" x2="281.839" y2="88.9151" gradientUnits="userSpaceOnUse">
<stop offset="0.02" stop-color="#E5E9FF"/>
<stop offset="0.66" stop-color="#F4F6FF"/>
<stop offset="1" stop-color="white"/>
</linearGradient>
<linearGradient id="paint3_linear_116_8294" x1="105.731" y1="215.639" x2="109.691" y2="201.121" gradientUnits="userSpaceOnUse">
<stop offset="0.02" stop-color="#E5E9FF"/>
<stop offset="0.612885" stop-color="#CED5F9"/>
<stop offset="0.812765" stop-color="#F4F6FF"/>
<stop offset="1" stop-color="white"/>
</linearGradient>
<linearGradient id="paint4_linear_116_8294" x1="91.9424" y1="215.639" x2="95.878" y2="201.106" gradientUnits="userSpaceOnUse">
<stop offset="0.02" stop-color="#E5E9FF"/>
<stop offset="0.612885" stop-color="#CED5F9"/>
<stop offset="0.812765" stop-color="#F4F6FF"/>
<stop offset="1" stop-color="white"/>
</linearGradient>
<linearGradient id="paint5_linear_116_8294" x1="105.092" y1="212.259" x2="104.648" y2="190.032" gradientUnits="userSpaceOnUse">
<stop offset="0.02" stop-color="#E5E9FF"/>
<stop offset="0.66" stop-color="#F4F6FF"/>
<stop offset="1" stop-color="white"/>
</linearGradient>
<linearGradient id="paint6_linear_116_8294" x1="101.162" y1="207.853" x2="37.9826" y2="109.497" gradientUnits="userSpaceOnUse">
<stop offset="0.00520833" stop-color="#E5E9FF"/>
<stop offset="0.229167" stop-color="#F4F6FF"/>
<stop offset="1" stop-color="white"/>
</linearGradient>
<linearGradient id="paint7_linear_116_8294" x1="88.933" y1="207.844" x2="25.8491" y2="109.301" gradientUnits="userSpaceOnUse">
<stop offset="0.00520833" stop-color="#E5E9FF"/>
<stop offset="0.229167" stop-color="#F4F6FF"/>
<stop offset="1" stop-color="white"/>
</linearGradient>
<linearGradient id="paint8_linear_116_8294" x1="178.444" y1="244.46" x2="166.621" y2="56.9654" gradientUnits="userSpaceOnUse">
<stop offset="0.02" stop-color="#E5E9FF"/>
<stop offset="0.66" stop-color="#F4F6FF"/>
<stop offset="1" stop-color="white"/>
</linearGradient>
<linearGradient id="paint9_linear_116_8294" x1="193.21" y1="267.216" x2="197.17" y2="252.698" gradientUnits="userSpaceOnUse">
<stop offset="0.02" stop-color="#E5E9FF"/>
<stop offset="0.612885" stop-color="#CED5F9"/>
<stop offset="0.812765" stop-color="#F4F6FF"/>
<stop offset="1" stop-color="white"/>
</linearGradient>
<linearGradient id="paint10_linear_116_8294" x1="179.421" y1="267.216" x2="183.357" y2="252.684" gradientUnits="userSpaceOnUse">
<stop offset="0.02" stop-color="#E5E9FF"/>
<stop offset="0.612885" stop-color="#CED5F9"/>
<stop offset="0.812765" stop-color="#F4F6FF"/>
<stop offset="1" stop-color="white"/>
</linearGradient>
<linearGradient id="paint11_linear_116_8294" x1="192.571" y1="263.837" x2="192.126" y2="241.598" gradientUnits="userSpaceOnUse">
<stop offset="0.02" stop-color="#E5E9FF"/>
<stop offset="0.66" stop-color="#F4F6FF"/>
<stop offset="1" stop-color="white"/>
</linearGradient>
<linearGradient id="paint12_linear_116_8294" x1="188.63" y1="259.421" x2="126.871" y2="161.841" gradientUnits="userSpaceOnUse">
<stop offset="0.00520833" stop-color="#E5E9FF"/>
<stop offset="0.229167" stop-color="#F4F6FF"/>
<stop offset="1" stop-color="white"/>
</linearGradient>
<linearGradient id="paint13_linear_116_8294" x1="176.41" y1="259.421" x2="114.828" y2="161.471" gradientUnits="userSpaceOnUse">
<stop offset="0.00520833" stop-color="#E5E9FF"/>
<stop offset="0.229167" stop-color="#F4F6FF"/>
<stop offset="1" stop-color="white"/>
</linearGradient>
<linearGradient id="paint14_linear_116_8294" x1="223.902" y1="249.514" x2="227.86" y2="234.995" gradientUnits="userSpaceOnUse">
<stop offset="0.02" stop-color="#E5E9FF"/>
<stop offset="0.612885" stop-color="#CED5F9"/>
<stop offset="0.812765" stop-color="#F4F6FF"/>
<stop offset="1" stop-color="white"/>
</linearGradient>
<linearGradient id="paint15_linear_116_8294" x1="210.104" y1="249.514" x2="214.042" y2="234.983" gradientUnits="userSpaceOnUse">
<stop offset="0.02" stop-color="#E5E9FF"/>
<stop offset="0.612885" stop-color="#CED5F9"/>
<stop offset="0.812765" stop-color="#F4F6FF"/>
<stop offset="1" stop-color="white"/>
</linearGradient>
<linearGradient id="paint16_linear_116_8294" x1="223.262" y1="246.134" x2="222.818" y2="223.895" gradientUnits="userSpaceOnUse">
<stop offset="0.02" stop-color="#E5E9FF"/>
<stop offset="0.66" stop-color="#F4F6FF"/>
<stop offset="1" stop-color="white"/>
</linearGradient>
<linearGradient id="paint17_linear_116_8294" x1="219.322" y1="241.727" x2="157.599" y2="144.051" gradientUnits="userSpaceOnUse">
<stop offset="0.00520833" stop-color="#E5E9FF"/>
<stop offset="0.229167" stop-color="#F4F6FF"/>
<stop offset="1" stop-color="white"/>
</linearGradient>
<linearGradient id="paint18_linear_116_8294" x1="207.093" y1="241.718" x2="145.467" y2="143.861" gradientUnits="userSpaceOnUse">
<stop offset="0.00520833" stop-color="#E5E9FF"/>
<stop offset="0.229167" stop-color="#F4F6FF"/>
<stop offset="1" stop-color="white"/>
</linearGradient>
<linearGradient id="paint19_linear_116_8294" x1="254.583" y1="231.812" x2="258.537" y2="217.303" gradientUnits="userSpaceOnUse">
<stop offset="0.02" stop-color="#E5E9FF"/>
<stop offset="0.612885" stop-color="#CED5F9"/>
<stop offset="0.812765" stop-color="#F4F6FF"/>
<stop offset="1" stop-color="white"/>
</linearGradient>
<linearGradient id="paint20_linear_116_8294" x1="240.794" y1="231.812" x2="244.724" y2="217.289" gradientUnits="userSpaceOnUse">
<stop offset="0.02" stop-color="#E5E9FF"/>
<stop offset="0.612885" stop-color="#CED5F9"/>
<stop offset="0.812765" stop-color="#F4F6FF"/>
<stop offset="1" stop-color="white"/>
</linearGradient>
<linearGradient id="paint21_linear_116_8294" x1="253.944" y1="228.432" x2="253.5" y2="206.205" gradientUnits="userSpaceOnUse">
<stop offset="0.02" stop-color="#E5E9FF"/>
<stop offset="0.66" stop-color="#F4F6FF"/>
<stop offset="1" stop-color="white"/>
</linearGradient>
<linearGradient id="paint22_linear_116_8294" x1="250.014" y1="224.025" x2="188.299" y2="126.352" gradientUnits="userSpaceOnUse">
<stop offset="0.00520833" stop-color="#E5E9FF"/>
<stop offset="0.229167" stop-color="#F4F6FF"/>
<stop offset="1" stop-color="white"/>
</linearGradient>
<linearGradient id="paint23_linear_116_8294" x1="237.785" y1="224.025" x2="176.158" y2="126.167" gradientUnits="userSpaceOnUse">
<stop offset="0.00520833" stop-color="#E5E9FF"/>
<stop offset="0.229167" stop-color="#F4F6FF"/>
<stop offset="1" stop-color="white"/>
</linearGradient>
<linearGradient id="paint24_linear_116_8294" x1="285.273" y1="214.118" x2="289.231" y2="199.599" gradientUnits="userSpaceOnUse">
<stop offset="0.02" stop-color="#E5E9FF"/>
<stop offset="0.612885" stop-color="#CED5F9"/>
<stop offset="0.812765" stop-color="#F4F6FF"/>
<stop offset="1" stop-color="white"/>
</linearGradient>
<linearGradient id="paint25_linear_116_8294" x1="271.475" y1="214.118" x2="275.413" y2="199.587" gradientUnits="userSpaceOnUse">
<stop offset="0.02" stop-color="#E5E9FF"/>
<stop offset="0.612885" stop-color="#CED5F9"/>
<stop offset="0.812765" stop-color="#F4F6FF"/>
<stop offset="1" stop-color="white"/>
</linearGradient>
<linearGradient id="paint26_linear_116_8294" x1="284.633" y1="210.738" x2="284.189" y2="188.499" gradientUnits="userSpaceOnUse">
<stop offset="0.02" stop-color="#E5E9FF"/>
<stop offset="0.66" stop-color="#F4F6FF"/>
<stop offset="1" stop-color="white"/>
</linearGradient>
<linearGradient id="paint27_linear_116_8294" x1="280.694" y1="206.331" x2="218.928" y2="108.748" gradientUnits="userSpaceOnUse">
<stop offset="0.00520833" stop-color="#E5E9FF"/>
<stop offset="0.229167" stop-color="#F4F6FF"/>
<stop offset="1" stop-color="white"/>
</linearGradient>
<linearGradient id="paint28_linear_116_8294" x1="268.475" y1="206.322" x2="206.892" y2="108.373" gradientUnits="userSpaceOnUse">
<stop offset="0.00520833" stop-color="#E5E9FF"/>
<stop offset="0.229167" stop-color="#F4F6FF"/>
<stop offset="1" stop-color="white"/>
</linearGradient>
<linearGradient id="paint29_linear_116_8294" x1="296.335" y1="196.789" x2="293.728" y2="85.6344" gradientUnits="userSpaceOnUse">
<stop offset="0.02" stop-color="#E5E9FF"/>
<stop offset="0.66" stop-color="#F4F6FF"/>
<stop offset="1" stop-color="white"/>
</linearGradient>
<linearGradient id="paint30_linear_116_8294" x1="178.343" y1="196.79" x2="175.685" y2="83.0165" gradientUnits="userSpaceOnUse">
<stop offset="0.02" stop-color="#E5E9FF"/>
<stop offset="0.66" stop-color="#F4F6FF"/>
<stop offset="1" stop-color="white"/>
</linearGradient>
<linearGradient id="paint31_linear_116_8294" x1="179.422" y1="172.519" x2="184.454" y2="149.505" gradientUnits="userSpaceOnUse">
<stop offset="0.02" stop-color="#E5E9FF"/>
<stop offset="0.607409" stop-color="#F4F6FF"/>
<stop offset="1" stop-color="white"/>
</linearGradient>
<linearGradient id="paint32_linear_116_8294" x1="178.346" y1="184.668" x2="175.84" y2="74.2046" gradientUnits="userSpaceOnUse">
<stop offset="0.02" stop-color="#E5E9FF"/>
<stop offset="0.66" stop-color="#F4F6FF"/>
<stop offset="1" stop-color="white"/>
</linearGradient>
<linearGradient id="paint33_linear_116_8294" x1="165.111" y1="178.781" x2="199.126" y2="137.241" gradientUnits="userSpaceOnUse">
<stop offset="0.02" stop-color="#E5E9FF"/>
<stop offset="0.66" stop-color="#F4F6FF"/>
<stop offset="1" stop-color="white"/>
</linearGradient>
<linearGradient id="paint34_linear_116_8294" x1="163.265" y1="167.907" x2="161.388" y2="85.1645" gradientUnits="userSpaceOnUse">
<stop offset="0.02" stop-color="#E5E9FF"/>
<stop offset="0.66" stop-color="#F4F6FF"/>
<stop offset="1" stop-color="white"/>
</linearGradient>
<linearGradient id="paint35_linear_116_8294" x1="233.013" y1="114.77" x2="231.391" y2="6.89367" gradientUnits="userSpaceOnUse">
<stop offset="0.02" stop-color="#E5E9FF"/>
<stop offset="0.66" stop-color="#F4F6FF"/>
<stop offset="1" stop-color="white"/>
</linearGradient>
<linearGradient id="paint36_linear_116_8294" x1="275.585" y1="121.084" x2="327.95" y2="61.9273" gradientUnits="userSpaceOnUse">
<stop offset="0.02" stop-color="#E5E9FF"/>
<stop offset="0.612885" stop-color="#CED5F9"/>
<stop offset="0.812765" stop-color="#F4F6FF"/>
<stop offset="1" stop-color="white"/>
</linearGradient>
<linearGradient id="paint37_linear_116_8294" x1="152.697" y1="159.173" x2="152.005" y2="124.461" gradientUnits="userSpaceOnUse">
<stop offset="0.02" stop-color="#E5E9FF"/>
<stop offset="0.66" stop-color="#F4F6FF"/>
<stop offset="1" stop-color="white"/>
</linearGradient>
<linearGradient id="paint38_linear_116_8294" x1="149.697" y1="181.391" x2="147.246" y2="118.467" gradientUnits="userSpaceOnUse">
<stop offset="0.02" stop-color="#E5E9FF"/>
<stop offset="0.66" stop-color="#F4F6FF"/>
<stop offset="1" stop-color="white"/>
</linearGradient>
<clipPath id="clip0_116_8294">
<rect width="360" height="349" fill="white"/>
</clipPath>
</defs>
</svg>
